<?xml version="1.0" standalone="no"?>
<!DOCTYPE svg PUBLIC "-//W3C//DTD SVG 20010904//EN"
  "http://www.w3.org/TR/2001/REC-SVG-20010904/DTD/svg10.dtd">
<svg width="64" height="64">
<g style="<defs>
</defs>
" transform="scale(0.994816,0.994816)">
<g style="" transform="scale(0.994816,0.994816)">
  <path d="M47.07,11.34H23.89a12.21,12.21,0,0,0-12.21,12.2V46.72A12.21,12.21,0,0,0,23.89,58.93H47.07A12.21,12.21,0,0,0,59.28,46.72V23.54A12.21,12.21,0,0,0,47.07,11.34Z"/>
</g>
<g style="" transform="scale(0.994816,0.994816)">
  <circle cx="23.26" cy="35.13" r="4.58"/>
</g>
<g style="" transform="scale(0.994816,0.994816)">
  <circle cx="35.48" cy="35.13" r="4.58"/>
</g>
<g style="" transform="scale(0.994816,0.994816)">
  <circle cx="47.7" cy="35.13" r="4.58"/>
</g>
<g style="" transform="scale(0.994816,0.994816)">
  <circle cx="35.48" cy="22.92" r="4.58"/>
</g>
<g style="" transform="scale(0.994816,0.994816)">
  <circle cx="35.48" cy="47.35" r="4.58"/>
</g>
</g>
</svg>
