<svg id="Calque_1" data-name="Calque 1" xmlns="http://www.w3.org/2000/svg" viewBox="0 0 71.37 71.37"><defs><style>.cls-1{fill:#fff;}.cls-2{fill:#dd565a;}.cls-3{fill:#fcea1e;}.cls-4{fill:#58b9e8;}</style></defs><title>chat</title><path class="cls-1" d="M35.62,1.55A33.78,33.78,0,1,0,69.4,35.32,33.77,33.77,0,0,0,35.62,1.55ZM56.46,53.46,54.93,55a1.63,1.63,0,0,1-2.31,0l-7-7A2.29,2.29,0,0,1,45,46.41V45.33l-.7-.72a16.71,16.71,0,0,1-26.93-8,5.18,5.18,0,0,1,0-9.43,16.71,16.71,0,0,1,32.08,0,5.18,5.18,0,0,1,0,9.43,16.62,16.62,0,0,1-3.35,6.17l.72.7h1.09a2.29,2.29,0,0,1,1.62.67l7,7A1.65,1.65,0,0,1,56.46,53.46Z"/><path class="cls-1" d="M42.05,31.91a5.17,5.17,0,0,1,2.13-4.18,11.57,11.57,0,0,0-21.59,0,5.18,5.18,0,0,1,0,8.37,11.57,11.57,0,0,0,21.59,0A5.18,5.18,0,0,1,42.05,31.91Zm-8.67,5.21a5.21,5.21,0,1,1,5.21-5.21A5.2,5.2,0,0,1,33.38,37.12Z"/><path class="cls-2" d="M24.72,31.91a5.2,5.2,0,0,0-2.13-4.18,11.48,11.48,0,0,0,0,8.37A5.21,5.21,0,0,0,24.72,31.91Z"/><path class="cls-2" d="M17.34,27.2a5.18,5.18,0,0,0,0,9.43,16,16,0,0,1-.64-3.47A16.8,16.8,0,0,1,17.34,27.2Z"/><path class="cls-3" d="M49.5,44.17a2.29,2.29,0,0,0-1.62-.67H46.79l-.72-.7a16.62,16.62,0,0,0,3.35-6.17,5.08,5.08,0,0,1-2.17.49,5.19,5.19,0,0,1-3.07-1,11.57,11.57,0,0,1-21.59,0,11.48,11.48,0,0,1,0-8.37,11.57,11.57,0,0,1,21.59,0,5.19,5.19,0,0,1,3.07-1,5.08,5.08,0,0,1,2.17.49,16.72,16.72,0,0,0-32.72,6,16,16,0,0,0,.64,3.47,16.71,16.71,0,0,0,26.93,8l.7.72v1.08A2.29,2.29,0,0,0,45.64,48l7,7a1.63,1.63,0,0,0,2.31,0l1.53-1.53a1.65,1.65,0,0,0,0-2.31Z"/><path class="cls-2" d="M28.18,31.91a5.2,5.2,0,0,0,5.2,5.21V26.71A5.2,5.2,0,0,0,28.18,31.91Z"/><path class="cls-4" d="M33.38,26.71V37.12a5.21,5.21,0,1,0,0-10.41Z"/><path class="cls-4" d="M44.18,27.73a5.21,5.21,0,0,0,3.07,9.39,5.08,5.08,0,0,0,2.17-.49,5.18,5.18,0,0,0,0-9.43,5.08,5.08,0,0,0-2.17-.49A5.19,5.19,0,0,0,44.18,27.73Z"/></svg>