<svg id="Calque_1" data-name="Calque 1" xmlns="http://www.w3.org/2000/svg" xmlns:xlink="http://www.w3.org/1999/xlink" viewBox="0 0 71.37 71.37"><defs><style>.cls-1{fill:#fff;}.cls-2{fill:url(#Dégradé_sans_nom_9);}.cls-3{fill:#58b9e8;}</style><linearGradient id="Dégradé_sans_nom_9" x1="10.5" y1="7.3" x2="17.77" y2="14.57" gradientUnits="userSpaceOnUse"><stop offset="0" stop-color="#39a7df"/><stop offset="1" stop-color="#29265b"/></linearGradient></defs><title>chat</title><path class="cls-1" d="M35.14,1.38A33.78,33.78,0,1,0,68.92,35.15,33.77,33.77,0,0,0,35.14,1.38Zm3.15,52.33a1.92,1.92,0,0,1-1.92,1.93H17.14a1.93,1.93,0,0,1-1.93-1.93h0a1.93,1.93,0,0,1,1.93-1.92H36.37a1.92,1.92,0,0,1,1.92,1.92Zm16.12-3.42-2.22,2.22a2.28,2.28,0,0,1-3.22,0L34.26,37.8l-5.87,5.87a3.31,3.31,0,0,1-4.6,0l-6.28-6.29a3.24,3.24,0,0,1,0-4.59l3.14-3.15h0l14-14a3.25,3.25,0,0,1,4.6,0l6.28,6.29h0a3.24,3.24,0,0,1,0,4.59l-3.14,3.15h0L39.7,32.36,54.41,47.07A2.29,2.29,0,0,1,54.41,50.29Z"/><path class="cls-1" d="M28.82,21.49,39.7,32.36l2.72-2.71L31.54,18.76l3.14-3.14a3.25,3.25,0,0,1,4.6,0l6.28,6.29h0l-6.28-6.29a3.25,3.25,0,0,0-4.6,0l-14,14L31.53,40.52l-3.14,3.15a3.39,3.39,0,0,1-1.22.75,3.26,3.26,0,0,0,1.22-.75l5.87-5.87L23.38,26.92Z"/><path class="cls-2" d="M28.82,21.49,39.7,32.36l2.72-2.71L31.54,18.76l3.14-3.14a3.25,3.25,0,0,1,4.6,0l6.28,6.29h0l-6.28-6.29a3.25,3.25,0,0,0-4.6,0l-14,14L31.53,40.52l-3.14,3.15a3.39,3.39,0,0,1-1.22.75,3.26,3.26,0,0,0,1.22-.75l5.87-5.87L23.38,26.92Z"/><path class="cls-3" d="M39.7,32.36,28.82,21.49l-5.44,5.43L34.26,37.8,49,52.51a2.28,2.28,0,0,0,3.22,0l2.22-2.22a2.29,2.29,0,0,0,0-3.22Z"/><path class="cls-3" d="M31.53,40.52,20.65,29.65h0l-3.14,3.15a3.24,3.24,0,0,0,0,4.59l6.28,6.29a3.24,3.24,0,0,0,3.38.75,3.39,3.39,0,0,0,1.22-.75Z"/><path class="cls-3" d="M34.68,15.62l-3.14,3.14L42.42,29.65h0l3.14-3.15a3.24,3.24,0,0,0,0-4.59h0l-6.28-6.29A3.25,3.25,0,0,0,34.68,15.62Z"/><rect class="cls-3" x="15.21" y="51.79" width="23.08" height="3.85" rx="1.92" ry="1.92"/></svg>