<svg id="Calque_1" data-name="Calque 1" xmlns="http://www.w3.org/2000/svg" viewBox="0 0 71.37 71.37"><defs><style>.cls-1{fill:#fff;}.cls-2{fill:#fcea1e;}.cls-3{fill:#dd565a;}.cls-4{fill:#58b9e8;}</style></defs><title>chat</title><path class="cls-1" d="M35.53,1.93A33.78,33.78,0,1,0,69.3,35.71,33.78,33.78,0,0,0,35.53,1.93ZM55.07,45.24l-.06.07-.18.17L43.67,56.65A.91.91,0,0,1,42.12,56V52.63a2,2,0,0,0-1.8-2A18.1,18.1,0,0,1,26,40.74a9,9,0,0,1-5.25,2.38,1,1,0,0,0-.89,1V45.8a.45.45,0,0,1-.77.32l-5.55-5.55-.09-.09,0,0h0a9,9,0,0,1,6.86-15.28A8.85,8.85,0,0,1,25,26.8,18.1,18.1,0,1,1,55.07,45.24Z"/><path class="cls-2" d="M41.27,14.52A18.18,18.18,0,0,0,25,26.8a9,9,0,0,1,1,13.94,18.1,18.1,0,0,0,14.35,9.87,2,2,0,0,1,1.8,2V56a.91.91,0,0,0,1.55.64L54.83,45.48l.18-.17.06-.07h0a18.1,18.1,0,0,0-13.8-30.72ZM34.76,35.71A2.77,2.77,0,1,1,37.52,33,2.77,2.77,0,0,1,34.76,35.71Zm7.36,0A2.77,2.77,0,1,1,44.88,33,2.77,2.77,0,0,1,42.12,35.71Zm7.36,0A2.77,2.77,0,1,1,52.24,33,2.77,2.77,0,0,1,49.48,35.71Z"/><path class="cls-3" d="M28.82,33.74A9,9,0,0,0,25,26.8a8.85,8.85,0,0,0-4.73-1.63,9,9,0,0,0-6.86,15.28h0l0,0,.09.09,5.55,5.55a.45.45,0,0,0,.77-.32V44.12a1,1,0,0,1,.89-1,9,9,0,0,0,8.1-9.38Z"/><path class="cls-4" d="M34.76,30.18A2.77,2.77,0,1,0,37.52,33,2.77,2.77,0,0,0,34.76,30.18Z"/><path class="cls-4" d="M42.12,30.18A2.77,2.77,0,1,0,44.88,33,2.77,2.77,0,0,0,42.12,30.18Z"/><path class="cls-4" d="M49.48,30.18A2.77,2.77,0,1,0,52.24,33,2.77,2.77,0,0,0,49.48,30.18Z"/></svg>