<svg id="Calque_1" data-name="Calque 1" xmlns="http://www.w3.org/2000/svg" viewBox="0 0 71.37 71.37"><defs><style>.cls-1{fill:#fff;}.cls-2{fill:#dd565a;}.cls-3{fill:#58b9e8;}.cls-4{fill:#fcea1e;}</style></defs><title>chat</title><path class="cls-1" d="M35.69,1.54A33.78,33.78,0,1,0,69.46,35.31,33.77,33.77,0,0,0,35.69,1.54ZM56.17,48.79a7,7,0,0,1-7,7H35.86a7,7,0,0,1-7-7V42.14H22.21a7,7,0,0,1-7-7V21.84a7,7,0,0,1,7-7h13.3a7,7,0,0,1,7,7v6.65h6.65a7,7,0,0,1,7,7Z"/><path class="cls-2" d="M35.86,28.49h6.65V21.84a7,7,0,0,0-7-7H22.21a7,7,0,0,0-7,7v13.3a7,7,0,0,0,7,7h6.65V35.49A7,7,0,0,1,35.86,28.49Z"/><path class="cls-3" d="M49.16,28.49H42.51v6.65a7,7,0,0,1-7,7H28.86v6.65a7,7,0,0,0,7,7h13.3a7,7,0,0,0,7-7V35.49A7,7,0,0,0,49.16,28.49Z"/><path class="cls-4" d="M42.51,35.14V28.49H35.86a7,7,0,0,0-7,7v6.65h6.65A7,7,0,0,0,42.51,35.14Z"/></svg>
