<?xml version="1.0" encoding="utf-8"?>
<!-- Generator: Adobe Illustrator 22.1.0, SVG Export Plug-In . SVG Version: 6.00 Build 0)  -->
<svg version="1.1" id="Calque_1" xmlns="http://www.w3.org/2000/svg" xmlns:xlink="http://www.w3.org/1999/xlink" x="0px" y="0px"
	 viewBox="0 0 71.4 71.4" style="enable-background:new 0 0 71.4 71.4;" xml:space="preserve">
<style type="text/css">
	.st0{fill:#33CCFF;}
	.st1{fill:url(#SVGID_1_);}
	.st2{fill:url(#SVGID_2_);}
	.st3{fill:#FFFFFF;}
	.st4{fill:url(#SVGID_3_);}
	.st5{fill:url(#SVGID_4_);}
	.st6{fill:url(#SVGID_5_);}
	.st7{fill:url(#SVGID_6_);}
	.st8{fill:url(#SVGID_7_);}
	.st9{fill:url(#SVGID_8_);}
	.st10{fill:url(#SVGID_9_);}
	.st11{fill:url(#SVGID_10_);}
	.st12{fill:#DD565A;}
	.st13{fill:#58B9E8;}
	.st14{fill:#FCEA1E;}
	.st15{fill:url(#SVGID_11_);}
	.st16{fill:url(#SVGID_12_);}
	.st17{fill:url(#SVGID_13_);}
	.st18{fill:url(#SVGID_14_);}
	.st19{fill:url(#SVGID_15_);}
	.st20{fill:url(#SVGID_16_);}
	.st21{fill:url(#SVGID_17_);}
	.st22{fill:url(#SVGID_18_);}
	.st23{fill:url(#SVGID_19_);}
	.st24{fill:url(#SVGID_20_);}
	.st25{fill:url(#SVGID_21_);}
	.st26{fill:url(#SVGID_22_);}
	.st27{fill:#E73C4C;}
	.st28{fill:#73B964;}
	.st29{fill:#40BAEC;}
	.st30{fill:url(#SVGID_23_);}
	.st31{fill:url(#SVGID_24_);}
	.st32{fill:url(#SVGID_25_);}
	.st33{fill:url(#SVGID_26_);}
	.st34{fill:url(#SVGID_27_);}
	.st35{fill:url(#SVGID_28_);}
	.st36{fill:url(#SVGID_29_);}
	.st37{fill:url(#SVGID_30_);}
	.st38{fill:url(#SVGID_31_);}
	.st39{fill:url(#SVGID_32_);}
	.st40{fill:url(#SVGID_33_);}
	.st41{fill:url(#SVGID_34_);}
	.st42{fill:url(#SVGID_35_);}
	.st43{fill:url(#SVGID_36_);}
	.st44{fill:url(#SVGID_37_);}
	.st45{fill:url(#SVGID_38_);}
	.st46{fill:url(#SVGID_39_);}
	.st47{fill:url(#SVGID_40_);}
	.st48{fill:url(#SVGID_41_);}
	.st49{fill:url(#SVGID_42_);}
	.st50{fill:url(#SVGID_43_);}
	.st51{fill:url(#SVGID_44_);}
	.st52{fill:url(#SVGID_45_);}
	.st53{fill:url(#SVGID_46_);}
	.st54{fill:url(#SVGID_47_);}
	.st55{fill:url(#SVGID_48_);}
	.st56{fill:url(#SVGID_49_);}
	.st57{fill:url(#SVGID_50_);}
	.st58{fill:url(#SVGID_51_);}
	.st59{fill:#CCCCCC;}
	.st60{fill:url(#SVGID_52_);}
	.st61{fill:url(#SVGID_53_);}
	.st62{fill:url(#SVGID_54_);}
	.st63{fill:url(#SVGID_55_);}
	.st64{fill:url(#SVGID_56_);}
	.st65{fill:url(#SVGID_57_);}
	.st66{fill:url(#SVGID_58_);}
	.st67{fill:url(#SVGID_59_);}
	.st68{fill:url(#SVGID_60_);}
	.st69{fill:none;stroke:url(#SVGID_61_);stroke-width:2;stroke-linecap:round;stroke-linejoin:round;stroke-miterlimit:10;}
	.st70{fill:none;stroke:url(#SVGID_62_);stroke-width:2;stroke-linecap:round;stroke-linejoin:round;stroke-miterlimit:10;}
	.st71{fill:none;stroke:url(#SVGID_63_);stroke-width:2;stroke-linecap:round;stroke-linejoin:round;stroke-miterlimit:10;}
	.st72{fill:none;stroke:url(#SVGID_64_);stroke-width:2;stroke-linecap:round;stroke-linejoin:round;stroke-miterlimit:10;}
	.st73{fill:none;stroke:url(#SVGID_65_);stroke-width:2;stroke-linecap:round;stroke-linejoin:round;stroke-miterlimit:10;}
	.st74{fill:none;stroke:url(#SVGID_66_);stroke-width:2;stroke-linecap:round;stroke-linejoin:round;stroke-miterlimit:10;}
	.st75{fill:url(#SVGID_67_);}
	.st76{fill:#383D6D;}
	.st77{fill:url(#SVGID_68_);}
	.st78{fill:url(#SVGID_69_);}
	.st79{fill:url(#SVGID_70_);}
	.st80{fill:url(#SVGID_71_);}
	.st81{fill:url(#SVGID_72_);}
	.st82{fill:url(#SVGID_73_);}
	.st83{fill:url(#SVGID_74_);}
	.st84{fill:url(#SVGID_75_);}
	.st85{fill:url(#SVGID_76_);}
	.st86{fill:url(#SVGID_77_);}
	.st87{fill:url(#SVGID_78_);}
	.st88{fill:url(#SVGID_79_);}
	.st89{fill:url(#SVGID_80_);}
	.st90{fill:url(#SVGID_81_);}
	.st91{fill:url(#SVGID_82_);}
	.st92{fill:url(#SVGID_83_);}
	.st93{fill:url(#SVGID_84_);}
	.st94{fill:url(#SVGID_85_);}
	.st95{fill:url(#SVGID_86_);}
	.st96{fill:url(#SVGID_87_);}
	.st97{fill:url(#SVGID_88_);}
	.st98{fill:url(#SVGID_89_);}
	.st99{fill:url(#SVGID_90_);}
	.st100{fill:url(#SVGID_91_);}
	.st101{fill:url(#SVGID_92_);}
	.st102{fill:url(#SVGID_93_);}
	.st103{fill:url(#SVGID_94_);}
	.st104{fill:url(#SVGID_95_);}
	.st105{fill:url(#SVGID_96_);}
	.st106{fill:url(#SVGID_97_);}
	.st107{fill:url(#SVGID_98_);}
	.st108{fill:url(#SVGID_99_);}
	.st109{fill:url(#SVGID_100_);}
	.st110{fill:url(#SVGID_101_);}
	.st111{fill:url(#SVGID_102_);}
	.st112{fill:url(#SVGID_103_);}
	.st113{fill:url(#SVGID_104_);}
</style>
<g>
	<path class="st3" d="M35.6,1.5C17,1.5,1.8,16.7,1.8,35.3C1.8,54,17,69.1,35.6,69.1S69.4,54,69.4,35.3C69.4,16.7,54.3,1.5,35.6,1.5z
		"/>
</g>
<g>
	<path class="st14" d="M38.4,23.7V15c0-1.4-1.2-2.6-2.6-2.6c-1.4,0-2.6,1.2-2.6,2.6v8.7c0.8-0.4,1.7-0.6,2.6-0.6
		S37.6,23.4,38.4,23.7z"/>
	<linearGradient id="SVGID_1_" gradientUnits="userSpaceOnUse" x1="-22.0926" y1="47.2588" x2="-12.6605" y2="47.2588">
		<stop  offset="7.431402e-04" style="stop-color:#39A7DF"/>
		<stop  offset="1" style="stop-color:#29265B"/>
	</linearGradient>
	<path class="st1" d="M33.1,35.3v21.4c0,1.4,1.2,2.6,2.6,2.6c1.4,0,2.6-1.2,2.6-2.6V35.3c-0.8,0.4-1.7,0.6-2.6,0.6
		S33.9,35.6,33.1,35.3z"/>
	<linearGradient id="SVGID_2_" gradientUnits="userSpaceOnUse" x1="-22.0926" y1="52.0188" x2="-12.6605" y2="52.0188">
		<stop  offset="7.431402e-04" style="stop-color:#39A7DF"/>
		<stop  offset="1" style="stop-color:#29265B"/>
	</linearGradient>
	<path class="st2" d="M46.8,44.8v11.9c0,1.4,1.2,2.6,2.6,2.6s2.6-1.2,2.6-2.6V44.8c-0.8,0.4-1.7,0.6-2.6,0.6S47.6,45.1,46.8,44.8z"
		/>
	<path class="st14" d="M52,33.2V15c0-1.4-1.2-2.6-2.6-2.6s-2.6,1.2-2.6,2.6v18.2c0.8-0.4,1.7-0.6,2.6-0.6S51.2,32.9,52,33.2z"/>
	<linearGradient id="SVGID_3_" gradientUnits="userSpaceOnUse" x1="-22.0926" y1="55.0078" x2="-12.6605" y2="55.0078">
		<stop  offset="7.431402e-04" style="stop-color:#39A7DF"/>
		<stop  offset="1" style="stop-color:#29265B"/>
	</linearGradient>
	<path class="st4" d="M19.5,50.7v5.9c0,1.4,1.2,2.6,2.6,2.6c1.4,0,2.6-1.2,2.6-2.6v-5.9c-0.8,0.4-1.7,0.6-2.6,0.6
		S20.3,51.1,19.5,50.7z"/>
	<path class="st14" d="M24.7,39.2V15c0-1.4-1.2-2.6-2.6-2.6c-1.4,0-2.6,1.2-2.6,2.6v24.2c0.8-0.4,1.7-0.6,2.6-0.6
		S23.9,38.9,24.7,39.2z"/>
	<path class="st13" d="M55.7,39c0-2.6-1.5-4.8-3.7-5.8c-0.8-0.4-1.7-0.6-2.6-0.6s-1.8,0.2-2.6,0.6c-2.2,1-3.7,3.2-3.7,5.8
		s1.5,4.8,3.7,5.8c0.8,0.4,1.7,0.6,2.6,0.6s1.8-0.2,2.6-0.6C54.2,43.8,55.7,41.6,55.7,39z"/>
	<path class="st12" d="M38.4,23.7c-0.8-0.4-1.7-0.6-2.6-0.6s-1.8,0.2-2.6,0.6c-2.2,1-3.7,3.2-3.7,5.8s1.5,4.8,3.7,5.8
		c0.8,0.4,1.7,0.6,2.6,0.6s1.8-0.2,2.6-0.6c2.2-1,3.7-3.2,3.7-5.8S40.6,24.7,38.4,23.7z"/>
	<path class="st13" d="M24.7,39.2c-0.8-0.4-1.7-0.6-2.6-0.6s-1.8,0.2-2.6,0.6c-2.2,1-3.7,3.2-3.7,5.8c0,2.6,1.5,4.8,3.7,5.8
		c0.8,0.4,1.7,0.6,2.6,0.6s1.8-0.2,2.6-0.6c2.2-1,3.7-3.2,3.7-5.8C28.5,42.4,26.9,40.2,24.7,39.2z"/>
</g>
</svg>
