<svg id="Calque_1" data-name="Calque 1" xmlns="http://www.w3.org/2000/svg" xmlns:xlink="http://www.w3.org/1999/xlink" viewBox="0 0 71.37 71.37"><defs><style>.cls-1{fill:#fff;}.cls-2{fill:url(#Dégradé_sans_nom_9);}.cls-3{fill:url(#Dégradé_sans_nom_9-2);}.cls-4{fill:#58b9e8;}.cls-5{fill:#fcea1e;}</style><linearGradient id="Dégradé_sans_nom_9" x1="-12.38" y1="5.82" x2="-5.07" y2="13.13" gradientUnits="userSpaceOnUse"><stop offset="0" stop-color="#39a7df"/><stop offset="1" stop-color="#29265b"/></linearGradient><linearGradient id="Dégradé_sans_nom_9-2" x1="28.89" y1="-64.72" x2="36.2" y2="-57.41" gradientTransform="matrix(1, 0, 0.14, 1, -77.62, 0)" xlink:href="#Dégradé_sans_nom_9"/></defs><title>chat</title><path class="cls-1" d="M35.26,1.74A33.78,33.78,0,1,0,69,35.52,33.78,33.78,0,0,0,35.26,1.74ZM14.72,22.5h5.61L16.38,50.61a1.55,1.55,0,0,1,0-.21L12.79,24.75A1.91,1.91,0,0,1,14.72,22.5Zm43,5.5L54.5,51a1.94,1.94,0,0,1-1.86,1.63H17.73A1.39,1.39,0,0,1,16.32,51l4.36-31a1.94,1.94,0,0,1,1.86-1.64H35.05a1.37,1.37,0,0,1,1.39,1.12l.58,3H48.4A2.69,2.69,0,0,1,51,24.75l.22,1.62h5.14A1.38,1.38,0,0,1,57.73,28Z"/><path class="cls-1" d="M16.38,50.61,20.33,22.5H14.72a1.91,1.91,0,0,0-1.93,2.25L16.34,50.4A1.55,1.55,0,0,0,16.38,50.61Z"/><path class="cls-2" d="M16.38,50.61,20.33,22.5H14.72a1.91,1.91,0,0,0-1.93,2.25L16.34,50.4A1.55,1.55,0,0,0,16.38,50.61Z"/><path class="cls-1" d="M38.94,26.37H51.19L51,24.75A2.69,2.69,0,0,0,48.4,22.5H37l.53,2.75A1.37,1.37,0,0,0,38.94,26.37Z"/><path class="cls-3" d="M38.94,26.37H51.19L51,24.75A2.69,2.69,0,0,0,48.4,22.5H37l.53,2.75A1.37,1.37,0,0,0,38.94,26.37Z"/><path class="cls-4" d="M56.33,26.37H38.94a1.37,1.37,0,0,1-1.39-1.12L37,22.5l-.58-3a1.37,1.37,0,0,0-1.39-1.12H22.54A1.94,1.94,0,0,0,20.68,20L16.32,51a1.39,1.39,0,0,0,1.41,1.63H52.64A1.94,1.94,0,0,0,54.5,51l3.23-23A1.38,1.38,0,0,0,56.33,26.37Zm-14,14.15-5.24,5.24a.72.72,0,0,1-1,0l-5.24-5.24a.73.73,0,0,1,.52-1.25H34.4a.73.73,0,0,0,.74-.73V33.07a.73.73,0,0,1,.73-.73h1.4a.73.73,0,0,1,.73.73v5.47a.73.73,0,0,0,.73.73h3.08A.73.73,0,0,1,42.32,40.52Z"/><path class="cls-5" d="M41.81,39.27H38.73a.73.73,0,0,1-.73-.73V33.07a.73.73,0,0,0-.73-.73h-1.4a.73.73,0,0,0-.73.73v5.47a.73.73,0,0,1-.74.73H31.33a.73.73,0,0,0-.52,1.25l5.24,5.24a.72.72,0,0,0,1,0l5.24-5.24A.73.73,0,0,0,41.81,39.27Z"/></svg>