<svg id="Calque_1" data-name="Calque 1" xmlns="http://www.w3.org/2000/svg" xmlns:xlink="http://www.w3.org/1999/xlink" viewBox="0 0 71.37 71.37"><defs><style>.cls-1{fill:#fff;}.cls-2{fill:url(#Dégradé_sans_nom_9);}.cls-3{fill:url(#Dégradé_sans_nom_9-3);}.cls-4{fill:#58b9e8;}.cls-5{fill:#dd565a;}</style><linearGradient id="Dégradé_sans_nom_9" x1="5.54" y1="-14.61" x2="9.1" y2="-11.06" gradientUnits="userSpaceOnUse"><stop offset="0" stop-color="#39a7df"/><stop offset="1" stop-color="#29265b"/></linearGradient><linearGradient id="Dégradé_sans_nom_9-3" x1="-15.04" y1="5.96" x2="-11.48" y2="9.52" xlink:href="#Dégradé_sans_nom_9"/></defs><title>chat</title><path class="cls-1" d="M35,1.2A33.78,33.78,0,1,0,68.81,35,33.78,33.78,0,0,0,35,1.2ZM57.62,37.34H52.74A17.86,17.86,0,0,1,36.49,52.79v4.78a1.91,1.91,0,0,1-3.82,0V52.69A17.88,17.88,0,0,1,17.31,37.34H12.43a1.91,1.91,0,1,1,0-3.82h4.78A17.88,17.88,0,0,1,32.67,17.26V12.38a1.91,1.91,0,0,1,3.82,0v4.78A17.87,17.87,0,0,1,52.84,33.52h4.78a1.91,1.91,0,1,1,0,3.82Z"/><path class="cls-1" d="M57.62,33.52H52.84c0,.48.08,1,.08,1.46a16.81,16.81,0,0,1-.18,2.36h4.88a1.91,1.91,0,1,0,0-3.82Z"/><path class="cls-2" d="M57.62,33.52H52.84c0,.48.08,1,.08,1.46a16.81,16.81,0,0,1-.18,2.36h4.88a1.91,1.91,0,1,0,0-3.82Z"/><path class="cls-2" d="M57.62,33.52H52.84c0,.48.08,1,.08,1.46a16.81,16.81,0,0,1-.18,2.36h4.88a1.91,1.91,0,1,0,0-3.82Z"/><path class="cls-1" d="M17.21,33.52H12.43a1.91,1.91,0,1,0,0,3.82h4.88A18.46,18.46,0,0,1,17.14,35C17.14,34.48,17.17,34,17.21,33.52Z"/><path class="cls-3" d="M17.21,33.52H12.43a1.91,1.91,0,1,0,0,3.82h4.88A18.46,18.46,0,0,1,17.14,35C17.14,34.48,17.17,34,17.21,33.52Z"/><path class="cls-3" d="M17.21,33.52H12.43a1.91,1.91,0,1,0,0,3.82h4.88A18.46,18.46,0,0,1,17.14,35C17.14,34.48,17.17,34,17.21,33.52Z"/><path class="cls-1" d="M32.67,52.69v4.88a1.91,1.91,0,0,0,3.82,0V52.79c-.49,0-1,.08-1.46.08A18.33,18.33,0,0,1,32.67,52.69Z"/><path class="cls-3" d="M32.67,52.69v4.88a1.91,1.91,0,0,0,3.82,0V52.79c-.49,0-1,.08-1.46.08A18.33,18.33,0,0,1,32.67,52.69Z"/><path class="cls-1" d="M36.49,17.16V12.38a1.91,1.91,0,0,0-3.82,0v4.88A18.33,18.33,0,0,1,35,17.09C35.52,17.09,36,17.12,36.49,17.16Z"/><path class="cls-2" d="M36.49,17.16V12.38a1.91,1.91,0,0,0-3.82,0v4.88A18.33,18.33,0,0,1,35,17.09C35.52,17.09,36,17.12,36.49,17.16Z"/><path class="cls-4" d="M52.84,33.52A17.87,17.87,0,0,0,36.49,17.16c-.49,0-1-.07-1.46-.07a18.33,18.33,0,0,0-2.36.17A17.88,17.88,0,0,0,17.21,33.52c0,.48-.07,1-.07,1.46a18.46,18.46,0,0,0,.17,2.36A17.88,17.88,0,0,0,32.67,52.69a18.33,18.33,0,0,0,2.36.18c.49,0,1,0,1.46-.08A17.86,17.86,0,0,0,52.74,37.34,16.81,16.81,0,0,0,52.92,35C52.92,34.48,52.88,34,52.84,33.52ZM35,48.66A13.69,13.69,0,1,1,48.71,35,13.69,13.69,0,0,1,35,48.66Z"/><path class="cls-1" d="M35,21.29A13.69,13.69,0,1,0,48.71,35,13.69,13.69,0,0,0,35,21.29Zm0,22.27A8.59,8.59,0,1,1,43.61,35,8.59,8.59,0,0,1,35,43.56Z"/><circle class="cls-5" cx="35.03" cy="34.98" r="8.58"/></svg>