<svg id="Calque_1" data-name="Calque 1" xmlns="http://www.w3.org/2000/svg" viewBox="0 0 71.37 71.37"><defs><style>.cls-1{fill:#fff;}.cls-2{fill:#dd565a;}.cls-3{fill:#fcea1e;}</style></defs><title>chat</title><path class="cls-1" d="M35.87,1.68A33.78,33.78,0,1,0,69.65,35.46,33.77,33.77,0,0,0,35.87,1.68ZM59.21,41a2.48,2.48,0,1,1,0,4.95H48.14a20.49,20.49,0,1,1,0-20.89H59.21a2.48,2.48,0,1,1,0,4.95h-9a20.17,20.17,0,0,1,.6,3h8.35a2.48,2.48,0,1,1,0,5H50.86a20.17,20.17,0,0,1-.6,3Z"/><path class="cls-2" d="M38.32,37.93a2.48,2.48,0,1,1,0-5H50.86a20.17,20.17,0,0,0-.6-3H38.32a2.48,2.48,0,1,1,0-4.95h9.82a20.49,20.49,0,1,0,0,20.89H38.32a2.48,2.48,0,1,1,0-4.95H50.26a20.17,20.17,0,0,0,.6-3Zm-7.91,8a2.48,2.48,0,1,1,2.47-2.47A2.48,2.48,0,0,1,30.41,45.9Zm0-8a2.48,2.48,0,1,1,2.47-2.47A2.48,2.48,0,0,1,30.41,37.93Zm0-8a2.48,2.48,0,1,1,2.47-2.48A2.48,2.48,0,0,1,30.41,30Z"/><path class="cls-3" d="M30.41,25a2.48,2.48,0,1,0,2.47,2.47A2.48,2.48,0,0,0,30.41,25Z"/><path class="cls-3" d="M30.41,33a2.48,2.48,0,1,0,2.47,2.48A2.48,2.48,0,0,0,30.41,33Z"/><path class="cls-3" d="M30.41,41a2.48,2.48,0,1,0,2.47,2.48A2.48,2.48,0,0,0,30.41,41Z"/><path class="cls-3" d="M35.84,27.48A2.48,2.48,0,0,0,38.32,30H59.21a2.48,2.48,0,1,0,0-4.95H38.32A2.48,2.48,0,0,0,35.84,27.48Z"/><path class="cls-3" d="M35.84,35.46a2.48,2.48,0,0,0,2.48,2.47H59.21a2.48,2.48,0,1,0,0-5H38.32A2.48,2.48,0,0,0,35.84,35.46Z"/><path class="cls-3" d="M35.84,43.43a2.48,2.48,0,0,0,2.48,2.47H59.21a2.48,2.48,0,1,0,0-4.95H38.32A2.48,2.48,0,0,0,35.84,43.43Z"/></svg>