<svg id="Calque_1" data-name="Calque 1" xmlns="http://www.w3.org/2000/svg" xmlns:xlink="http://www.w3.org/1999/xlink" viewBox="0 0 71.37 71.37"><defs><style>.cls-1{fill:#fff;}.cls-2{fill:url(#Dégradé_sans_nom_9);}.cls-3{fill:#383d6d;}.cls-4{fill:#fcea1e;}.cls-5{fill:#58b9e8;}</style><linearGradient id="Dégradé_sans_nom_9" x1="4.06" y1="6.92" x2="11.97" y2="14.84" gradientUnits="userSpaceOnUse"><stop offset="0" stop-color="#39a7df"/><stop offset="1" stop-color="#29265b"/></linearGradient></defs><title>chat</title><path class="cls-1" d="M20.07,43.29h0c-.4.11-.77.23-1.15.35.38-.12.75-.24,1.15-.35Z"/><path class="cls-1" d="M35.69,1.79A33.78,33.78,0,1,0,69.46,35.56,33.77,33.77,0,0,0,35.69,1.79ZM55.4,35.08A11.87,11.87,0,0,0,40.85,49.46c.64,2.5,3.11,6.07,4.69,9.16A2.34,2.34,0,0,1,44,62h0a30.2,30.2,0,0,1-13.12.21L30.21,62a29.21,29.21,0,0,1-3.12-.84A30.47,30.47,0,0,1,15.41,54L14,52.56l-.13-.14h0l0,0a4.67,4.67,0,0,1,1.33-7.19,22.77,22.77,0,0,1,3.21-1.37L22.52,32c1.4-4,2.9-8.33,6.12-11.25a14.43,14.43,0,0,1,11-3.86A9.34,9.34,0,0,1,45.09,19a13.86,13.86,0,0,1,4.15,7.82,1.74,1.74,0,0,1,1.51,2l-.16,0c2.1.46,5,1.65,6.18,4.69A1.16,1.16,0,0,1,55.4,35.08Z"/><path class="cls-1" d="M36.71,23.19a4.09,4.09,0,1,0,4.09,4.09A4.09,4.09,0,0,0,36.71,23.19Zm0,5.48a1.4,1.4,0,0,1,0-2.79,1.4,1.4,0,1,1,0,2.79Z"/><path class="cls-1" d="M50.59,28.85l-.5-.09a5.7,5.7,0,0,0-2.7.12c-1.33.51-2-1.69.33-2a4.5,4.5,0,0,1,1.52,0A13.86,13.86,0,0,0,45.09,19a9.34,9.34,0,0,0-5.41-2.2,14.43,14.43,0,0,0-11,3.86C25.42,23.62,23.92,28,22.52,32L18.4,43.82c.17-.06.34-.13.52-.18.38-.12.75-.24,1.15-.35h0l1-.2.15,0c.45-.08.9-.14,1.34-.19l.13,0c.47,0,.93-.08,1.38-.1h0c.45,0,.9,0,1.33,0h.14a11.57,11.57,0,0,1,1.2.15L27,43a6.37,6.37,0,0,1,1.08.3l.18.06a6.21,6.21,0,0,1,1,.47l.14.09a6.11,6.11,0,0,1,.85.67l.08.09a5.26,5.26,0,0,1,.71.94c1.74,3,1.05,8.84-.16,14.06-.06.23-.11.44-.16.66-.15.59-.29,1.17-.44,1.73l.63.13A30.2,30.2,0,0,0,44,62h0a2.34,2.34,0,0,0,1.55-3.33c-1.58-3.09-4-6.66-4.69-9.16A11.87,11.87,0,0,1,55.4,35.08a1.16,1.16,0,0,0,1.37-1.54C55.64,30.5,52.69,29.31,50.59,28.85ZM36.71,31.37a4.09,4.09,0,1,1,4.09-4.09A4.09,4.09,0,0,1,36.71,31.37Z"/><path class="cls-2" d="M50.59,28.85l-.5-.09a5.7,5.7,0,0,0-2.7.12c-1.33.51-2-1.69.33-2a4.5,4.5,0,0,1,1.52,0A13.86,13.86,0,0,0,45.09,19a9.34,9.34,0,0,0-5.41-2.2,14.43,14.43,0,0,0-11,3.86C25.42,23.62,23.92,28,22.52,32L18.4,43.82c.17-.06.34-.13.52-.18.38-.12.75-.24,1.15-.35h0l1-.2.15,0c.45-.08.9-.14,1.34-.19l.13,0c.47,0,.93-.08,1.38-.1h0c.45,0,.9,0,1.33,0h.14a11.57,11.57,0,0,1,1.2.15L27,43a6.37,6.37,0,0,1,1.08.3l.18.06a6.21,6.21,0,0,1,1,.47l.14.09a6.11,6.11,0,0,1,.85.67l.08.09a5.26,5.26,0,0,1,.71.94c1.74,3,1.05,8.84-.16,14.06-.06.23-.11.44-.16.66-.15.59-.29,1.17-.44,1.73l.63.13A30.2,30.2,0,0,0,44,62h0a2.34,2.34,0,0,0,1.55-3.33c-1.58-3.09-4-6.66-4.69-9.16A11.87,11.87,0,0,1,55.4,35.08a1.16,1.16,0,0,0,1.37-1.54C55.64,30.5,52.69,29.31,50.59,28.85ZM36.71,31.37a4.09,4.09,0,1,1,4.09-4.09A4.09,4.09,0,0,1,36.71,31.37Z"/><path class="cls-3" d="M36.71,25.88a1.4,1.4,0,1,0,1.4,1.4A1.4,1.4,0,0,0,36.71,25.88Z"/><path class="cls-4" d="M47.72,26.85c-2.31.34-1.66,2.54-.33,2a5.7,5.7,0,0,1,2.7-.12l.5.09.16,0a1.74,1.74,0,0,0-1.51-2A4.5,4.5,0,0,0,47.72,26.85Z"/><path class="cls-5" d="M30.81,59.65c1.21-5.22,1.9-11.08.16-14.06a5.26,5.26,0,0,0-.71-.94l-.08-.09a6.11,6.11,0,0,0-.85-.67l-.14-.09a6.21,6.21,0,0,0-1-.47L28,43.27A6.37,6.37,0,0,0,27,43l-.18,0a11.57,11.57,0,0,0-1.2-.15h-.14c-.43,0-.88,0-1.33,0h0c-.45,0-.91.05-1.38.1l-.13,0c-.44,0-.89.11-1.34.19l-.15,0-1,.2h0c-.4.11-.77.23-1.15.35-.18,0-.35.12-.52.18a22.77,22.77,0,0,0-3.21,1.37,4.67,4.67,0,0,0-1.33,7.19l0,0h0l.13.14L15.41,54A30.47,30.47,0,0,0,27.09,61.2a29.21,29.21,0,0,0,3.12.84c.15-.56.29-1.14.44-1.73C30.7,60.09,30.75,59.88,30.81,59.65Z"/></svg>