<svg id="Calque_1" data-name="Calque 1" xmlns="http://www.w3.org/2000/svg" viewBox="0 0 71.37 71.37"><defs><style>.cls-1{fill:#fff;}.cls-2{fill:#58b9e8;}.cls-3{fill:#dd565a;}</style></defs><title>chat</title><path class="cls-1" d="M36.08,1.55A33.78,33.78,0,1,0,69.86,35.32,33.78,33.78,0,0,0,36.08,1.55ZM46.39,48.39h0A10.31,10.31,0,0,1,36.08,58.71h0A10.31,10.31,0,0,1,25.78,48.4h0a13.31,13.31,0,0,1-9-22.7l9.86-9.85a13.29,13.29,0,0,1,18.81,0l9.85,9.85A13.3,13.3,0,0,1,46.39,48.39Z"/><path class="cls-2" d="M45.49,15.84a13.29,13.29,0,0,0-18.81,0l-9.86,9.85a13.31,13.31,0,0,0,9,22.7A10.3,10.3,0,0,1,36.08,38.1h0A10.3,10.3,0,0,1,46.39,48.39a13.3,13.3,0,0,0,9-22.7Z"/><path class="cls-3" d="M36.08,38.1h0a10.3,10.3,0,0,0-10.3,10.29h0a10.31,10.31,0,0,0,10.3,10.31h0A10.31,10.31,0,0,0,46.39,48.4h0A10.3,10.3,0,0,0,36.08,38.1Z"/></svg>