<svg id="Calque_1" data-name="Calque 1" xmlns="http://www.w3.org/2000/svg" viewBox="0 0 71.37 71.37"><defs><style>.cls-1{fill:#fff;}.cls-2{fill:#73b964;}.cls-3{fill:#fcea1e;}</style></defs><title>chat</title><path class="cls-1" d="M39.81,48.43l-.28.27a1.36,1.36,0,0,1-1,.4,1.35,1.35,0,0,1-1-.4l-.28-.27H32.67a8.51,8.51,0,0,0,14.38,0Z"/><rect class="cls-1" x="17.04" y="33.91" width="5.09" height="5.09" rx="0.95" ry="0.95"/><path class="cls-1" d="M35.69,1.89A33.78,33.78,0,1,0,69.46,35.67,33.78,33.78,0,0,0,35.69,1.89ZM58,43.34a5.09,5.09,0,0,1-5.09,5.09H50.16a11.27,11.27,0,0,1-20.61,0H18.44a5.09,5.09,0,0,1-5.09-5.09V29.77H58Zm0-17.62H13.35V24.61a5.09,5.09,0,0,1,5.09-5.09h34.5A5.09,5.09,0,0,1,58,24.61Z"/><path class="cls-2" d="M52.94,19.52H18.44a5.09,5.09,0,0,0-5.09,5.09v1.11H58V24.61A5.09,5.09,0,0,0,52.94,19.52Z"/><path class="cls-2" d="M33.68,44.79a1.38,1.38,0,1,1,1.94-1.95l2.94,2.94,5.53-5.53A1.38,1.38,0,0,1,46,42.19l-6.23,6.24h7.24a8.52,8.52,0,1,0-15.71-4.56,8.46,8.46,0,0,0,1.33,4.56h4.64Z"/><path class="cls-2" d="M13.35,43.34a5.09,5.09,0,0,0,5.09,5.09H29.55a11.27,11.27,0,1,1,21.58-4.56,11.23,11.23,0,0,1-1,4.56h2.78A5.09,5.09,0,0,0,58,43.34V29.77H13.35ZM17,34.86a.94.94,0,0,1,.94-1h3.2a.94.94,0,0,1,.95,1v3.19a.94.94,0,0,1-.95,1H18a.94.94,0,0,1-.94-1Z"/><path class="cls-3" d="M46,40.25a1.38,1.38,0,0,0-1.95,0l-5.53,5.53-2.94-2.94a1.38,1.38,0,1,0-1.94,1.95l3.63,3.64.28.27a1.35,1.35,0,0,0,1,.4,1.36,1.36,0,0,0,1-.4l.28-.27L46,42.19A1.36,1.36,0,0,0,46,40.25Z"/><path class="cls-3" d="M39.86,32.6A11.26,11.26,0,1,0,51.13,43.87,11.29,11.29,0,0,0,39.86,32.6Zm0,19.79a8.54,8.54,0,1,1,7.19-4A8.53,8.53,0,0,1,39.86,52.39Z"/></svg>