<svg id="Calque_1" data-name="Calque 1" xmlns="http://www.w3.org/2000/svg" viewBox="0 0 71.37 71.37"><defs><style>.cls-1{fill:#fff;}.cls-2{fill:#73b964;}.cls-3{fill:#fcea1e;}</style></defs><title>chat</title><path class="cls-1" d="M35.26,1.32A33.78,33.78,0,1,0,69,35.1,33.78,33.78,0,0,0,35.26,1.32ZM55.74,35.1v10A10.51,10.51,0,0,1,45.23,55.58H25.28a10.51,10.51,0,0,1-10.5-10.51V25.12a10.51,10.51,0,0,1,10.5-10.51H45.23A10.51,10.51,0,0,1,55.74,25.12Z"/><path class="cls-2" d="M45.23,14.61H25.28a10.51,10.51,0,0,0-10.5,10.51v20a10.51,10.51,0,0,0,10.5,10.51H45.23A10.51,10.51,0,0,0,55.74,45.07V25.12A10.51,10.51,0,0,0,45.23,14.61ZM24.74,39a3.95,3.95,0,1,1,4-3.94A3.93,3.93,0,0,1,24.74,39ZM35.26,49.56a3.95,3.95,0,1,1,4-4A4,4,0,0,1,35.26,49.56Zm0-10.52a3.95,3.95,0,1,1,4-3.94A3.94,3.94,0,0,1,35.26,39Zm0-10.51a4,4,0,1,1,4-4A4,4,0,0,1,35.26,28.53ZM45.78,39a3.95,3.95,0,1,1,3.94-3.94A3.94,3.94,0,0,1,45.78,39Z"/><path class="cls-1" d="M24.74,31.15a3.95,3.95,0,1,0,4,4A3.94,3.94,0,0,0,24.74,31.15Z"/><path class="cls-3" d="M35.26,31.15a3.95,3.95,0,1,0,4,4A4,4,0,0,0,35.26,31.15Z"/><path class="cls-1" d="M45.78,31.15a3.95,3.95,0,1,0,3.94,4A4,4,0,0,0,45.78,31.15Z"/><path class="cls-1" d="M35.26,20.63a3.95,3.95,0,1,0,4,3.95A4,4,0,0,0,35.26,20.63Z"/><path class="cls-1" d="M35.26,41.67a3.95,3.95,0,1,0,4,3.94A3.94,3.94,0,0,0,35.26,41.67Z"/></svg>