<svg id="Calque_1" data-name="Calque 1" xmlns="http://www.w3.org/2000/svg" viewBox="0 0 71.37 71.37"><defs><style>.cls-1{fill:#fff;}.cls-2{fill:#73b964;}.cls-3{fill:#fcea1e;}</style></defs><title>chat</title><path class="cls-1" d="M35.58,1.74A33.78,33.78,0,1,0,69.36,35.52,33.77,33.77,0,0,0,35.58,1.74ZM54.22,46.81l-.07.07-.17.17L42.91,58.12a.9.9,0,0,1-1.54-.63V54.13a2,2,0,0,0-1.79-2,18.44,18.44,0,0,1-3.08-.6A18.35,18.35,0,1,1,30.19,16a18.1,18.1,0,0,1,6.14,1.08,17.1,17.1,0,0,1,4.19-.72,18,18,0,0,1,13.7,30.48Z"/><path class="cls-2" d="M40.52,16.33a17.1,17.1,0,0,0-4.19.72,18.33,18.33,0,0,1,.17,34.49,18.44,18.44,0,0,0,3.08.6,2,2,0,0,1,1.79,2v3.36a.9.9,0,0,0,1.54.63L54,47.05l.17-.17.07-.07h0a18,18,0,0,0-13.7-30.48Z"/><path class="cls-3" d="M23.4,34.33a25,25,0,0,1,.21-3H18.52a11.56,11.56,0,0,0,0,6h5.09A24.94,24.94,0,0,1,23.4,34.33Z"/><path class="cls-3" d="M26.29,22.92a12.07,12.07,0,0,0-6.54,5.37H24.2A23.76,23.76,0,0,1,26.29,22.92Z"/><path class="cls-3" d="M19.75,40.36a12.07,12.07,0,0,0,6.54,5.37,23.58,23.58,0,0,1-2.09-5.37Z"/><path class="cls-3" d="M34.1,45.73a12.09,12.09,0,0,0,6.53-5.37H36.18A23.55,23.55,0,0,1,34.1,45.73Z"/><path class="cls-3" d="M26.66,31.31a22.93,22.93,0,0,0-.24,3,23.05,23.05,0,0,0,.24,3h7.06a21.44,21.44,0,0,0,.24-3,21.34,21.34,0,0,0-.24-3Z"/><path class="cls-3" d="M41.87,31.31h-5.1a25,25,0,0,1,.21,3,24.94,24.94,0,0,1-.21,3h5.1a11.85,11.85,0,0,0,0-6Z"/><path class="cls-3" d="M48.54,34.33A18.35,18.35,0,0,0,36.33,17.05,18.1,18.1,0,0,0,30.19,16,18.34,18.34,0,1,0,48.54,34.33ZM30.18,49.41a15.09,15.09,0,1,1,15.1-15.08A15.08,15.08,0,0,1,30.18,49.41Z"/><path class="cls-3" d="M30.19,46.33a21.28,21.28,0,0,0,2.88-6H27.31A21.28,21.28,0,0,0,30.19,46.33Z"/><path class="cls-3" d="M33.07,28.29a21.28,21.28,0,0,0-2.88-6,21.28,21.28,0,0,0-2.88,6Z"/><path class="cls-3" d="M40.63,28.29a12.09,12.09,0,0,0-6.53-5.37,23.73,23.73,0,0,1,2.08,5.37Z"/><path class="cls-2" d="M30.18,19.24a15.09,15.09,0,1,0,15.1,15.09A15.08,15.08,0,0,0,30.18,19.24Zm10.45,9.05H36.18a23.73,23.73,0,0,0-2.08-5.37A12.09,12.09,0,0,1,40.63,28.29Zm-7.56,0H27.31a21.28,21.28,0,0,1,2.88-6A21.28,21.28,0,0,1,33.07,28.29Zm-6.78-5.37a23.76,23.76,0,0,0-2.09,5.37H19.75A12.07,12.07,0,0,1,26.29,22.92ZM18.52,37.34a11.56,11.56,0,0,1,0-6h5.09a25,25,0,0,0-.21,3,24.94,24.94,0,0,0,.21,3Zm1.23,3H24.2a23.58,23.58,0,0,0,2.09,5.37A12.07,12.07,0,0,1,19.75,40.36Zm10.44,6a21.28,21.28,0,0,1-2.88-6h5.76A21.28,21.28,0,0,1,30.19,46.33Zm3.53-9H26.66a23.05,23.05,0,0,1-.24-3,22.93,22.93,0,0,1,.24-3h7.06a21.34,21.34,0,0,1,.24,3A21.44,21.44,0,0,1,33.72,37.34Zm.38,8.39a23.55,23.55,0,0,0,2.08-5.37h4.45A12.09,12.09,0,0,1,34.1,45.73Zm2.67-8.39a24.94,24.94,0,0,0,.21-3,25,25,0,0,0-.21-3h5.1a11.85,11.85,0,0,1,0,6Z"/></svg>