<?xml version="1.0" encoding="utf-8"?>
<!-- Generator: Adobe Illustrator 19.2.1, SVG Export Plug-In . SVG Version: 6.00 Build 0)  -->
<svg version="1.1" id="layer" xmlns="http://www.w3.org/2000/svg" xmlns:xlink="http://www.w3.org/1999/xlink" x="0px" y="0px"
	 viewBox="0 0 652 652" style="enable-background:new 0 0 652 652;" xml:space="preserve">
<style type="text/css">
	.st0{fill:#F7F7F7;}
	.st1{clip-path:url(#SVGID_2_);fill:url(#SVGID_3_);}
	.st2{filter:url(#Adobe_OpacityMaskFilter);}
	.st3{enable-background:new    ;}
	.st4{fill:url(#SVGID_5_);}
	.st5{mask:url(#SVGID_4_);}
	.st6{clip-path:url(#SVGID_7_);fill:url(#SVGID_8_);}
	.st7{clip-path:url(#SVGID_10_);fill:url(#SVGID_11_);}
	.st8{clip-path:url(#SVGID_13_);fill:url(#SVGID_14_);}
	.st9{clip-path:url(#SVGID_16_);fill:url(#SVGID_17_);}
	.st10{clip-path:url(#SVGID_19_);fill:url(#SVGID_20_);}
	.st11{clip-path:url(#SVGID_22_);fill:url(#SVGID_23_);}
	.st12{filter:url(#Adobe_OpacityMaskFilter_1_);}
	.st13{clip-path:url(#SVGID_25_);}
	.st14{clip-path:url(#SVGID_28_);fill:url(#SVGID_29_);}
	.st15{clip-path:url(#SVGID_25_);mask:url(#SVGID_26_);}
	.st16{clip-path:url(#SVGID_31_);}
	.st17{clip-path:url(#SVGID_33_);fill:url(#SVGID_34_);}
	.st18{clip-path:url(#SVGID_36_);fill:url(#SVGID_37_);}
	.st19{clip-path:url(#SVGID_39_);fill:url(#SVGID_40_);}
	.st20{clip-path:url(#SVGID_42_);fill:url(#SVGID_43_);}
	.st21{clip-path:url(#SVGID_45_);fill:url(#SVGID_46_);}
	.st22{clip-path:url(#SVGID_48_);fill:url(#SVGID_49_);}
	.st23{clip-path:url(#SVGID_51_);fill:url(#SVGID_52_);}
	.st24{clip-path:url(#SVGID_54_);fill:url(#SVGID_55_);}
	.st25{fill:#FFFFFF;}
	.st26{filter:url(#Adobe_OpacityMaskFilter_2_);}
	.st27{clip-path:url(#SVGID_57_);}
	.st28{clip-path:url(#SVGID_60_);fill:url(#SVGID_61_);}
	.st29{clip-path:url(#SVGID_57_);mask:url(#SVGID_58_);}
	.st30{clip-path:url(#SVGID_63_);}
	.st31{filter:url(#Adobe_OpacityMaskFilter_3_);}
	.st32{clip-path:url(#SVGID_65_);}
	.st33{clip-path:url(#SVGID_65_);fill:url(#SVGID_66_);}
	.st34{clip-path:url(#SVGID_68_);}
	.st35{clip-path:url(#SVGID_70_);fill:url(#SVGID_71_);}
</style>
<polygon points="530.9,301.2 530.9,308.7 515.4,308.7 515.4,341.5 504.9,341.5 504.9,308.7 489.4,308.7 489.4,301.2 "/>
<polygon points="493.9,334 493.9,341.5 460.6,341.5 460.6,301.2 471,301.2 471,334 "/>
<polygon points="292.3,334 292.3,341.5 257.3,341.5 257.3,301.2 291.6,301.2 291.6,308.7 267.8,308.7 267.8,317.5 289.6,317.5
	289.6,324.8 267.8,324.8 267.8,334 "/>
<g>
	<path d="M238.6,326.5c4.5-2.4,7.3-7.2,7.3-12.2c0-4.2-1.2-7.4-3.8-9.6c-3-2.5-7.1-3.5-13.9-3.5h-24l-0.4,2.4c0,0,0.4,0.7,0.9,1.6
		c0.7,1.3,0.7,1.7,0.7,2.5v33.7h10.5v-12.9h13l7,12.9h11.5L238.6,326.5z M233.3,320c-0.8,0.8-1.8,1.2-3.2,1.2h-14.3v-12.3H227
		c3.4,0,5.2,0.4,6.4,1.4c1.2,0.9,1.8,2.4,1.8,4.5C235.1,317,234.5,318.8,233.3,320"/>
	<path d="M336.1,301.2v26.7c-2.4-3.1-5-6-9.3-10.8c-3.5-3.9-10.9-11.8-14.7-15.9H302l-0.4,2.4c0,0,0.4,0.7,0.9,1.6
		c0.6,1,0.7,1.4,0.7,1.9c0,0,0,34.3,0,34.3l9.4,0v-26.7c1.9,2.5,5.2,6.3,7.5,8.8c4.4,4.8,11.1,12.3,16.4,17.9h9v-40.3L336.1,301.2z"
		/>
	<path d="M438.6,301.2v24.6c0,2.7-0.5,4.4-1.9,5.6c-1.7,1.6-4.5,2.3-8.5,2.3c-4.1,0-7-0.8-8.7-2.3c-1.3-1.2-1.9-2.9-1.9-5.6v-24.6
		H406l-0.4,2.4c0,0,0.4,0.7,0.9,1.6c0.5,0.9,0.7,1.4,0.7,1.9c0,0.1,0,19.1,0,19.1c0,10.5,7.1,15.9,20.9,15.9h0.3
		c13.8,0,20.5-5.2,20.5-15.9v-25H438.6z"/>
	<path d="M383.9,301.2h-13.1c-4,8.2-10.9,23.3-17.3,40.3H364c0.8-2.3,1.7-4.6,2.6-7h21.5c0.9,2.3,1.8,4.7,2.6,7h10.5
		C394.8,324.6,387.9,309.4,383.9,301.2 M369.6,326.9c2.7-6.9,5.5-13.3,7.7-18.4c2.2,5,5,11.5,7.7,18.4H369.6z"/>
	<rect x="600.9" y="230.8" class="st0" width="20.9" height="181.8"/>
</g>
<g>
	<defs>
		<path id="SVGID_1_" d="M93.3,364.6C86,350.5,81,340.8,74.1,325.2c-0.6-1.3-1-2.3-1-3.6c0-1.2,0.5-2.2,1-3.5
			c6.9-15.6,11.9-25.3,19.2-39.3c0.4-0.8,0.8-1.3,1.2-1.3h0c0.5,0,0.8,0.5,1.3,1.3c7.3,14.1,12.2,23.8,19.2,39.3
			c0.6,1.3,1,2.3,1,3.6c0,1.3-0.4,2.2-1,3.5c-7,15.6-11.9,25.3-19.2,39.4c-0.4,0.8-0.8,1.3-1.2,1.4C94,365.9,93.7,365.4,93.3,364.6
			 M74.6,234.6c-0.7,0.1-0.9,0.2-1.2,0.3c-0.3,0.2-0.7,0.4-1.2,1.2c-1.6,2.4-17.9,29.2-28.3,48c-7.4,13.4-14.6,27.6-17.7,34.1
			c-0.8,1.7-0.9,2.9-0.9,3.4c0,0.9,0.3,2.1,0.9,3.4c3.1,6.5,10.4,20.7,17.7,34.1c10.4,18.9,26.6,45.7,28.3,48
			c0.3,0.4,0.5,0.7,0.7,0.9c0.4,0.4,0.7,0.6,1.1,0.8c0.4,0.1,1.2,0.1,1.9,0c0.4,0,0.8,0,1.2,0c4.2,0.1,10.6,0.3,17.4,0.3
			c8.4,0,18.3-0.2,19.8-0.4l0.2,0c0.6-0.1,0.9-0.2,1.1-0.2c0.3-0.1,0.6-0.4,1.3-1.4c1.7-2.3,17.8-29,28.2-47.9
			c7.4-13.4,14.6-27.6,17.7-34.1c0.8-1.7,0.9-3.1,0.9-3.6c0-0.9-0.3-1.9-0.9-3.2c-3.1-6.6-10.4-20.7-17.7-34.1
			c-10.4-18.9-26.6-45.7-28.3-48c-0.5-0.6-0.8-1-1.2-1.3c-0.2-0.2-0.4-0.3-0.6-0.3c-0.4-0.1-1.3-0.1-2,0c-0.4,0.1-0.8,0-1.2,0
			c-3.5-0.1-10.4-0.3-17.3-0.3C86.1,234.2,76,234.5,74.6,234.6"/>
	</defs>
	<clipPath id="SVGID_2_">
		<use xlink:href="#SVGID_1_"  style="overflow:visible;"/>
	</clipPath>

		<linearGradient id="SVGID_3_" gradientUnits="userSpaceOnUse" x1="-296.1118" y1="704.9312" x2="-286.0802" y2="704.9312" gradientTransform="matrix(0 -17.4368 17.4368 0 -12197.1904 -4754.1016)">
		<stop  offset="0" style="stop-color:#E5E5E8"/>
		<stop  offset="0.3125" style="stop-color:#EEEEF0"/>
		<stop  offset="0.6866" style="stop-color:#FFFFFF"/>
		<stop  offset="0.7839" style="stop-color:#DEDFE2"/>
		<stop  offset="0.9271" style="stop-color:#B3B5BB"/>
		<stop  offset="1" style="stop-color:#A2A5AC"/>
	</linearGradient>
	<rect x="25.3" y="234.2" class="st1" width="138.6" height="174.9"/>
</g>
<g>
	<defs>
		<filter id="Adobe_OpacityMaskFilter" filterUnits="userSpaceOnUse" x="25.3" y="234.2" width="138.6" height="174.9">

				<feColorMatrix  type="matrix" values="-1 0 0 0 1  0 -1 0 0 1  0 0 -1 0 1  0 0 0 1 0" color-interpolation-filters="sRGB" result="source"/>
			<feFlood  style="flood-color:white;flood-opacity:1" result="back"/>
			<feBlend  in="source" in2="back" mode="normal"/>
		</filter>
	</defs>
	<mask maskUnits="userSpaceOnUse" x="25.3" y="234.2" width="138.6" height="174.9" id="SVGID_4_">
		<g class="st2">
			<rect x="25.3" y="234.2" width="138.6" height="174.9"/>
			<g class="st3">
				<rect x="25.3" y="234.2" width="138.6" height="174.9"/>

					<linearGradient id="SVGID_5_" gradientUnits="userSpaceOnUse" x1="-318.2438" y1="672.4473" x2="-308.2123" y2="672.4473" gradientTransform="matrix(0 -9.8281 9.8281 0 -6514.3013 -2706.1079)">
					<stop  offset="0" style="stop-color:#FFFFFF"/>
					<stop  offset="0.8545" style="stop-color:#FFFFFF"/>
					<stop  offset="0.8802" style="stop-color:#D7D7D7"/>
					<stop  offset="0.9381" style="stop-color:#727272"/>
					<stop  offset="1" style="stop-color:#000000"/>
				</linearGradient>
				<rect x="25.3" y="323" class="st4" width="138.6" height="86.1"/>
			</g>
		</g>
	</mask>
	<g class="st5">
		<g>
			<g>
				<defs>
					<path id="SVGID_6_" d="M93.3,364.6C86,350.5,81,340.8,74.1,325.2c-0.6-1.3-1-2.3-1-3.6c0-1.2,0.5-2.2,1-3.5
						c7-15.6,11.9-25.3,19.2-39.3c0.4-0.8,0.8-1.3,1.2-1.3l0,0c0.5,0,0.8,0.5,1.3,1.4c7.3,14.1,12.2,23.8,19.2,39.3
						c0.6,1.3,1,2.3,1,3.6c0,1.3-0.4,2.2-1,3.5c-7,15.6-11.9,25.3-19.2,39.4c-0.4,0.8-0.8,1.3-1.2,1.4
						C94,365.9,93.7,365.4,93.3,364.6 M74.6,234.6c-0.7,0.1-0.9,0.2-1.2,0.3c-0.3,0.2-0.7,0.4-1.2,1.2c-1.6,2.4-17.9,29.2-28.3,48
						c-7.4,13.4-14.6,27.6-17.7,34.1c-0.8,1.7-0.9,2.9-0.9,3.4c0,0.9,0.3,2.1,0.9,3.4c3.1,6.5,10.4,20.7,17.7,34.1
						c10.4,18.9,26.6,45.7,28.3,48c0.3,0.4,0.5,0.7,0.7,0.9c0.4,0.4,0.7,0.6,1.1,0.8c0.4,0.1,1.2,0.1,1.9,0c0.4,0,0.8,0,1.2,0
						c4.1,0.1,10.4,0.3,17.1,0.3h0.3c8.4,0,18.3-0.2,19.8-0.4l0.2,0c0.6-0.1,0.9-0.2,1.1-0.2c0.3-0.1,0.6-0.4,1.3-1.4
						c1.7-2.3,17.8-29,28.2-47.9c7.4-13.4,14.6-27.6,17.7-34.1c0.8-1.7,0.9-3.1,0.9-3.6c0-0.9-0.3-1.9-0.9-3.2
						c-3.1-6.6-10.4-20.7-17.7-34.1c-10.4-18.9-26.6-45.7-28.3-48c-0.5-0.6-0.8-1-1.2-1.3c-0.2-0.2-0.4-0.3-0.6-0.3
						c-0.4-0.1-1.3-0.1-2,0c-0.4,0.1-0.8,0-1.2,0c-3.5-0.1-10.4-0.3-17.3-0.3C86.1,234.2,76,234.5,74.6,234.6"/>
				</defs>
				<clipPath id="SVGID_7_">
					<use xlink:href="#SVGID_6_"  style="overflow:visible;"/>
				</clipPath>

					<radialGradient id="SVGID_8_" cx="-354.0882" cy="787.6709" r="10.0315" gradientTransform="matrix(8.6941 0 0 8.7264 3163.9973 -6594.2427)" gradientUnits="userSpaceOnUse">
					<stop  offset="0" style="stop-color:#FFFFFF"/>
					<stop  offset="0.401" style="stop-color:#FFFFFF"/>
					<stop  offset="0.5869" style="stop-color:#DEDFE2"/>
					<stop  offset="0.8606" style="stop-color:#B3B5BB"/>
					<stop  offset="1" style="stop-color:#A2A5AC"/>
				</radialGradient>
				<rect x="25.3" y="234.2" class="st6" width="138.6" height="174.9"/>
			</g>
		</g>
	</g>
</g>
<g>
	<defs>
		<path id="SVGID_9_" d="M66.2,321.6c-0.6,0.6-1.6,1.1-4.2,1.1c-2.3,0-21.6,0-30.9,0c-1.4,0-3.2-0.1-3.2,2c0,1.3,1.1,3.8,3.3,8.2
			c12.2,24,25.9,47.9,40.4,71.3c0,0,2.2,3.6,2.5,3.9c0.2,0.3,0.5,0.4,1,0.4c0,0,9.3-16.9,16.7-35.4c-8.3-15.3-16-30.5-23.2-45.8
			c0,0-2-3.8-2.1-5.3c0-0.2,0-0.3,0-0.5c0-0.2,0-0.2-0.1-0.2C66.6,321.3,66.4,321.5,66.2,321.6"/>
	</defs>
	<clipPath id="SVGID_10_">
		<use xlink:href="#SVGID_9_"  style="overflow:visible;"/>
	</clipPath>

		<linearGradient id="SVGID_11_" gradientUnits="userSpaceOnUse" x1="-323.9471" y1="658.087" x2="-313.9156" y2="658.087" gradientTransform="matrix(0 -8.5894 8.5894 0 -5592.644 -2374.2512)">
		<stop  offset="0" style="stop-color:#E5E5E8"/>
		<stop  offset="1.042330e-002" style="stop-color:#E5E5E8"/>
		<stop  offset="0.3385" style="stop-color:#B1B5BB"/>
		<stop  offset="0.4201" style="stop-color:#999DA3"/>
		<stop  offset="0.6035" style="stop-color:#686B71"/>
		<stop  offset="0.6941" style="stop-color:#55585E"/>
		<stop  offset="0.8452" style="stop-color:#3C3E42"/>
		<stop  offset="0.8977" style="stop-color:#323438"/>
		<stop  offset="0.948" style="stop-color:#242529"/>
		<stop  offset="0.9599" style="stop-color:#27282C"/>
		<stop  offset="0.9701" style="stop-color:#313337"/>
		<stop  offset="0.9797" style="stop-color:#424449"/>
		<stop  offset="0.9888" style="stop-color:#5A5C62"/>
		<stop  offset="0.9977" style="stop-color:#787C81"/>
		<stop  offset="1" style="stop-color:#81858B"/>
	</linearGradient>
	<rect x="28" y="321.3" class="st7" width="64" height="87.2"/>
</g>
<g>
	<defs>
		<path id="SVGID_12_" d="M162.1,321.9c-0.3,0.3-1.3,0.8-3.4,0.8h-25.4c-11.7,0-10.5-0.3-13.5,5.9c-1.3,2.7-2.7,6-4.2,8.6
			c-10.2,21.3-35,64.2-38.4,69.5c-1.3,2-1.5,2.1-0.5,2.1c0,0,8.4,0.3,17.8,0.3c14.7,0,19.9-0.4,19.9-0.4
			c8.5-13.2,28.8-46.8,43.3-75.8c3.3-6.7,5-9.6,4.8-11c0-0.1-0.1-0.2-0.1-0.2C162.3,321.7,162.2,321.8,162.1,321.9"/>
	</defs>
	<clipPath id="SVGID_13_">
		<use xlink:href="#SVGID_12_"  style="overflow:visible;"/>
	</clipPath>

		<linearGradient id="SVGID_14_" gradientUnits="userSpaceOnUse" x1="-323.8983" y1="664.3741" x2="-313.8669" y2="664.3741" gradientTransform="matrix(0 -8.597 8.597 0 -5592.375 -2376.2837)">
		<stop  offset="0" style="stop-color:#E5E5E8"/>
		<stop  offset="1.042330e-002" style="stop-color:#E5E5E8"/>
		<stop  offset="0.3385" style="stop-color:#B1B5BB"/>
		<stop  offset="0.4201" style="stop-color:#999DA3"/>
		<stop  offset="0.6035" style="stop-color:#686B71"/>
		<stop  offset="0.6941" style="stop-color:#55585E"/>
		<stop  offset="0.8452" style="stop-color:#3C3E42"/>
		<stop  offset="0.9007" style="stop-color:#323438"/>
		<stop  offset="0.9538" style="stop-color:#242529"/>
		<stop  offset="0.9643" style="stop-color:#27282C"/>
		<stop  offset="0.9734" style="stop-color:#313337"/>
		<stop  offset="0.9819" style="stop-color:#424449"/>
		<stop  offset="0.9901" style="stop-color:#5A5C62"/>
		<stop  offset="0.998" style="stop-color:#787C81"/>
		<stop  offset="1" style="stop-color:#81858B"/>
	</linearGradient>
	<rect x="75.8" y="321.7" class="st8" width="86.9" height="87.4"/>
</g>
<g>
	<defs>
		<path id="SVGID_15_" d="M113.7,234.8c-0.6,0-1,0.5-1.9,1.8c-7.2,11.1-32,57.9-42.2,79.7c-1.2,2.7-1.9,4-1.9,5.3l5.3,0
			c0-1.2,0.5-2.2,1-3.5c6.9-15.6,11.9-25.3,19.2-39.3c0.4-0.8,0.8-1.3,1.2-1.3l2.1-6C103.7,253.6,113.8,234.8,113.7,234.8
			L113.7,234.8z"/>
	</defs>
	<clipPath id="SVGID_16_">
		<use xlink:href="#SVGID_15_"  style="overflow:visible;"/>
	</clipPath>

		<linearGradient id="SVGID_17_" gradientUnits="userSpaceOnUse" x1="-314.4724" y1="661.9489" x2="-304.4399" y2="661.9489" gradientTransform="matrix(0 -8.6532 8.6532 0 -5637.1538 -2400.0791)">
		<stop  offset="0" style="stop-color:#55585E"/>
		<stop  offset="1.055729e-002" style="stop-color:#494B50"/>
		<stop  offset="2.425959e-002" style="stop-color:#3F4145"/>
		<stop  offset="4.003730e-002" style="stop-color:#3C3E42"/>
		<stop  offset="0.1019" style="stop-color:#393B3F"/>
		<stop  offset="0.1498" style="stop-color:#303235"/>
		<stop  offset="0.1931" style="stop-color:#212225"/>
		<stop  offset="0.2334" style="stop-color:#0C0D0E"/>
		<stop  offset="0.2521" style="stop-color:#000000"/>
		<stop  offset="1" style="stop-color:#000000"/>
	</linearGradient>
	<rect x="67.8" y="234.8" class="st9" width="46" height="86.8"/>
</g>
<g>
	<defs>
		<path id="SVGID_18_" d="M94.5,277.4L94.5,277.4c0.5,0,0.8,0.5,1.3,1.3c7.3,14.1,12.2,23.8,19.2,39.3c0.6,1.3,1,2.3,1,3.6
			c0,0,0,0,0,0l0,0h5.3c0-1.3-0.6-2.6-1.8-5.2c-7-14.9-14.3-29.4-22.8-45L94.5,277.4z"/>
	</defs>
	<clipPath id="SVGID_19_">
		<use xlink:href="#SVGID_18_"  style="overflow:visible;"/>
	</clipPath>

		<linearGradient id="SVGID_20_" gradientUnits="userSpaceOnUse" x1="-347.6582" y1="603.2365" x2="-337.6275" y2="603.2365" gradientTransform="matrix(0 -5.0093 5.0093 0 -2913.9023 -1419.8263)">
		<stop  offset="0" style="stop-color:#8B8E94"/>
		<stop  offset="0.152" style="stop-color:#85888E"/>
		<stop  offset="0.3554" style="stop-color:#75787D"/>
		<stop  offset="0.5869" style="stop-color:#5A5D61"/>
		<stop  offset="0.7954" style="stop-color:#3C3E42"/>
		<stop  offset="0.823" style="stop-color:#37393C"/>
		<stop  offset="0.8589" style="stop-color:#28292C"/>
		<stop  offset="0.8993" style="stop-color:#101011"/>
		<stop  offset="0.9207" style="stop-color:#000000"/>
		<stop  offset="1" style="stop-color:#000000"/>
	</linearGradient>
	<rect x="94.5" y="271.5" class="st10" width="26.7" height="50.2"/>
</g>
<g>
	<defs>
		<path id="SVGID_21_" d="M67.8,321.6c0,1.3,0.6,2.6,1.8,5.3c7,14.9,14.3,29.4,22.8,45l2.1-6c-0.5,0-0.8-0.5-1.2-1.4
			C86,350.5,81,340.8,74.1,325.2c-0.6-1.3-1-2.3-1-3.6l-4.5,0H67.8z"/>
	</defs>
	<clipPath id="SVGID_22_">
		<use xlink:href="#SVGID_21_"  style="overflow:visible;"/>
	</clipPath>

		<linearGradient id="SVGID_23_" gradientUnits="userSpaceOnUse" x1="-356.657" y1="598.5013" x2="-346.627" y2="598.5013" gradientTransform="matrix(0 -5.0117 5.0117 0 -2918.3447 -1415.4523)">
		<stop  offset="0" style="stop-color:#C6C8CC"/>
		<stop  offset="0.3571" style="stop-color:#C6C8CC"/>
		<stop  offset="0.4869" style="stop-color:#C0C2C7"/>
		<stop  offset="0.6562" style="stop-color:#B0B3B7"/>
		<stop  offset="0.8464" style="stop-color:#95999E"/>
		<stop  offset="0.9631" style="stop-color:#81858B"/>
		<stop  offset="1" style="stop-color:#55585E"/>
	</linearGradient>
	<rect x="67.8" y="321.6" class="st11" width="26.8" height="50.3"/>
</g>
<g>
	<defs>
		<path id="SVGID_24_" d="M69.7,326.9c7,14.9,14.3,29.4,22.8,45l2.1-6c-0.5,0-0.8-0.5-1.2-1.4C86,350.5,81,340.8,74.1,325.2
			c-0.6-1.3-1-2.3-1-3.6v0l-5.3,0C67.8,322.9,68.4,324.3,69.7,326.9"/>
	</defs>
	<clipPath id="SVGID_25_">
		<use xlink:href="#SVGID_24_"  style="overflow:visible;"/>
	</clipPath>
	<defs>
		<filter id="Adobe_OpacityMaskFilter_1_" filterUnits="userSpaceOnUse" x="22.6" y="287.4" width="117.2" height="118.6">
			<feColorMatrix  type="matrix" values="1 0 0 0 0  0 1 0 0 0  0 0 1 0 0  0 0 0 1 0"/>
		</filter>
	</defs>
	<mask maskUnits="userSpaceOnUse" x="22.6" y="287.4" width="117.2" height="118.6" id="SVGID_26_">
		<g class="st12">
			<rect x="48.9" y="311.6" class="st13" width="64.4" height="70.3"/>
			<g class="st3">
				<g>
					<defs>
						<polygon id="SVGID_27_" points="48.9,363.4 90,381.9 113.4,330.1 72.3,311.6 						"/>
					</defs>
					<clipPath id="SVGID_28_" class="st13">
						<use xlink:href="#SVGID_27_"  style="overflow:visible;"/>
					</clipPath>

						<linearGradient id="SVGID_29_" gradientUnits="userSpaceOnUse" x1="-171.549" y1="609.8185" x2="-161.5175" y2="609.8185" gradientTransform="matrix(-4.5589 -2.0564 2.0564 -4.5589 -1935.4508 2782.8835)">
						<stop  offset="0" style="stop-color:#D1D3D4"/>
						<stop  offset="1.320000e-002" style="stop-color:#D1D3D4"/>
						<stop  offset="2.403735e-002" style="stop-color:#CCCECF"/>
						<stop  offset="3.732780e-002" style="stop-color:#BDBFC0"/>
						<stop  offset="5.190269e-002" style="stop-color:#A4A6A7"/>
						<stop  offset="6.740630e-002" style="stop-color:#828384"/>
						<stop  offset="8.364101e-002" style="stop-color:#565757"/>
						<stop  offset="0.1002" style="stop-color:#212122"/>
						<stop  offset="0.1096" style="stop-color:#000000"/>
						<stop  offset="1" style="stop-color:#000000"/>
					</linearGradient>
					<polygon class="st14" points="139.7,323.5 59.8,287.4 22.6,370 102.5,406.1 					"/>
				</g>
			</g>
		</g>
	</mask>
	<g class="st15">
		<g>
			<defs>
				<rect id="SVGID_30_" x="48.9" y="311.6" width="64.4" height="70.3"/>
			</defs>
			<clipPath id="SVGID_31_">
				<use xlink:href="#SVGID_30_"  style="overflow:visible;"/>
			</clipPath>
			<g class="st16">
				<defs>
					<polygon id="SVGID_32_" points="48.9,363.4 90,381.9 113.4,330.1 72.3,311.6 					"/>
				</defs>
				<clipPath id="SVGID_33_">
					<use xlink:href="#SVGID_32_"  style="overflow:visible;"/>
				</clipPath>

					<linearGradient id="SVGID_34_" gradientUnits="userSpaceOnUse" x1="-171.5487" y1="609.8176" x2="-161.5172" y2="609.8176" gradientTransform="matrix(-4.5589 -2.0564 2.0564 -4.5589 -1935.4504 2782.8831)">
					<stop  offset="0" style="stop-color:#F1F2F1"/>
					<stop  offset="1.320000e-002" style="stop-color:#F1F2F1"/>
					<stop  offset="0.1096" style="stop-color:#EEEDEE"/>
					<stop  offset="1" style="stop-color:#EEEDEE"/>
				</linearGradient>
				<polygon class="st17" points="139.8,323.5 59.8,287.4 22.6,370.1 102.5,406.1 				"/>
			</g>
		</g>
	</g>
</g>
<g>
	<defs>
		<path id="SVGID_35_" d="M116,321.7c0,1.3-0.4,2.2-1,3.5c-7,15.6-11.9,25.3-19.2,39.4c-0.4,0.8-0.8,1.3-1.2,1.4l-2.1,6
			c-7.5,18.9-17.2,36.6-17.2,36.6c0.6,0,1.3-0.7,2.1-1.9c0.2-0.3,0.5-0.8,0.8-1.4c5.4-9.2,31.5-57.4,41.2-78.2
			c1.2-2.7,1.9-4,1.9-5.3H116z"/>
	</defs>
	<clipPath id="SVGID_36_">
		<use xlink:href="#SVGID_35_"  style="overflow:visible;"/>
	</clipPath>

		<linearGradient id="SVGID_37_" gradientUnits="userSpaceOnUse" x1="-323.4798" y1="662.7714" x2="-313.4484" y2="662.7714" gradientTransform="matrix(0 -8.658 8.658 0 -5640.002 -2392.7136)">
		<stop  offset="0" style="stop-color:#FFFFFF"/>
		<stop  offset="0.262" style="stop-color:#F5F5F6"/>
		<stop  offset="0.7126" style="stop-color:#D9DADD"/>
		<stop  offset="0.9693" style="stop-color:#C6C8CC"/>
		<stop  offset="0.9713" style="stop-color:#C0C2C7"/>
		<stop  offset="0.9913" style="stop-color:#8B8E94"/>
		<stop  offset="1" style="stop-color:#8B8E94"/>
	</linearGradient>
	<rect x="75.2" y="321.7" class="st18" width="46" height="86.9"/>
</g>
<g>
	<defs>
		<path id="SVGID_38_" d="M21.9,321.7c0,1.2,0.3,2.7,1.3,4.9c2.4,5.2,9.2,18.5,17.8,34.3c9.4,17.2,26.6,45.8,28.5,48.4
			c0.8,1.1,1.4,1.7,2.1,2.1l1.4-3.3c-0.2-0.2-0.5-0.5-0.7-0.9c-1.7-2.3-17.9-29.2-28.3-48c-7.4-13.4-14.6-27.6-17.7-34.1
			c-0.6-1.3-0.9-2.5-0.9-3.4H21.9z"/>
	</defs>
	<clipPath id="SVGID_39_">
		<use xlink:href="#SVGID_38_"  style="overflow:visible;"/>
	</clipPath>

		<linearGradient id="SVGID_40_" gradientUnits="userSpaceOnUse" x1="-322.0841" y1="660.343" x2="-312.0527" y2="660.343" gradientTransform="matrix(0 -8.944 8.944 0 -5858.7036 -2469.313)">
		<stop  offset="0" style="stop-color:#81858B"/>
		<stop  offset="0.1214" style="stop-color:#7C8086"/>
		<stop  offset="0.5586" style="stop-color:#707379"/>
		<stop  offset="0.9698" style="stop-color:#6C6F75"/>
		<stop  offset="1" style="stop-color:#9EA2A8"/>
	</linearGradient>
	<rect x="21.9" y="321.7" class="st19" width="51.1" height="89.7"/>
</g>
<g>
	<defs>
		<path id="SVGID_41_" d="M71.6,411.4c0.9,0.6,1.8,0.7,2.8,0.8c2.5,0.2,13.7,0.4,20.2,0.4s18.5-0.3,20.2-0.4
			c0.8-0.1,1.5-0.2,2.3-0.5l-1.4-3.2c-0.2,0.1-0.5,0.2-1.1,0.2l-0.2,0c-1.5,0.2-11.3,0.4-19.8,0.4c-6.8,0-13.2-0.1-17.4-0.3
			c-0.4,0-0.8,0-1.2,0c-0.7,0.1-1.5,0.1-1.9,0c-0.4-0.1-0.7-0.4-1.1-0.8L71.6,411.4z"/>
	</defs>
	<clipPath id="SVGID_42_">
		<use xlink:href="#SVGID_41_"  style="overflow:visible;"/>
	</clipPath>

		<linearGradient id="SVGID_43_" gradientUnits="userSpaceOnUse" x1="-373.2278" y1="942.0746" x2="-363.1963" y2="942.0746" gradientTransform="matrix(3.4443 1.9886 -1.9886 3.4443 3236.2549 -2102.0637)">
		<stop  offset="0" style="stop-color:#81858B"/>
		<stop  offset="1.931200e-002" style="stop-color:#81858B"/>
		<stop  offset="3.745127e-002" style="stop-color:#6C6F75"/>
		<stop  offset="6.074161e-002" style="stop-color:#585B60"/>
		<stop  offset="8.351087e-002" style="stop-color:#4C4E53"/>
		<stop  offset="0.105" style="stop-color:#484A4F"/>
		<stop  offset="1" style="stop-color:#484A4F"/>
	</linearGradient>
	<polygon class="st20" points="69.6,411.5 105.6,432.2 118.9,409.2 82.9,388.5 	"/>
</g>
<g>
	<defs>
		<path id="SVGID_44_" d="M115.7,234.8c0.4,0.3,0.7,0.7,1.2,1.3c1.7,2.3,17.9,29.2,28.3,48c7.4,13.4,14.6,27.6,17.7,34.1
			c0.6,1.3,0.9,2.3,0.9,3.2l3.4,0.2v0c0-0.9-0.2-2.7-1.3-4.9c-2.6-5.4-10.9-21.7-17.8-34.3c-9.3-16.9-26.5-45.7-28.5-48.4
			c-1-1.4-1.8-2.1-2.6-2.4L115.7,234.8z"/>
	</defs>
	<clipPath id="SVGID_45_">
		<use xlink:href="#SVGID_44_"  style="overflow:visible;"/>
	</clipPath>

		<linearGradient id="SVGID_46_" gradientUnits="userSpaceOnUse" x1="-323.4285" y1="820.5497" x2="-313.3971" y2="820.5497" gradientTransform="matrix(7.6345 4.1798 -4.1798 7.6345 6002.6289 -4656.666)">
		<stop  offset="0" style="stop-color:#787A80"/>
		<stop  offset="1" style="stop-color:#8B8E94"/>
	</linearGradient>
	<polygon class="st21" points="77.8,300.9 155.4,343.4 205.2,252.4 127.6,209.9 	"/>
</g>
<g>
	<defs>
		<path id="SVGID_47_" d="M74.2,231.2c-0.9,0.1-1.5,0.2-2.1,0.5l1.4,3.3c0.3-0.1,0.5-0.3,1.2-0.3c1.3-0.1,11.5-0.4,19.9-0.4
			c6.9,0,13.8,0.2,17.3,0.3c0.4,0,0.8,0,1.2,0c0.7-0.1,1.6-0.1,2,0c0.2,0.1,0.4,0.2,0.6,0.3l1.3-3.1c-0.8-0.4-1.5-0.4-2.4-0.5
			c-2.7-0.3-14.1-0.4-20.1-0.4C89.3,230.8,77,230.9,74.2,231.2"/>
	</defs>
	<clipPath id="SVGID_48_">
		<use xlink:href="#SVGID_47_"  style="overflow:visible;"/>
	</clipPath>

		<linearGradient id="SVGID_49_" gradientUnits="userSpaceOnUse" x1="-130.089" y1="629.8439" x2="-120.0575" y2="629.8439" gradientTransform="matrix(-4.1354 -1.1858 1.1858 -4.1354 -1169.8955 2689.1279)">
		<stop  offset="0" style="stop-color:#787A80"/>
		<stop  offset="9.552040e-003" style="stop-color:#787A80"/>
		<stop  offset="3.583494e-002" style="stop-color:#979AA0"/>
		<stop  offset="5.849867e-002" style="stop-color:#AAAEB4"/>
		<stop  offset="7.376030e-002" style="stop-color:#B1B5BB"/>
		<stop  offset="0.5011" style="stop-color:#C4C8CB"/>
		<stop  offset="1" style="stop-color:#C6C8CC"/>
	</linearGradient>
	<polygon class="st22" points="118.1,231.1 75.5,218.9 71,234.6 113.6,246.8 	"/>
</g>
<g>
	<defs>
		<path id="SVGID_50_" d="M69.4,234.2c-2,2.6-19.2,31.6-28.4,48.3c-6.5,11.7-16.9,32.1-17.8,34.3c-1,2.2-1.3,3.7-1.3,4.9h3.4
			c0-0.5,0.1-1.7,0.9-3.4c3.1-6.6,10.4-20.7,17.7-34.1c10.4-18.9,26.7-45.7,28.3-48c0.6-0.8,0.9-1,1.2-1.2l-1.4-3.3
			C71,232.1,70.4,232.9,69.4,234.2"/>
	</defs>
	<clipPath id="SVGID_51_">
		<use xlink:href="#SVGID_50_"  style="overflow:visible;"/>
	</clipPath>

		<linearGradient id="SVGID_52_" gradientUnits="userSpaceOnUse" x1="-381.0775" y1="753.5596" x2="-371.046" y2="753.5596" gradientTransform="matrix(7.3747 -2.8309 2.8309 7.3747 687.1872 -6344.9385)">
		<stop  offset="0" style="stop-color:#9EA2A8"/>
		<stop  offset="0.9868" style="stop-color:#8B8E94"/>
		<stop  offset="0.997" style="stop-color:#B8BABF"/>
		<stop  offset="1" style="stop-color:#C6C8CC"/>
	</linearGradient>
	<polygon class="st23" points="28.5,338.9 103.5,310.1 66.8,214.4 -8.3,243.2 	"/>
</g>
<g>
	<defs>
		<path id="SVGID_53_" d="M115.6,408.5L115.6,408.5L115.6,408.5z M162.9,325.1c-3.1,6.6-10.4,20.7-17.7,34.1
			c-10.4,18.9-26.6,45.6-28.2,47.9c-0.7,1-1,1.2-1.3,1.4l1.4,3.2c0.8-0.4,1.7-1.1,2.6-2.4c1.9-2.6,20.4-33.4,28.5-48.4
			c8.2-15,16.9-32.2,17.8-34.3c1.2-2.6,1.3-4,1.3-4.9l-3.4-0.2C163.8,322,163.7,323.4,162.9,325.1"/>
	</defs>
	<clipPath id="SVGID_54_">
		<use xlink:href="#SVGID_53_"  style="overflow:visible;"/>
	</clipPath>

		<linearGradient id="SVGID_55_" gradientUnits="userSpaceOnUse" x1="-321.8184" y1="670.2333" x2="-311.7876" y2="670.2333" gradientTransform="matrix(0 -8.9936 8.9936 0 -5886.375 -2482.6272)">
		<stop  offset="0" style="stop-color:#484A4F"/>
		<stop  offset="1.902380e-002" style="stop-color:#484A4F"/>
		<stop  offset="0.2412" style="stop-color:#52555A"/>
		<stop  offset="0.6025" style="stop-color:#5D6165"/>
		<stop  offset="0.9698" style="stop-color:#616569"/>
		<stop  offset="0.9767" style="stop-color:#6B6F74"/>
		<stop  offset="1" style="stop-color:#8B8E94"/>
	</linearGradient>
	<rect x="115.6" y="321.5" class="st24" width="51.6" height="90.2"/>
</g>
<g>
	<path class="st25" d="M113,234.5c0.1,0,0.1,0,0.2,0c0,0-0.9,0.7-3.1,0.7c-2.6,0-8.1-0.1-12.4-0.2c-8.1-0.1-17.7,0.1-22.2,0.3
		c-2.4,0.1-2.5,0.4-4,2l0.8-1.2c0.5-0.8,0.9-1,1.2-1.2c0.3-0.1,0.5-0.3,1.2-0.3c1.3-0.1,11.5-0.4,19.9-0.4c6.9,0,13.8,0.2,17.3,0.3
		C112.2,234.5,112.7,234.5,113,234.5"/>
</g>
<g>
	<defs>
		<path id="SVGID_56_" d="M95,279.4c0.6,1.2,5.8,11,10.5,20.6c4.4,9,8.2,17.6,8.6,18.6c0.6,1.3,0.9,2.1,0.9,3.2c0,1-0.3,1.8-0.9,3.1
			l0,0.1c0,0.1-4,9.1-8.7,18.6c-4.1,8.5-8.7,17.2-10.4,20.5l-0.1,0.2c-0.2,0.3-0.3,0.6-0.4,0.6c-0.1,0-0.2-0.2-0.4-0.6
			c0-0.1-0.1-0.2-0.2-0.5c-4.9-9.4-8.3-16.1-10.3-20.2c-4.4-9.1-8.4-17.9-8.7-18.6l0-0.1c-0.5-1.2-0.9-2.1-0.9-3.1
			c0-1,0.5-2.1,0.9-3.1c0-0.1,0.1-0.2,0.2-0.5c2.8-6.4,5.6-12.4,8.4-18c4-8.2,8.5-16.9,10-19.8c-13.8,8.9-23,24.5-23,42.2
			c0,27.7,22.4,50.2,50,50.2c8.9,0,17.2-2.3,24.5-6.4c1.1-1.9,2.1-3.7,3-5.3c8-14.5,16.8-32,17.8-34.3c1.1-2.5,1.3-3.8,1.3-4.9
			c0-0.8-0.2-2.6-1.3-4.9c-2.6-5.5-10.9-21.7-17.8-34.3c-0.5-1-1.1-2-1.7-3c-7.5-4.6-16.4-7.2-25.8-7.2
			C111.3,272.3,102.5,274.9,95,279.4"/>
	</defs>
	<clipPath id="SVGID_57_">
		<use xlink:href="#SVGID_56_"  style="overflow:visible;"/>
	</clipPath>
	<defs>
		<filter id="Adobe_OpacityMaskFilter_2_" filterUnits="userSpaceOnUse" x="70.8" y="272.3" width="100.4" height="100.4">
			<feColorMatrix  type="matrix" values="1 0 0 0 0  0 1 0 0 0  0 0 1 0 0  0 0 0 1 0"/>
		</filter>
	</defs>
	<mask maskUnits="userSpaceOnUse" x="70.8" y="272.3" width="100.4" height="100.4" id="SVGID_58_">
		<g class="st26">
			<rect x="70.9" y="272.3" class="st27" width="100.4" height="100.4"/>
			<g class="st3">
				<rect x="70.9" y="272.3" class="st27" width="100.4" height="100.4"/>
				<g>
					<defs>
						<path id="SVGID_59_" d="M106.2,322.4c0,8.3,6.7,15,15,15s15-6.7,15-15c0-8.3-6.7-15-15-15S106.2,314.2,106.2,322.4"/>
					</defs>
					<clipPath id="SVGID_60_" class="st27">
						<use xlink:href="#SVGID_59_"  style="overflow:visible;"/>
					</clipPath>

						<radialGradient id="SVGID_61_" cx="-743.4275" cy="1011.5126" r="10.0329" gradientTransform="matrix(1.4915 0 0 1.4915 1230.0598 -1186.2682)" gradientUnits="userSpaceOnUse">
						<stop  offset="0" style="stop-color:#FFFFFF"/>
						<stop  offset="0.1664" style="stop-color:#FFFFFF"/>
						<stop  offset="0.1927" style="stop-color:#E5E5E5"/>
						<stop  offset="0.2475" style="stop-color:#B6B6B6"/>
						<stop  offset="0.307" style="stop-color:#8A8A8A"/>
						<stop  offset="0.3699" style="stop-color:#656565"/>
						<stop  offset="0.437" style="stop-color:#464646"/>
						<stop  offset="0.5097" style="stop-color:#2C2C2C"/>
						<stop  offset="0.59" style="stop-color:#181818"/>
						<stop  offset="0.6821" style="stop-color:#0A0A0A"/>
						<stop  offset="0.7963" style="stop-color:#020202"/>
						<stop  offset="1" style="stop-color:#000000"/>
					</radialGradient>
					<rect x="106.2" y="307.5" class="st28" width="29.9" height="29.9"/>
				</g>
			</g>
		</g>
	</mask>
	<g class="st29">
		<g>
			<defs>
				<rect id="SVGID_62_" x="70.8" y="272.3" width="100.4" height="100.4"/>
			</defs>
			<clipPath id="SVGID_63_">
				<use xlink:href="#SVGID_62_"  style="overflow:visible;"/>
			</clipPath>
			<g class="st30">
				<defs>
					<path id="SVGID_64_" d="M120.4,272.3c-27.2,0.4-49.1,22.3-49.5,49.5v1.4c0.4,27.4,22.7,49.5,50.2,49.5
						c27.7,0,50.2-22.5,50.2-50.2c0-27.5-22.1-49.8-49.5-50.2H120.4z"/>
				</defs>
				<clipPath id="SVGID_65_">
					<use xlink:href="#SVGID_64_"  style="overflow:visible;"/>
				</clipPath>
				<defs>
					<filter id="Adobe_OpacityMaskFilter_3_" filterUnits="userSpaceOnUse" x="70.8" y="272.3" width="100.4" height="100.4">
						<feColorMatrix  type="matrix" values="1 0 0 0 0  0 1 0 0 0  0 0 1 0 0  0 0 0 1 0"/>
					</filter>
				</defs>
				<mask maskUnits="userSpaceOnUse" x="70.8" y="272.3" width="100.4" height="100.4" id="SVGID_58_">
					<g class="st31">
						<rect x="70.9" y="272.3" class="st32" width="100.4" height="100.4"/>
						<g class="st3">

								<radialGradient id="SVGID_66_" cx="-410.4796" cy="825.7878" r="10.0313" gradientTransform="matrix(5.0026 0 0 5.0026 2174.5283 -3808.6685)" gradientUnits="userSpaceOnUse">
								<stop  offset="0" style="stop-color:#FFFFFF"/>
								<stop  offset="6.270898e-002" style="stop-color:#ECECEC"/>
								<stop  offset="0.1903" style="stop-color:#BABABA"/>
								<stop  offset="0.3717" style="stop-color:#696969"/>
								<stop  offset="0.5897" style="stop-color:#000000"/>
								<stop  offset="1" style="stop-color:#000000"/>
							</radialGradient>
							<rect x="70.9" y="272.3" class="st33" width="100.4" height="100.4"/>
						</g>
					</g>
				</mask>
				<g class="st32">
					<g>
						<defs>
							<rect id="SVGID_67_" x="70.8" y="272.3" width="100.4" height="100.4"/>
						</defs>
						<clipPath id="SVGID_68_">
							<use xlink:href="#SVGID_67_"  style="overflow:visible;"/>
						</clipPath>
						<g class="st34">
							<defs>
								<rect id="SVGID_69_" x="70.9" y="272.3" width="100.4" height="100.4"/>
							</defs>
							<clipPath id="SVGID_70_">
								<use xlink:href="#SVGID_69_"  style="overflow:visible;"/>
							</clipPath>

								<radialGradient id="SVGID_71_" cx="-410.4803" cy="825.7878" r="10.0307" gradientTransform="matrix(5.0026 0 0 5.0026 2174.5298 -3808.6741)" gradientUnits="userSpaceOnUse">
								<stop  offset="0" style="stop-color:#FFFFFF"/>
								<stop  offset="0.5897" style="stop-color:#FFFFFF"/>
								<stop  offset="1" style="stop-color:#FFFFFF"/>
							</radialGradient>
							<rect x="70.9" y="272.3" class="st35" width="100.4" height="100.4"/>
						</g>
					</g>
				</g>
			</g>
		</g>
	</g>
</g>
<g>
	<path d="M115,318.1c-0.3-0.6-4.2-9.4-8.7-18.6c-4.9-10-10.3-20.3-10.5-20.8c-0.4-0.8-0.8-1.4-1.2-1.4c-0.5,0-0.8,0.5-1.3,1.4
		c-0.2,0.4-5.8,11.1-10.6,20.8c-4.7,9.6-8.4,18.1-8.6,18.6c-0.5,1.1-1,2.3-1,3.5c0,1.2,0.5,2.3,1,3.6c0.3,0.6,4.2,9.5,8.7,18.6
		c4.9,10,10.3,20.3,10.5,20.7c0.4,0.8,0.8,1.4,1.2,1.4c0.5,0,0.8-0.5,1.2-1.3c0.2-0.4,5.6-10.7,10.5-20.7c4.5-9.1,8.4-18,8.7-18.7
		c0.6-1.4,1-2.3,1-3.5C116,320.5,115.6,319.5,115,318.1 M114.1,324.8L114.1,324.8c-0.1,0.2-4.1,9.2-8.7,18.7
		c-4.2,8.5-8.7,17.2-10.4,20.5l-0.1,0.2c-0.2,0.3-0.3,0.6-0.4,0.6c-0.1,0-0.2-0.2-0.4-0.6c0-0.1-0.1-0.2-0.3-0.5
		c-4.9-9.4-8.3-16.1-10.2-20.2c-4.4-9.1-8.4-17.9-8.7-18.6l0-0.1c-0.5-1.2-0.9-2.1-0.9-3.1c0-1,0.5-2.1,0.9-3.1
		c0-0.1,0.1-0.2,0.2-0.5c2.8-6.4,5.6-12.4,8.4-18c4.9-9.9,10.5-20.6,10.5-20.7c0.1-0.3,0.3-0.6,0.4-0.6c0.1,0,0.2,0.3,0.4,0.6
		c0,0.1,5.5,10.5,10.5,20.7c4.4,9,8.2,17.6,8.6,18.6c0.6,1.3,0.9,2.1,0.9,3.2C115,322.7,114.7,323.5,114.1,324.8"/>
	<path d="M166,316.8c-2.6-5.5-10.9-21.7-17.8-34.3c-9.6-17.3-26.6-45.8-28.5-48.4c-1.9-2.6-3-2.7-4.8-2.9l-0.3,0
		c-2.6-0.3-13.5-0.4-20.1-0.4c-5.6,0-17.6,0.1-20.4,0.4c-2.6,0.3-3.3,1.1-4.8,3c-2.1,2.7-19.4,32-28.4,48.3
		c-6.5,11.8-16.9,32.1-17.8,34.3c-0.9,2-1.3,3.5-1.3,4.9c0,1.4,0.4,3,1.3,4.9c2.2,4.7,8.7,17.7,17.8,34.3
		c9.5,17.3,26.7,45.9,28.5,48.4c1.9,2.6,3.2,2.7,4.9,2.9c2.6,0.2,14.1,0.4,20.2,0.4c6.6,0,18.5-0.3,20.2-0.4c1.6-0.2,3-0.3,4.9-2.9
		c1.7-2.4,20.2-33.2,28.5-48.4c8-14.5,16.8-32,17.8-34.3c1.1-2.5,1.3-3.8,1.3-4.9C167.3,320.8,167.1,319.1,166,316.8 M165.1,326.2
		c-1,2.3-9.8,19.7-17.8,34.2c-8.3,15.2-26.7,45.9-28.5,48.3c-1.6,2.3-2.7,2.3-4.2,2.5c-1.6,0.2-13.5,0.4-20.1,0.4
		c-6.1,0-17.5-0.2-20.1-0.4c-1.6-0.1-2.5-0.2-4.2-2.5c-1.8-2.5-19-31-28.5-48.3c-9.1-16.6-15.6-29.6-17.8-34.2
		c-0.8-1.8-1.2-3.2-1.2-4.5c0-1.2,0.4-2.6,1.2-4.5c1-2.2,11.3-22.5,17.8-34.2c9-16.3,26.3-45.5,28.3-48.1c1.4-1.9,1.9-2.4,4.1-2.6
		c2.7-0.3,14.7-0.4,20.3-0.4c6.6,0,17.4,0.1,20,0.4l0.3,0c1.7,0.2,2.4,0.3,4.1,2.5c1.9,2.6,18.9,31,28.5,48.3
		c7,12.6,15.2,28.8,17.8,34.3c1,2.1,1.2,3.7,1.2,4.5C166.3,322.6,166.1,323.8,165.1,326.2"/>
	<path d="M215.3,361.1c6.3,0,9,2.4,9,7.9c0,5.5-2.7,7.9-9,7.9h-7v9.9h-3.1v-23.2c0-0.3-0.1-0.4-0.4-0.5l-1.1-0.5l0.3-1.4H215.3z
		 M208.3,374.3h6.8c4.4,0,6.1-1.6,6.1-5.4c0-3.8-1.8-5.4-6.1-5.4h-6.8V374.3z"/>
	<path d="M239.6,384.8c-1.1,1.6-3.3,2.4-6.3,2.4c-4.8,0-7.1-1.7-7.1-5.5c0-3.7,2.3-5.4,7.5-5.4c2,0,3.9,0.3,5.4,0.8v-2.6
		c0-3.2-1.6-4.4-5.5-4.4c-1.9,0-3.8,0.3-5.7,0.9v-2.4c1.9-0.6,3.9-0.9,6.1-0.9c5.7,0,8.1,2.1,8.1,7.1v9.3c0,0.3,0,0.4,0.3,0.5
		l1.2,0.5l-0.3,1.6h-3.2c-0.2,0-0.3,0-0.4-0.3L239.6,384.8z M239.2,379.2c-1.5-0.6-3.1-0.8-5-0.8c-3.5,0-4.9,0.9-4.9,3.3
		c0,2.3,1.4,3.3,4.6,3.3c3.7,0,5.3-1.3,5.3-4.1V379.2z"/>
	<path d="M254.2,367.7c2.1,0,4.1,0.3,6,0.8l-0.5,2.4c-1.8-0.6-3.5-0.8-5.3-0.8c-3.1,0-4.6,1-4.6,2.9c0,4.5,11.2,1.1,11.2,8.5
		c0,3.7-2.7,5.6-7.4,5.6c-2.4,0-4.5-0.3-6.5-0.9v-2.5c2,0.7,4.1,1,6.3,1c3.2,0,4.7-1.2,4.7-3.2c0-5-11.2-1.2-11.2-8.5
		C246.8,369.5,249.5,367.7,254.2,367.7"/>
	<path d="M271.6,367.7c2.1,0,4.1,0.3,6,0.8l-0.5,2.4c-1.8-0.6-3.5-0.8-5.3-0.8c-3.1,0-4.6,1-4.6,2.9c0,4.5,11.2,1.1,11.2,8.5
		c0,3.7-2.7,5.6-7.5,5.6c-2.4,0-4.5-0.3-6.5-0.9v-2.5c2,0.7,4.1,1,6.3,1c3.2,0,4.7-1.2,4.7-3.2c0-5-11.2-1.2-11.2-8.5
		C264.2,369.5,267,367.7,271.6,367.7"/>
	<path d="M282.1,368.2h3.9c0.3,0,0.3,0.1,0.3,0.4v18.2h-3.1v-15.9c0-0.3,0-0.4-0.3-0.5l-1.1-0.5L282.1,368.2z M284.7,360.6
		c1.4,0,2,0.6,2,1.9c0,1.3-0.6,1.9-2,1.9c-1.4,0-2-0.6-2-1.9C282.7,361.1,283.3,360.6,284.7,360.6"/>
	<path d="M300.1,367.7c6.4,0,9.1,2.9,9.1,9.7c0,6.9-2.7,9.7-9.1,9.7c-6.4,0-9.2-2.9-9.2-9.7C291,370.6,293.7,367.7,300.1,367.7
		 M300.1,384.7c4.2,0,6-2.1,6-7.3c0-5.2-1.8-7.3-6-7.3c-4.3,0-6,2.1-6,7.3C294.1,382.6,295.8,384.7,300.1,384.7"/>
	<path d="M329.8,384.1c0,0.3,0,0.4,0.3,0.5l1.1,0.5l-0.3,1.6h-3.9c-0.3,0-0.3-0.1-0.3-0.4v-11.2c0-3.6-1.3-4.9-4.7-4.9
		c-2.4,0-4.7,0.8-5.5,1.4v15.1h-3.1v-16c0-0.3,0-0.4-0.3-0.5l-1.1-0.5l0.3-1.6h3.9c0.3,0,0.3,0.1,0.3,0.4v1.3c1.3-1.2,3.3-2.1,6-2.1
		c5.1,0,7.2,2.1,7.2,7.4V384.1z"/>
	<path d="M348.7,368.2h5.6v2.4h-5.6v16.1h-3.1V371c0-0.4,0-0.5-0.4-0.6l-2.2-0.6l0.3-1.7h2.3v-2.4c0-4.5,1.9-6.3,6.5-6.3
		c1.5,0,2.7,0.2,3.5,0.5l-0.5,2.4c-0.8-0.3-1.8-0.4-2.6-0.4c-2.7,0-3.8,1.1-3.8,3.8V368.2z"/>
	<path d="M365.3,367.7c6.4,0,9.1,2.9,9.1,9.7c0,6.9-2.7,9.7-9.1,9.7c-6.4,0-9.2-2.9-9.2-9.7C356.2,370.6,358.9,367.7,365.3,367.7
		 M365.3,384.7c4.2,0,6-2.1,6-7.3c0-5.2-1.8-7.3-6-7.3c-4.3,0-6,2.1-6,7.3C359.3,382.6,361,384.7,365.3,384.7"/>
	<path d="M378.9,370.8c0-0.3,0-0.4-0.3-0.5l-1.1-0.5l0.3-1.6h3.9c0.3,0,0.3,0.1,0.3,0.4v1.9c1.4-1.8,3.4-2.7,6-2.7
		c0.6,0,1.4,0.1,1.8,0.2l-0.5,2.7c-0.5-0.1-1-0.2-1.7-0.2c-2.7,0-4.2,0.9-5.6,2v14.4h-3V370.8z"/>
	<path d="M403.7,384.1c0,0.3,0,0.4,0.3,0.5l1.1,0.5l-0.3,1.6H401c-0.3,0-0.3-0.1-0.3-0.4v-23.9c0-0.3,0-0.4-0.3-0.5l-1.1-0.5
		l0.3-1.6h3.9c0.3,0,0.3,0.1,0.3,0.4V384.1z"/>
	<path d="M409.4,368.2h3.9c0.3,0,0.3,0.1,0.3,0.4v18.2h-3.1v-15.9c0-0.3,0-0.4-0.3-0.5l-1.1-0.5L409.4,368.2z M412,360.6
		c1.4,0,2,0.6,2,1.9c0,1.3-0.6,1.9-2,1.9c-1.4,0-2-0.6-2-1.9C410.1,361.1,410.6,360.6,412,360.6"/>
	<path d="M424,368.2h5.6v2.4H424v16.1h-3.1V371c0-0.4,0-0.5-0.4-0.6l-2.2-0.6l0.3-1.7h2.3v-2.4c0-4.5,2-6.3,6.5-6.3
		c1.5,0,2.7,0.2,3.5,0.5l-0.5,2.4c-0.8-0.3-1.8-0.4-2.6-0.4c-2.7,0-3.8,1.1-3.8,3.8V368.2z"/>
	<path d="M440.2,367.7c5.6,0,8,2.8,8,9.4c0,0.4,0,0.8,0,1.2h-13.8c0.1,4.6,2.2,6.5,7.2,6.5c2,0,3.9-0.3,5.9-0.9v2.4
		c-1.9,0.6-3.9,0.9-6.1,0.9c-7,0-10-2.9-10-9.7C431.4,370.6,434,367.7,440.2,367.7 M434.4,376.2h10.9c-0.1-4.5-1.5-6.3-5.1-6.3
		C436.2,369.9,434.5,371.8,434.4,376.2"/>
</g>
</svg>
