<svg id="Calque_1" data-name="Calque 1" xmlns="http://www.w3.org/2000/svg" viewBox="0 0 71.37 71.37"><defs><style>.cls-1{fill:#dd565a;}.cls-2{fill:#fcea1e;}.cls-3{fill:#58b9e8;}</style></defs><title>chat</title><circle class="cls-1" cx="14.9" cy="31.11" r="6.99"/><path class="cls-2" d="M53,46.67H51.54l-1-.94a22.53,22.53,0,1,0-2.42,2.42l.93,1v1.46a3,3,0,0,0,.9,2.17l9.38,9.35a2.18,2.18,0,0,0,3.1,0l2-2.05a2.19,2.19,0,0,0,0-3.1l-9.36-9.38A3,3,0,0,0,53,46.67Zm-19.48,0A15.57,15.57,0,1,1,49.09,31.11,15.54,15.54,0,0,1,33.53,46.67Z"/><circle class="cls-1" cx="33.53" cy="31.11" r="6.99"/><path class="cls-3" d="M33.53,24.12a7,7,0,1,1,0,14"/><circle class="cls-3" cx="52.16" cy="31.11" r="6.99"/></svg>