<svg id="Calque_1" data-name="Calque 1" xmlns="http://www.w3.org/2000/svg" xmlns:xlink="http://www.w3.org/1999/xlink" viewBox="0 0 71.37 71.37"><defs><style>.cls-1{fill:url(#Dégradé_sans_nom_9);}.cls-2{fill:#58b9e8;}</style><linearGradient id="Dégradé_sans_nom_9" x1="4.24" y1="1.47" x2="13.23" y2="10.47" gradientUnits="userSpaceOnUse"><stop offset="0" stop-color="#39a7df"/><stop offset="1" stop-color="#29265b"/></linearGradient></defs><title>chat</title><path class="cls-1" d="M40.66,11l7.78,7.78a4,4,0,0,1,0,5.69L27.19,45.67a4,4,0,0,1-5.69,0l-7.78-7.79a4,4,0,0,1,0-5.68L35,11A4,4,0,0,1,40.66,11Z"/><path class="cls-2" d="M21,25l6.73-6.73L59.39,49.89a2.81,2.81,0,0,1,0,4l-2.75,2.75a2.82,2.82,0,0,1-4,0ZM40.66,11l7.78,7.78a4,4,0,0,1,0,5.69l-3.89,3.89L31.09,14.85,35,11A4,4,0,0,1,40.66,11Zm-23,17.36L31.07,41.78l-3.89,3.89a4,4,0,0,1-5.68,0l-7.78-7.78a4,4,0,0,1,0-5.69Z"/><rect class="cls-2" x="10.88" y="55.72" width="28.56" height="4.76" rx="2.38" ry="2.38"/></svg>