<svg id="Calque_1" data-name="Calque 1" xmlns="http://www.w3.org/2000/svg" viewBox="0 0 71.37 71.37"><defs><style>.cls-1{fill:#fcea1e;}.cls-2{fill:#dd565a;}.cls-3{fill:#58b9e8;}</style></defs><title>chat</title><path class="cls-1" d="M65.6,31.39A21.63,21.63,0,1,0,41.82,52.92,2.4,2.4,0,0,1,44,55.33v4a1.08,1.08,0,0,0,1.85.76L59.16,46.79l.21-.21.08-.08h0A21.54,21.54,0,0,0,65.6,31.39Z"/><path class="cls-2" d="M6.58,33.26A10.75,10.75,0,1,1,18.4,44a1.2,1.2,0,0,0-1.07,1.2v2a.54.54,0,0,1-.92.38L9.78,40.91l-.1-.1,0,0h0A10.73,10.73,0,0,1,6.58,33.26Z"/><circle class="cls-3" cx="35.18" cy="31.81" r="3.3"/><circle class="cls-3" cx="43.97" cy="31.81" r="3.3"/><circle class="cls-3" cx="52.77" cy="31.81" r="3.3"/></svg>