<?xml version="1.0" encoding="utf-8"?>
<!-- Generator: Adobe Illustrator 22.1.0, SVG Export Plug-In . SVG Version: 6.00 Build 0)  -->
<svg version="1.1" id="Calque_1" xmlns="http://www.w3.org/2000/svg" xmlns:xlink="http://www.w3.org/1999/xlink" x="0px" y="0px"
	 viewBox="0 0 71.4 71.4" style="enable-background:new 0 0 71.4 71.4;" xml:space="preserve">
<style type="text/css">
	.st0{fill:#33CCFF;}
	.st1{fill:url(#SVGID_1_);}
	.st2{fill:url(#SVGID_2_);}
	.st3{fill:#FFFFFF;}
	.st4{fill:url(#SVGID_3_);}
	.st5{fill:url(#SVGID_4_);}
	.st6{fill:url(#SVGID_5_);}
	.st7{fill:url(#SVGID_6_);}
	.st8{fill:url(#SVGID_7_);}
	.st9{fill:url(#SVGID_8_);}
	.st10{fill:url(#SVGID_9_);}
	.st11{fill:url(#SVGID_10_);}
	.st12{fill:#DD565A;}
	.st13{fill:#58B9E8;}
	.st14{fill:#FCEA1E;}
	.st15{fill:url(#SVGID_11_);}
	.st16{fill:url(#SVGID_12_);}
	.st17{fill:url(#SVGID_13_);}
	.st18{fill:url(#SVGID_14_);}
	.st19{fill:url(#SVGID_15_);}
	.st20{fill:url(#SVGID_16_);}
	.st21{fill:url(#SVGID_17_);}
	.st22{fill:url(#SVGID_18_);}
	.st23{fill:url(#SVGID_19_);}
	.st24{fill:url(#SVGID_20_);}
	.st25{fill:url(#SVGID_21_);}
	.st26{fill:url(#SVGID_22_);}
	.st27{fill:#E73C4C;}
	.st28{fill:#73B964;}
	.st29{fill:#40BAEC;}
	.st30{fill:url(#SVGID_23_);}
	.st31{fill:url(#SVGID_24_);}
	.st32{fill:url(#SVGID_25_);}
	.st33{fill:url(#SVGID_26_);}
	.st34{fill:url(#SVGID_27_);}
	.st35{fill:url(#SVGID_28_);}
	.st36{fill:url(#SVGID_29_);}
	.st37{fill:url(#SVGID_30_);}
	.st38{fill:url(#SVGID_31_);}
	.st39{fill:url(#SVGID_32_);}
	.st40{fill:url(#SVGID_33_);}
	.st41{fill:url(#SVGID_34_);}
	.st42{fill:url(#SVGID_35_);}
	.st43{fill:url(#SVGID_36_);}
	.st44{fill:url(#SVGID_37_);}
	.st45{fill:url(#SVGID_38_);}
	.st46{fill:url(#SVGID_39_);}
	.st47{fill:url(#SVGID_40_);}
	.st48{fill:url(#SVGID_41_);}
	.st49{fill:url(#SVGID_42_);}
	.st50{fill:url(#SVGID_43_);}
	.st51{fill:url(#SVGID_44_);}
	.st52{fill:url(#SVGID_45_);}
	.st53{fill:url(#SVGID_46_);}
	.st54{fill:url(#SVGID_47_);}
	.st55{fill:url(#SVGID_48_);}
	.st56{fill:url(#SVGID_49_);}
	.st57{fill:url(#SVGID_50_);}
	.st58{fill:url(#SVGID_51_);}
	.st59{fill:#CCCCCC;}
	.st60{fill:url(#SVGID_52_);}
	.st61{fill:url(#SVGID_53_);}
	.st62{fill:url(#SVGID_54_);}
	.st63{fill:url(#SVGID_55_);}
	.st64{fill:url(#SVGID_56_);}
	.st65{fill:url(#SVGID_57_);}
	.st66{fill:url(#SVGID_58_);}
	.st67{fill:url(#SVGID_59_);}
	.st68{fill:url(#SVGID_60_);}
	.st69{fill:none;stroke:url(#SVGID_61_);stroke-width:2;stroke-linecap:round;stroke-linejoin:round;stroke-miterlimit:10;}
	.st70{fill:none;stroke:url(#SVGID_62_);stroke-width:2;stroke-linecap:round;stroke-linejoin:round;stroke-miterlimit:10;}
	.st71{fill:none;stroke:url(#SVGID_63_);stroke-width:2;stroke-linecap:round;stroke-linejoin:round;stroke-miterlimit:10;}
	.st72{fill:none;stroke:url(#SVGID_64_);stroke-width:2;stroke-linecap:round;stroke-linejoin:round;stroke-miterlimit:10;}
	.st73{fill:none;stroke:url(#SVGID_65_);stroke-width:2;stroke-linecap:round;stroke-linejoin:round;stroke-miterlimit:10;}
	.st74{fill:none;stroke:url(#SVGID_66_);stroke-width:2;stroke-linecap:round;stroke-linejoin:round;stroke-miterlimit:10;}
	.st75{fill:url(#SVGID_67_);}
	.st76{fill:#383D6D;}
	.st77{fill:url(#SVGID_68_);}
	.st78{fill:url(#SVGID_69_);}
	.st79{fill:url(#SVGID_70_);}
	.st80{fill:url(#SVGID_71_);}
	.st81{fill:url(#SVGID_72_);}
	.st82{fill:url(#SVGID_73_);}
	.st83{fill:url(#SVGID_74_);}
	.st84{fill:url(#SVGID_75_);}
	.st85{fill:url(#SVGID_76_);}
	.st86{fill:url(#SVGID_77_);}
	.st87{fill:url(#SVGID_78_);}
	.st88{fill:url(#SVGID_79_);}
	.st89{fill:url(#SVGID_80_);}
	.st90{fill:url(#SVGID_81_);}
	.st91{fill:url(#SVGID_82_);}
	.st92{fill:url(#SVGID_83_);}
	.st93{fill:url(#SVGID_84_);}
	.st94{fill:url(#SVGID_85_);}
	.st95{fill:url(#SVGID_86_);}
	.st96{fill:url(#SVGID_87_);}
	.st97{fill:url(#SVGID_88_);}
	.st98{fill:url(#SVGID_89_);}
	.st99{fill:url(#SVGID_90_);}
	.st100{fill:url(#SVGID_91_);}
	.st101{fill:url(#SVGID_92_);}
	.st102{fill:url(#SVGID_93_);}
	.st103{fill:url(#SVGID_94_);}
	.st104{fill:url(#SVGID_95_);}
	.st105{fill:url(#SVGID_96_);}
	.st106{fill:url(#SVGID_97_);}
	.st107{fill:url(#SVGID_98_);}
	.st108{fill:url(#SVGID_99_);}
	.st109{fill:url(#SVGID_100_);}
	.st110{fill:url(#SVGID_101_);}
	.st111{fill:url(#SVGID_102_);}
	.st112{fill:url(#SVGID_103_);}
	.st113{fill:url(#SVGID_104_);}
</style>
<g>
	<path class="st12" d="M20.1,41.2l3.6-2.8c-0.1-0.5-0.1-1.1-0.1-1.7s0.1-1.1,0.1-1.7l-3.6-2.8c-0.3-0.3-0.4-0.7-0.2-1.1l3.4-5.9
		c0.2-0.4,0.7-0.5,1-0.4l4.3,1.7c0.9-0.7,1.8-1.2,2.9-1.7l0.6-4.5c0.1-0.4,0.4-0.7,0.8-0.7h6.8c0.4,0,0.8,0.3,0.9,0.7l0.6,4.5
		c1,0.4,2,1,2.9,1.7l0.9-0.4v-6.7c0-5-4-9-9-9h-17c-5,0-9,4-9,9v17c0,5,4,9,9,9h2.5l-1.8-3.2C19.6,41.9,19.7,41.4,20.1,41.2z"/>
	<path class="st13" d="M53.7,27.9h-2.5l1.8,3.2c0.2,0.4,0.1,0.8-0.2,1.1L49.1,35c0.1,0.5,0.1,1.1,0.1,1.7s0,1.1-0.1,1.7l3.6,2.8
		c0.3,0.3,0.4,0.7,0.2,1.1l-3.4,5.9c-0.2,0.4-0.7,0.5-1,0.4l-4.3-1.7c-0.9,0.7-1.8,1.2-2.9,1.7l-0.6,4.5c0,0.4-0.4,0.7-0.8,0.7H33
		c-0.4,0-0.8-0.3-0.9-0.7l-0.6-4.5c-1-0.4-2-1-2.9-1.7l-0.9,0.4V54c0,5,4,9,9,9h17c5,0,9-4,9-9v-17C62.6,32,58.6,27.9,53.7,27.9z"/>
	<circle class="st14" cx="36.4" cy="36.7" r="6.4"/>
	<linearGradient id="SVGID_1_" gradientUnits="userSpaceOnUse" x1="-3.1217" y1="26.3385" x2="7.3813" y2="26.3385">
		<stop  offset="7.431402e-04" style="stop-color:#39A7DF"/>
		<stop  offset="1" style="stop-color:#29265B"/>
	</linearGradient>
	<path class="st1" d="M51.1,27.9l-1.6-2.8c-0.2-0.4-0.7-0.5-1-0.4l-3.3,1.3v1.8H51.1z"/>
	<linearGradient id="SVGID_2_" gradientUnits="userSpaceOnUse" x1="-3.1217" y1="47.0353" x2="7.3813" y2="47.0353">
		<stop  offset="7.431402e-04" style="stop-color:#39A7DF"/>
		<stop  offset="1" style="stop-color:#29265B"/>
	</linearGradient>
	<path class="st2" d="M21.7,45.4l1.6,2.8c0.2,0.4,0.7,0.5,1,0.4l3.3-1.3v-1.8H21.7z"/>
	<path class="st12" d="M27.6,36.9c0-5,4-9,9-9h8.5v-1.8l-0.9,0.4c-0.9-0.7-1.8-1.2-2.9-1.7l-0.6-4.5c-0.1-0.4-0.4-0.7-0.9-0.7H33
		c-0.4,0-0.8,0.3-0.8,0.7l-0.6,4.5c-1,0.4-2,1-2.9,1.7l-4.3-1.7c-0.4-0.1-0.8,0-1,0.4l-3.4,5.9c-0.2,0.4-0.1,0.8,0.2,1.1l3.6,2.8
		c-0.1,0.5-0.1,1.1-0.1,1.7s0,1.1,0.1,1.7l-3.6,2.8c-0.3,0.3-0.4,0.7-0.2,1.1l1.8,3.2h6V36.9z"/>
	<linearGradient id="SVGID_3_" gradientUnits="userSpaceOnUse" x1="-3.1217" y1="32.4995" x2="7.3813" y2="32.4995">
		<stop  offset="7.431402e-04" style="stop-color:#39A7DF"/>
		<stop  offset="1" style="stop-color:#29265B"/>
	</linearGradient>
	<path class="st4" d="M27.6,36.9c0-5,4-9,9-9h8.5v-1.8l-0.9,0.4c-0.9-0.7-1.8-1.2-2.9-1.7l-0.6-4.5c-0.1-0.4-0.4-0.7-0.9-0.7H33
		c-0.4,0-0.8,0.3-0.8,0.7l-0.6,4.5c-1,0.4-2,1-2.9,1.7l-4.3-1.7c-0.4-0.1-0.8,0-1,0.4l-3.4,5.9c-0.2,0.4-0.1,0.8,0.2,1.1l3.6,2.8
		c-0.1,0.5-0.1,1.1-0.1,1.7s0,1.1,0.1,1.7l-3.6,2.8c-0.3,0.3-0.4,0.7-0.2,1.1l1.8,3.2h6V36.9z"/>
	<path class="st13" d="M31.5,48.5l0.6,4.5c0.1,0.4,0.4,0.7,0.9,0.7h6.8c0.4,0,0.8-0.3,0.8-0.7l0.6-4.5c1-0.4,2-1,2.9-1.7l4.3,1.7
		c0.4,0.1,0.8,0,1-0.4l3.4-5.9c0.2-0.4,0.1-0.8-0.2-1.1l-3.6-2.8c0.1-0.5,0.1-1.1,0.1-1.7s0-1.1-0.1-1.7l3.6-2.8
		c0.3-0.3,0.4-0.7,0.2-1.1l-1.8-3.2h-6v8.5c0,5-4,9-9,9h-8.5v1.8l0.9-0.4C29.5,47.6,30.4,48.1,31.5,48.5z"/>
	<linearGradient id="SVGID_4_" gradientUnits="userSpaceOnUse" x1="-3.1217" y1="40.8743" x2="7.3813" y2="40.8743">
		<stop  offset="7.431402e-04" style="stop-color:#39A7DF"/>
		<stop  offset="1" style="stop-color:#29265B"/>
	</linearGradient>
	<path class="st5" d="M31.5,48.5l0.6,4.5c0.1,0.4,0.4,0.7,0.9,0.7h6.8c0.4,0,0.8-0.3,0.8-0.7l0.6-4.5c1-0.4,2-1,2.9-1.7l4.3,1.7
		c0.4,0.1,0.8,0,1-0.4l3.4-5.9c0.2-0.4,0.1-0.8-0.2-1.1l-3.6-2.8c0.1-0.5,0.1-1.1,0.1-1.7s0-1.1-0.1-1.7l3.6-2.8
		c0.3-0.3,0.4-0.7,0.2-1.1l-1.8-3.2h-6v8.5c0,5-4,9-9,9h-8.5v1.8l0.9-0.4C29.5,47.6,30.4,48.1,31.5,48.5z"/>
	<path class="st14" d="M27.6,36.9v8.5h8.5c5,0,9-4,9-9v-8.5h-8.5C31.7,27.9,27.6,32,27.6,36.9z M42.8,36.7c0,3.5-2.9,6.4-6.4,6.4
		S30,40.2,30,36.7s2.9-6.4,6.4-6.4S42.8,33.2,42.8,36.7z"/>
	<linearGradient id="SVGID_5_" gradientUnits="userSpaceOnUse" x1="-3.1217" y1="36.6869" x2="7.3813" y2="36.6869">
		<stop  offset="7.431402e-04" style="stop-color:#39A7DF"/>
		<stop  offset="1" style="stop-color:#29265B"/>
	</linearGradient>
	<path class="st6" d="M27.6,36.9v8.5h8.5c5,0,9-4,9-9v-8.5h-8.5C31.7,27.9,27.6,32,27.6,36.9z M42.8,36.7c0,3.5-2.9,6.4-6.4,6.4
		S30,40.2,30,36.7s2.9-6.4,6.4-6.4S42.8,33.2,42.8,36.7z"/>
</g>
</svg>
