<svg id="Calque_1" data-name="Calque 1" xmlns="http://www.w3.org/2000/svg" viewBox="0 0 71.37 71.37"><defs><style>.cls-1{fill:#dd565a;}.cls-2{fill:#58b9e8;}.cls-3{fill:#fcea1e;}</style></defs><title>chat</title><path class="cls-1" d="M36.62,26.94h8.52V18.42a9,9,0,0,0-9-9h-17a9,9,0,0,0-9,9v17a9,9,0,0,0,9,9h8.52V35.91A9,9,0,0,1,36.62,26.94Z"/><path class="cls-2" d="M53.66,26.94H45.14v8.52a9,9,0,0,1-9,9H27.64V53a9,9,0,0,0,9,9h17a9,9,0,0,0,9-9V35.91A9,9,0,0,0,53.66,26.94Z"/><path class="cls-3" d="M45.14,35.46V26.94H36.62a9,9,0,0,0-9,9v8.53h8.52A9,9,0,0,0,45.14,35.46Z"/></svg>