<?xml version="1.0" encoding="utf-8"?>
<!-- Generator: Adobe Illustrator 22.1.0, SVG Export Plug-In . SVG Version: 6.00 Build 0)  -->
<svg version="1.1" id="Calque_1" xmlns="http://www.w3.org/2000/svg" xmlns:xlink="http://www.w3.org/1999/xlink" x="0px" y="0px"
	 viewBox="0 0 71.4 71.4" style="enable-background:new 0 0 71.4 71.4;" xml:space="preserve">
<style type="text/css">
	.st0{fill:#33CCFF;}
	.st1{fill:url(#SVGID_1_);}
	.st2{fill:url(#SVGID_2_);}
	.st3{fill:#FFFFFF;}
	.st4{fill:url(#SVGID_3_);}
	.st5{fill:url(#SVGID_4_);}
	.st6{fill:url(#SVGID_5_);}
	.st7{fill:url(#SVGID_6_);}
	.st8{fill:url(#SVGID_7_);}
	.st9{fill:url(#SVGID_8_);}
	.st10{fill:url(#SVGID_9_);}
	.st11{fill:url(#SVGID_10_);}
	.st12{fill:#DD565A;}
	.st13{fill:#58B9E8;}
	.st14{fill:#FCEA1E;}
	.st15{fill:url(#SVGID_11_);}
	.st16{fill:url(#SVGID_12_);}
	.st17{fill:url(#SVGID_13_);}
	.st18{fill:url(#SVGID_14_);}
	.st19{fill:url(#SVGID_15_);}
	.st20{fill:url(#SVGID_16_);}
	.st21{fill:url(#SVGID_17_);}
	.st22{fill:url(#SVGID_18_);}
	.st23{fill:url(#SVGID_19_);}
	.st24{fill:url(#SVGID_20_);}
	.st25{fill:url(#SVGID_21_);}
	.st26{fill:url(#SVGID_22_);}
	.st27{fill:#E73C4C;}
	.st28{fill:#73B964;}
	.st29{fill:#40BAEC;}
	.st30{fill:url(#SVGID_23_);}
	.st31{fill:url(#SVGID_24_);}
	.st32{fill:url(#SVGID_25_);}
	.st33{fill:url(#SVGID_26_);}
	.st34{fill:url(#SVGID_27_);}
	.st35{fill:url(#SVGID_28_);}
	.st36{fill:url(#SVGID_29_);}
	.st37{fill:url(#SVGID_30_);}
	.st38{fill:url(#SVGID_31_);}
	.st39{fill:url(#SVGID_32_);}
	.st40{fill:url(#SVGID_33_);}
	.st41{fill:url(#SVGID_34_);}
	.st42{fill:url(#SVGID_35_);}
	.st43{fill:url(#SVGID_36_);}
	.st44{fill:url(#SVGID_37_);}
	.st45{fill:url(#SVGID_38_);}
	.st46{fill:url(#SVGID_39_);}
	.st47{fill:url(#SVGID_40_);}
	.st48{fill:url(#SVGID_41_);}
	.st49{fill:url(#SVGID_42_);}
	.st50{fill:url(#SVGID_43_);}
	.st51{fill:url(#SVGID_44_);}
	.st52{fill:url(#SVGID_45_);}
	.st53{fill:url(#SVGID_46_);}
	.st54{fill:url(#SVGID_47_);}
	.st55{fill:url(#SVGID_48_);}
	.st56{fill:url(#SVGID_49_);}
	.st57{fill:url(#SVGID_50_);}
	.st58{fill:url(#SVGID_51_);}
	.st59{fill:#CCCCCC;}
	.st60{fill:url(#SVGID_52_);}
	.st61{fill:url(#SVGID_53_);}
	.st62{fill:url(#SVGID_54_);}
	.st63{fill:url(#SVGID_55_);}
	.st64{fill:url(#SVGID_56_);}
	.st65{fill:url(#SVGID_57_);}
	.st66{fill:url(#SVGID_58_);}
	.st67{fill:url(#SVGID_59_);}
	.st68{fill:url(#SVGID_60_);}
	.st69{fill:none;stroke:url(#SVGID_61_);stroke-width:2;stroke-linecap:round;stroke-linejoin:round;stroke-miterlimit:10;}
	.st70{fill:none;stroke:url(#SVGID_62_);stroke-width:2;stroke-linecap:round;stroke-linejoin:round;stroke-miterlimit:10;}
	.st71{fill:none;stroke:url(#SVGID_63_);stroke-width:2;stroke-linecap:round;stroke-linejoin:round;stroke-miterlimit:10;}
	.st72{fill:none;stroke:url(#SVGID_64_);stroke-width:2;stroke-linecap:round;stroke-linejoin:round;stroke-miterlimit:10;}
	.st73{fill:none;stroke:url(#SVGID_65_);stroke-width:2;stroke-linecap:round;stroke-linejoin:round;stroke-miterlimit:10;}
	.st74{fill:none;stroke:url(#SVGID_66_);stroke-width:2;stroke-linecap:round;stroke-linejoin:round;stroke-miterlimit:10;}
	.st75{fill:url(#SVGID_67_);}
	.st76{fill:#383D6D;}
	.st77{fill:url(#SVGID_68_);}
	.st78{fill:url(#SVGID_69_);}
	.st79{fill:url(#SVGID_70_);}
	.st80{fill:url(#SVGID_71_);}
	.st81{fill:url(#SVGID_72_);}
	.st82{fill:url(#SVGID_73_);}
	.st83{fill:url(#SVGID_74_);}
	.st84{fill:url(#SVGID_75_);}
	.st85{fill:url(#SVGID_76_);}
	.st86{fill:url(#SVGID_77_);}
	.st87{fill:url(#SVGID_78_);}
	.st88{fill:url(#SVGID_79_);}
	.st89{fill:url(#SVGID_80_);}
	.st90{fill:url(#SVGID_81_);}
	.st91{fill:url(#SVGID_82_);}
	.st92{fill:url(#SVGID_83_);}
	.st93{fill:url(#SVGID_84_);}
	.st94{fill:url(#SVGID_85_);}
	.st95{fill:url(#SVGID_86_);}
	.st96{fill:url(#SVGID_87_);}
	.st97{fill:url(#SVGID_88_);}
	.st98{fill:url(#SVGID_89_);}
	.st99{fill:url(#SVGID_90_);}
	.st100{fill:url(#SVGID_91_);}
	.st101{fill:url(#SVGID_92_);}
	.st102{fill:url(#SVGID_93_);}
	.st103{fill:url(#SVGID_94_);}
	.st104{fill:url(#SVGID_95_);}
	.st105{fill:url(#SVGID_96_);}
	.st106{fill:url(#SVGID_97_);}
	.st107{fill:url(#SVGID_98_);}
	.st108{fill:url(#SVGID_99_);}
	.st109{fill:url(#SVGID_100_);}
	.st110{fill:url(#SVGID_101_);}
	.st111{fill:url(#SVGID_102_);}
	.st112{fill:url(#SVGID_103_);}
	.st113{fill:url(#SVGID_104_);}
</style>
<g>
	<path class="st14" d="M38.7,22.5v-9.6c0-1.6-1.3-2.9-2.9-2.9s-2.9,1.3-2.9,2.9v9.6c0.9-0.4,1.9-0.6,2.9-0.6S37.8,22.1,38.7,22.5z"
		/>
	<linearGradient id="SVGID_1_" gradientUnits="userSpaceOnUse" x1="-28.0612" y1="48.4377" x2="-17.6559" y2="48.4377">
		<stop  offset="7.431402e-04" style="stop-color:#39A7DF"/>
		<stop  offset="1" style="stop-color:#29265B"/>
	</linearGradient>
	<path class="st1" d="M32.9,35.2v23.6c0,1.6,1.3,2.9,2.9,2.9s2.9-1.3,2.9-2.9V35.2c-0.9,0.4-1.9,0.6-2.9,0.6S33.8,35.6,32.9,35.2z"
		/>
	<linearGradient id="SVGID_2_" gradientUnits="userSpaceOnUse" x1="-28.0612" y1="53.6889" x2="-17.6559" y2="53.6889">
		<stop  offset="7.431402e-04" style="stop-color:#39A7DF"/>
		<stop  offset="1" style="stop-color:#29265B"/>
	</linearGradient>
	<path class="st2" d="M47.9,45.7v13.1c0,1.6,1.3,2.9,2.9,2.9s2.9-1.3,2.9-2.9V45.7c-0.9,0.4-1.9,0.6-2.9,0.6S48.8,46.1,47.9,45.7z"
		/>
	<path class="st14" d="M53.7,33V12.9c0-1.6-1.3-2.9-2.9-2.9s-2.9,1.3-2.9,2.9V33c0.9-0.4,1.9-0.6,2.9-0.6S52.8,32.6,53.7,33z"/>
	<linearGradient id="SVGID_3_" gradientUnits="userSpaceOnUse" x1="-28.0612" y1="56.9864" x2="-17.6559" y2="56.9864">
		<stop  offset="7.431402e-04" style="stop-color:#39A7DF"/>
		<stop  offset="1" style="stop-color:#29265B"/>
	</linearGradient>
	<path class="st4" d="M17.8,52.3v6.5c0,1.6,1.3,2.9,2.9,2.9c1.6,0,2.9-1.3,2.9-2.9v-6.5c-0.9,0.4-1.9,0.6-2.9,0.6
		S18.7,52.7,17.8,52.3z"/>
	<path class="st14" d="M23.6,39.6V12.9c0-1.6-1.3-2.9-2.9-2.9c-1.6,0-2.9,1.3-2.9,2.9v26.7c0.9-0.4,1.9-0.6,2.9-0.6
		S22.7,39.2,23.6,39.6z"/>
	<path class="st13" d="M57.8,39.3c0-2.8-1.7-5.3-4.1-6.4c-0.9-0.4-1.9-0.6-2.9-0.6s-2,0.2-2.9,0.6c-2.4,1.1-4.1,3.5-4.1,6.4
		s1.7,5.3,4.1,6.4c0.9,0.4,1.9,0.6,2.9,0.6s2-0.2,2.9-0.6C56.1,44.6,57.8,42.2,57.8,39.3z"/>
	<path class="st12" d="M38.7,22.5c-0.9-0.4-1.9-0.6-2.9-0.6s-2,0.2-2.9,0.6c-2.4,1.1-4.1,3.5-4.1,6.4s1.7,5.3,4.1,6.4
		c0.9,0.4,1.9,0.6,2.9,0.6s2-0.2,2.9-0.6c2.4-1.1,4.1-3.5,4.1-6.4S41.1,23.6,38.7,22.5z"/>
	<path class="st13" d="M23.6,39.6c-0.9-0.4-1.9-0.6-2.9-0.6s-2,0.2-2.9,0.6c-2.4,1.1-4.1,3.5-4.1,6.4s1.7,5.3,4.1,6.4
		c0.9,0.4,1.9,0.6,2.9,0.6s2-0.2,2.9-0.6c2.4-1.1,4.1-3.5,4.1-6.4S26,40.7,23.6,39.6z"/>
</g>
</svg>
