<svg id="Calque_1" data-name="Calque 1" xmlns="http://www.w3.org/2000/svg" xmlns:xlink="http://www.w3.org/1999/xlink" viewBox="0 0 71.37 71.37"><defs><style>.cls-1{fill:url(#Dégradé_sans_nom_9);}.cls-2{fill:url(#Dégradé_sans_nom_9-2);}.cls-3{fill:#58b9e8;}.cls-4{fill:#fcea1e;}</style><linearGradient id="Dégradé_sans_nom_9" x1="-27.04" y1="-4.07" x2="-17.42" y2="5.55" gradientUnits="userSpaceOnUse"><stop offset="0" stop-color="#39a7df"/><stop offset="1" stop-color="#29265b"/></linearGradient><linearGradient id="Dégradé_sans_nom_9-2" x1="4.37" y1="-96.95" x2="13.99" y2="-87.33" gradientTransform="matrix(1, 0, 0.14, 1, -77.62, 0)" xlink:href="#Dégradé_sans_nom_9"/></defs><title>chat</title><path class="cls-1" d="M8.65,17.89a2.52,2.52,0,0,0-2.55,3l4.67,33.77.06.28,5.2-37Z"/><path class="cls-2" d="M40.54,23H56.66l-.29-2.12a3.53,3.53,0,0,0-3.38-3H38l.7,3.62A1.79,1.79,0,0,0,40.54,23Z"/><path class="cls-3" d="M63.43,23H40.54a1.79,1.79,0,0,1-1.83-1.47l-1.46-7.57a1.81,1.81,0,0,0-1.84-1.47H18.94a2.56,2.56,0,0,0-2.45,2.15L10.75,55.44a1.83,1.83,0,0,0,1.85,2.15h46A2.56,2.56,0,0,0,61,55.44l4.26-30.31A1.82,1.82,0,0,0,63.43,23Z"/><path class="cls-4" d="M45,41.62l-6.9,6.9a1,1,0,0,1-1.36,0l-6.9-6.9A1,1,0,0,1,30.51,40h4.05a1,1,0,0,0,1-1V31.8a1,1,0,0,1,1-1h1.84a1,1,0,0,1,1,1V39a1,1,0,0,0,1,1h4.05A1,1,0,0,1,45,41.62Z"/></svg>