<svg id="Calque_1" data-name="Calque 1" xmlns="http://www.w3.org/2000/svg" viewBox="0 0 71.37 71.37"><defs><style>.cls-1{fill:#dd565a;}.cls-2{fill:#fcea1e;}</style></defs><title>chat</title><circle class="cls-1" cx="29.45" cy="35.56" r="23.97"/><circle class="cls-2" cx="29.29" cy="26.24" r="2.9"/><circle class="cls-2" cx="29.29" cy="35.56" r="2.9"/><circle class="cls-2" cx="29.29" cy="44.89" r="2.9"/><path class="cls-2" d="M63,23.34a2.9,2.9,0,0,1,0,5.79H38.55a2.9,2.9,0,1,1,0-5.79"/><path class="cls-2" d="M63,32.67a2.9,2.9,0,0,1,0,5.79H38.55a2.9,2.9,0,1,1,0-5.79"/><path class="cls-2" d="M63,42a2.9,2.9,0,0,1,0,5.8H38.55a2.9,2.9,0,0,1,0-5.8"/></svg>