<svg id="Calque_1" data-name="Calque 1" xmlns="http://www.w3.org/2000/svg" xmlns:xlink="http://www.w3.org/1999/xlink" viewBox="0 0 71.37 71.37"><defs><style>.cls-1{fill:#fff;}.cls-2{fill:url(#Dégradé_sans_nom_9);}.cls-3{fill:#383d6d;}.cls-4{fill:#fcea1e;}.cls-5{fill:#58b9e8;}</style><linearGradient id="Dégradé_sans_nom_9" x1="1.69" y1="0.26" x2="10.46" y2="9.04" gradientUnits="userSpaceOnUse"><stop offset="0" stop-color="#39a7df"/><stop offset="1" stop-color="#29265b"/></linearGradient></defs><title>chat</title><path class="cls-1" d="M37.89,18.29a4.53,4.53,0,1,0,4.53,4.53A4.53,4.53,0,0,0,37.89,18.29Zm0,6.07a1.54,1.54,0,1,1,1.54-1.54A1.55,1.55,0,0,1,37.89,24.36Z"/><path class="cls-2" d="M46.77,34.11A13.53,13.53,0,0,1,58.6,31.47a1.28,1.28,0,0,0,1.51-1.71c-1.25-3.37-4.51-4.68-6.84-5.2l-.55-.1a6.41,6.41,0,0,0-3,.14c-1.48.57-2.2-1.87.35-2.25a5,5,0,0,1,1.69,0c-.51-2.53-1.72-6.24-4.59-8.67a10.49,10.49,0,0,0-6-2.44,16,16,0,0,0-12.23,4.28c-3.57,3.24-5.24,8-6.78,12.47s-3.05,8.77-4.57,13.16l.58-.21c.41-.13.83-.26,1.27-.38h0l1.14-.22.16,0c.5-.08,1-.15,1.49-.21h.14q.78-.09,1.53-.12h0c.5,0,1,0,1.47,0h.16a11.5,11.5,0,0,1,1.33.17l.2,0a11.78,11.78,0,0,1,1.2.33l.19.07a6.76,6.76,0,0,1,1.08.53l.15.09a5.73,5.73,0,0,1,.94.75.81.81,0,0,1,.09.1,5.18,5.18,0,0,1,.79,1c1.93,3.3,1.16,9.8-.18,15.59l-.18.73c-.15.65-.32,1.29-.48,1.91.23.06.46.1.7.15a33.67,33.67,0,0,0,14.55-.24h0a2.59,2.59,0,0,0,1.71-3.7c-1.75-3.42-4.49-7.38-5.19-10.16A13.45,13.45,0,0,1,46.77,34.11Zm-8.88-6.76a4.53,4.53,0,1,1,4.53-4.53A4.53,4.53,0,0,1,37.89,27.35Z"/><path class="cls-3" d="M37.89,21.28a1.54,1.54,0,1,0,1.54,1.54A1.55,1.55,0,0,0,37.89,21.28Z"/><path class="cls-4" d="M50.08,22.35c-2.55.38-1.83,2.82-.35,2.25a6.41,6.41,0,0,1,3-.14l.55.1.18,0a1.93,1.93,0,0,0-1.68-2.24A5,5,0,0,0,50.08,22.35Z"/><path class="cls-5" d="M31.34,58.71c1.34-5.79,2.11-12.29.18-15.59a5.18,5.18,0,0,0-.79-1,.81.81,0,0,0-.09-.1,5.73,5.73,0,0,0-.94-.75l-.15-.09a6.76,6.76,0,0,0-1.08-.53l-.19-.07a11.78,11.78,0,0,0-1.2-.33l-.2,0A11.5,11.5,0,0,0,25.55,40h-.16c-.48,0-1,0-1.47,0h0q-.75,0-1.53.12h-.14c-.5.06-1,.13-1.49.21l-.16,0-1.14.22h0c-.44.12-.86.25-1.27.38l-.58.21A26.13,26.13,0,0,0,14,42.67a5.17,5.17,0,0,0-1.49,8l0,0h0l.15.16,1.53,1.62a33.9,33.9,0,0,0,13,8,32.57,32.57,0,0,0,3.46.93c.16-.62.33-1.26.48-1.91Z"/></svg>