<svg id="Calque_1" data-name="Calque 1" xmlns="http://www.w3.org/2000/svg" viewBox="0 0 71.37 71.37"><defs><style>.cls-1{fill:#73b964;}.cls-2{fill:#fcea1e;}</style></defs><title>chat</title><path class="cls-1" d="M64.82,19.44a6.5,6.5,0,0,0-6.5-6.5h-44a6.5,6.5,0,0,0-6.5,6.5v1.41H64.82Z"/><path class="cls-1" d="M7.77,43.35a6.5,6.5,0,0,0,6.5,6.5H58.32a6.5,6.5,0,0,0,6.5-6.5V26h-57Zm4.71-10.83a1.21,1.21,0,0,1,1.21-1.21h4.08A1.21,1.21,0,0,1,19,32.52v4.09a1.21,1.21,0,0,1-1.21,1.2H13.69a1.21,1.21,0,0,1-1.21-1.2Z"/><path class="cls-2" d="M40,50.72a1.76,1.76,0,0,1-1.24-.52l-5-5a1.76,1.76,0,0,1,2.48-2.49L40,46.47,47,39.41a1.75,1.75,0,0,1,2.48,2.48L41.2,50.2A1.76,1.76,0,0,1,40,50.72Z"/><path class="cls-2" d="M41.62,58.43A14.4,14.4,0,1,1,56,44,14.41,14.41,0,0,1,41.62,58.43Zm0-25.28A10.89,10.89,0,1,0,52.5,44,10.9,10.9,0,0,0,41.62,33.15Z"/></svg>