<svg id="Calque_1" data-name="Calque 1" xmlns="http://www.w3.org/2000/svg" viewBox="0 0 71.37 71.37"><defs><style>.cls-1{fill:#73b964;}.cls-2{fill:#fcea1e;}</style></defs><title>chat</title><path class="cls-1" d="M67.24,30.94A23.8,23.8,0,1,0,41.07,54.62a2.66,2.66,0,0,1,2.37,2.65v4.44a1.19,1.19,0,0,0,2,.85L60.15,47.88l.23-.23.09-.09h0A23.71,23.71,0,0,0,67.24,30.94Z"/><circle class="cls-2" cx="28.63" cy="31.02" r="24.32"/><path class="cls-1" d="M28.61,11a20,20,0,1,0,20,20A20,20,0,0,0,28.61,11ZM42.46,23h-5.9a31.74,31.74,0,0,0-2.75-7.12A16.07,16.07,0,0,1,42.46,23ZM28.63,15.11A28.17,28.17,0,0,1,32.45,23H24.81A28.17,28.17,0,0,1,28.63,15.11ZM13.16,35a15.64,15.64,0,0,1,0-8h6.75a33,33,0,0,0-.28,4,33,33,0,0,0,.28,4Zm1.64,4h5.89a31,31,0,0,0,2.76,7.11A15.9,15.9,0,0,1,14.8,39Zm5.89-16H14.8a15.92,15.92,0,0,1,8.65-7.12A31.3,31.3,0,0,0,20.69,23Zm7.94,23.9A28,28,0,0,1,24.81,39h7.64A28,28,0,0,1,28.63,46.93ZM33.31,35H24a29.43,29.43,0,0,1-.32-4A29.17,29.17,0,0,1,24,27h9.36a29.17,29.17,0,0,1,.32,4A29.43,29.43,0,0,1,33.31,35Zm.5,11.11A31.48,31.48,0,0,0,36.56,39h5.9A16.06,16.06,0,0,1,33.81,46.13ZM37.34,35a33,33,0,0,0,.28-4,33,33,0,0,0-.28-4H44.1a15.64,15.64,0,0,1,0,8Z"/></svg>