<?xml version="1.0" encoding="iso-8859-1"?>
<!-- Generator: Adobe Illustrator 16.0.0, SVG Export Plug-In . SVG Version: 6.00 Build 0)  -->
<!DOCTYPE svg PUBLIC "-//W3C//DTD SVG 1.1//EN" "http://www.w3.org/Graphics/SVG/1.1/DTD/svg11.dtd">
<svg version="1.1" id="Capa_1" xmlns="http://www.w3.org/2000/svg" xmlns:xlink="http://www.w3.org/1999/xlink" x="0px" y="0px"
	 width="612px" height="612px" viewBox="0 0 612 612" style="enable-background:new 0 0 612 612;" xml:space="preserve">
<g>
	<path d="M368.811,166.137C368.811,32.902,331.467,0,306,0s-62.81,32.902-62.81,166.137L35.617,311.504
		c-2.392,1.675-4.35,5.435-4.35,8.355v55.882c0,6.993,5.586,11.475,12.413,9.959l198.414-44.062
		c7.518,59,20.252,111.779,28.377,165.995l-76.076,58.677c-2.125,1.685-3.863,5.281-3.863,7.992v27.134
		c0,8.644,6.46,12.837,14.355,9.316L306,565.67l101.111,45.083c7.896,3.521,14.355-0.673,14.355-9.316v-27.134
		c0-2.711-1.738-6.308-3.861-7.992l-76.076-58.677c8.123-54.216,20.857-106.996,28.377-165.995l198.414,44.061
		c6.826,1.517,12.412-2.965,12.412-9.959v-55.882c0-2.921-1.957-6.682-4.35-8.356L368.811,166.137z M306,61.507
		c-12.815,0-24.89,2.822-35.669,7.71C274.176,54.244,288.638,43.07,306,43.07c17.363,0,31.824,11.173,35.667,26.147
		C330.891,64.328,318.814,61.507,306,61.507z"/>
</g>
<g>
</g>
<g>
</g>
<g>
</g>
<g>
</g>
<g>
</g>
<g>
</g>
<g>
</g>
<g>
</g>
<g>
</g>
<g>
</g>
<g>
</g>
<g>
</g>
<g>
</g>
<g>
</g>
<g>
</g>
</svg>
