<?xml version="1.0" encoding="iso-8859-1"?>
<!-- Generator: Adobe Illustrator 16.0.0, SVG Export Plug-In . SVG Version: 6.00 Build 0)  -->
<!DOCTYPE svg PUBLIC "-//W3C//DTD SVG 1.1//EN" "http://www.w3.org/Graphics/SVG/1.1/DTD/svg11.dtd">
<svg version="1.1" id="Capa_1" xmlns="http://www.w3.org/2000/svg" xmlns:xlink="http://www.w3.org/1999/xlink" x="0px" y="0px"
	 width="612px" height="612px" viewBox="0 0 612 612" style="enable-background:new 0 0 612 612;" xml:space="preserve">
<g>
	<path d="M464.034,331.212l-4.346,12.898l-172.024-58.518c-0.748,0.068-1.494,0.136-2.241,0.136s-1.494-0.136-2.241-0.136
		l-172.161,58.519l-4.345-12.898l156.003-53.02c-0.407-0.271-0.882-0.543-1.29-0.814c-9.233-7.399-14.528-18.33-14.528-30.142
		c0-5.567,4.548-10.183,10.183-10.183c5.634,0,10.183,4.616,10.183,10.183s2.512,10.726,6.857,14.188
		c4.413,3.53,9.979,4.752,15.682,3.462c6.449-1.494,11.744-6.789,13.238-13.238c1.086-5.023,0.271-10.046-2.376-14.188
		c-2.647-4.073-6.925-6.992-11.676-7.943c-7.943-1.629-13.782-8.622-13.782-16.633v-23.081c3.258,0.747,6.652,1.154,10.183,1.154
		c3.53,0,6.925-0.407,10.183-1.154v20.366c9.098,2.444,17.04,8.282,22.199,16.225c5.635,8.826,7.468,19.416,5.092,29.802
		c-2.036,8.961-7.331,16.768-14.528,22.063L464.034,331.212z M506.065,377.724v213.91c0,11.248-9.118,20.366-20.366,20.366H85.034
		c-11.248,0-20.366-9.118-20.366-20.366v-213.91c0-11.247,9.118-20.365,20.366-20.365h400.665
		C496.947,357.358,506.065,366.477,506.065,377.724z M151.7,420.082c0-5.687-4.611-10.298-10.298-10.298h-0.208
		c-5.687,0-10.298,4.611-10.298,10.298v129.193c0,5.688,4.61,10.299,10.298,10.299h0.208c5.687,0,10.298-4.611,10.298-10.299
		V420.082z M247.746,420.082c0-5.687-4.61-10.298-10.297-10.298h-0.208c-5.687,0-10.298,4.611-10.298,10.298v129.193
		c0,5.688,4.611,10.299,10.298,10.299h0.208c5.687,0,10.297-4.611,10.297-10.299V420.082z M343.792,420.082
		c0-5.687-4.61-10.298-10.298-10.298h-0.208c-5.688,0-10.299,4.611-10.299,10.298v129.193c0,5.688,4.611,10.299,10.299,10.299h0.208
		c5.688,0,10.298-4.611,10.298-10.299V420.082z M439.836,420.082c0-5.687-4.61-10.298-10.298-10.298h-0.208
		c-5.688,0-10.298,4.611-10.298,10.298v129.193c0,5.688,4.61,10.299,10.298,10.299h0.208c5.688,0,10.298-4.611,10.298-10.299
		V420.082z M319.147,143.573c0,18.657-15.124,33.781-33.781,33.781c-18.656,0-33.781-15.124-33.781-33.781
		s15.125-33.781,33.781-33.781C304.023,109.792,319.147,124.916,319.147,143.573z M302.256,143.573c0-9.328-7.562-16.89-16.89-16.89
		c-9.328,0-16.891,7.562-16.891,16.89c0,9.329,7.563,16.891,16.891,16.891C294.694,160.463,302.256,152.901,302.256,143.573z
		 M469.977,59.52c-6.311,9.701-16.069,16.921-27.532,19.976l76.182,107.085l28.705-18.125L469.977,59.52z M385.624,49.415
		l-76.576,53.155c9.776,5.635,17.379,14.731,21.045,25.526l77.527-52.749C397.436,69.78,389.561,60.547,385.624,49.415z
		 M464.06,33.781c0,18.657-15.124,33.781-33.78,33.781s-33.781-15.124-33.781-33.781S411.624,0,430.28,0
		S464.06,15.124,464.06,33.781z M447.169,33.781c0-9.328-7.562-16.89-16.89-16.89s-16.891,7.562-16.891,16.89
		c0,9.329,7.562,16.891,16.891,16.891S447.169,43.108,447.169,33.781z"/>
</g>
<g>
</g>
<g>
</g>
<g>
</g>
<g>
</g>
<g>
</g>
<g>
</g>
<g>
</g>
<g>
</g>
<g>
</g>
<g>
</g>
<g>
</g>
<g>
</g>
<g>
</g>
<g>
</g>
<g>
</g>
</svg>
