<?xml version="1.0" encoding="iso-8859-1"?>
<!-- Generator: Adobe Illustrator 16.0.0, SVG Export Plug-In . SVG Version: 6.00 Build 0)  -->
<!DOCTYPE svg PUBLIC "-//W3C//DTD SVG 1.1//EN" "http://www.w3.org/Graphics/SVG/1.1/DTD/svg11.dtd">
<svg version="1.1" id="Capa_1" xmlns="http://www.w3.org/2000/svg" xmlns:xlink="http://www.w3.org/1999/xlink" x="0px" y="0px"
	 width="612px" height="612px" viewBox="0 0 612 612" style="enable-background:new 0 0 612 612;" xml:space="preserve">
<g>
	<path d="M531.091,287.197l-222.104-75.516c-0.981,0.057-1.968,0.166-2.944,0.166c-0.952,0-1.88-0.182-2.825-0.236L80.911,287.197
		l-5.65-16.599l201.407-68.483c-0.529-0.389-1.114-0.676-1.63-1.088c-11.908-9.494-18.73-23.653-18.73-38.865
		c0-7.259,5.89-13.149,13.148-13.149c7.259,0,13.149,5.89,13.149,13.149c0,7.157,3.219,13.833,8.826,18.303
		c5.71,4.545,12.883,6.129,20.254,4.443c8.305-1.9,15.161-8.749,17.062-17.061c1.473-6.48,0.386-12.995-3.073-18.354
		c-3.416-5.291-8.877-9.032-14.998-10.264c-10.323-2.08-17.823-11.112-17.823-21.478V86.47C261.647,73.653,252.979,17.122,252,9.939
		L250.657,0h110.688L360,9.939c-0.979,7.183-9.646,63.713-40.852,76.531v27.762c11.702,3.219,21.992,10.735,28.618,21
		c7.337,11.359,9.682,25.022,6.609,38.471c-2.643,11.597-9.483,21.637-18.786,28.501l201.15,68.396L531.091,287.197z
		 M542.681,331.489v245.447h26.298V612H43.021v-35.063h26.298V331.489H43.021v-35.064h525.958v35.064H542.681z M165.745,340.255
		h-17.532c-4.842,0-8.766,3.925-8.766,8.767v210.383c0,4.842,3.924,8.767,8.766,8.767h17.532c4.842,0,8.766-3.925,8.766-8.767
		V349.021C174.511,344.18,170.586,340.255,165.745,340.255z M314.767,340.255h-17.533c-4.842,0-8.766,3.925-8.766,8.767v210.383
		c0,4.842,3.924,8.767,8.766,8.767h17.533c4.841,0,8.766-3.925,8.766-8.767V349.021C323.533,344.18,319.608,340.255,314.767,340.255
		z M472.554,340.255h-17.532c-4.841,0-8.767,3.925-8.767,8.767v210.383c0,4.842,3.925,8.767,8.767,8.767h17.532
		c4.841,0,8.766-3.925,8.766-8.767V349.021C481.32,344.18,477.395,340.255,472.554,340.255z"/>
</g>
<g>
</g>
<g>
</g>
<g>
</g>
<g>
</g>
<g>
</g>
<g>
</g>
<g>
</g>
<g>
</g>
<g>
</g>
<g>
</g>
<g>
</g>
<g>
</g>
<g>
</g>
<g>
</g>
<g>
</g>
</svg>
