<?xml version="1.0" encoding="iso-8859-1"?>
<!-- Generator: Adobe Illustrator 16.0.0, SVG Export Plug-In . SVG Version: 6.00 Build 0)  -->
<!DOCTYPE svg PUBLIC "-//W3C//DTD SVG 1.1//EN" "http://www.w3.org/Graphics/SVG/1.1/DTD/svg11.dtd">
<svg version="1.1" id="Capa_1" xmlns="http://www.w3.org/2000/svg" xmlns:xlink="http://www.w3.org/1999/xlink" x="0px" y="0px"
	 width="612px" height="612px" viewBox="0 0 612 612" style="enable-background:new 0 0 612 612;" xml:space="preserve">
<g>
	<path d="M484.338,360.237l-12.01,6.304l-12.011-6.304c-71.126-37.82-152.815-92.762-153.24-182.713v-47.02h-32.624v63.886h-60.138
		v-63.886H84.754C37.991,130.504,0,168.495,0,215.344v282.63c0,46.85,37.991,84.755,84.754,84.755h318.492
		c46.765,0,84.755-37.905,84.755-84.755V358.277C486.723,358.959,485.531,359.556,484.338,360.237z M99.406,384.769l32.028,38.162
		c0,0-10.562,0-23.084,0v49.574H90.548v-49.574h-23.17L99.406,384.769z M204.349,519.185H76.748v-16.1h127.6L204.349,519.185
		L204.349,519.185z M190.635,422.931v49.574h-17.888v-49.574h-23.084l32.027-38.162l32.028,38.162
		C213.719,422.931,203.156,422.931,190.635,422.931z M472.313,29.271c-34.21,26.831-81.071,42.17-139.687,42.17v106.003
		c0.316,68.21,56.823,116.178,139.687,160.192c82.811-44.015,139.37-91.983,139.687-160.192V71.439
		C553.384,71.439,506.523,56.101,472.313,29.271z M472.313,313.651V177.443H353.711V91.892
		c46.176-2.846,85.921-15.128,118.602-36.688v122.239h118.602C590.652,227.046,554.966,268.108,472.313,313.651z"/>
</g>
<g>
</g>
<g>
</g>
<g>
</g>
<g>
</g>
<g>
</g>
<g>
</g>
<g>
</g>
<g>
</g>
<g>
</g>
<g>
</g>
<g>
</g>
<g>
</g>
<g>
</g>
<g>
</g>
<g>
</g>
</svg>
