<?xml version="1.0" encoding="iso-8859-1"?>
<!-- Generator: Adobe Illustrator 16.0.0, SVG Export Plug-In . SVG Version: 6.00 Build 0)  -->
<!DOCTYPE svg PUBLIC "-//W3C//DTD SVG 1.1//EN" "http://www.w3.org/Graphics/SVG/1.1/DTD/svg11.dtd">
<svg version="1.1" id="Capa_1" xmlns="http://www.w3.org/2000/svg" xmlns:xlink="http://www.w3.org/1999/xlink" x="0px" y="0px"
	 width="612px" height="612px" viewBox="0 0 612 612" style="enable-background:new 0 0 612 612;" xml:space="preserve">
<g>
	<path d="M119.645,4.007h170.841l-15.918,127.311H0L90.15,18.215C97.307,9.237,108.164,4.007,119.645,4.007z M492.355,4.007H321.515
		l15.918,127.311H612L521.85,18.215C514.693,9.237,503.837,4.007,492.355,4.007z M612,153.153v407.693
		c0,26.039-21.108,47.147-47.146,47.147H47.147C21.109,607.993,0,586.885,0,560.846V153.153h274.568v160.858h62.864V153.153H612z
		 M495.325,430.939h12.301v94.629c0,4.176,3.384,7.561,7.561,7.561h18.901c4.176,0,7.561-3.385,7.561-7.561v-94.629h12.302
		c5.821,0,9.458-6.301,6.548-11.342l-29.315-50.766c-2.911-5.039-10.187-5.039-13.096,0.001l-29.31,50.766
		C485.867,424.64,489.505,430.939,495.325,430.939z M381.908,430.939h12.302v94.629c0,4.176,3.384,7.561,7.561,7.561h18.901
		c4.176,0,7.561-3.385,7.561-7.561v-94.629h12.301c5.819,0,9.458-6.301,6.547-11.342l-29.315-50.766
		c-2.911-5.039-10.186-5.039-13.096,0.001l-29.31,50.766C372.45,424.64,376.088,430.939,381.908,430.939z M574.846,555.084
		c0-2.088-1.693-3.78-3.781-3.78H362.448c-2.087,0-3.779,1.693-3.779,3.78v11.341c0,2.088,1.692,3.781,3.779,3.781h208.616
		c2.088,0,3.781-1.693,3.781-3.781V555.084z"/>
</g>
<g>
</g>
<g>
</g>
<g>
</g>
<g>
</g>
<g>
</g>
<g>
</g>
<g>
</g>
<g>
</g>
<g>
</g>
<g>
</g>
<g>
</g>
<g>
</g>
<g>
</g>
<g>
</g>
<g>
</g>
</svg>
