<?xml version="1.0" encoding="iso-8859-1"?>
<!-- Generator: Adobe Illustrator 16.0.0, SVG Export Plug-In . SVG Version: 6.00 Build 0)  -->
<!DOCTYPE svg PUBLIC "-//W3C//DTD SVG 1.1//EN" "http://www.w3.org/Graphics/SVG/1.1/DTD/svg11.dtd">
<svg version="1.1" id="Capa_1" xmlns="http://www.w3.org/2000/svg" xmlns:xlink="http://www.w3.org/1999/xlink" x="0px" y="0px"
	 width="612.001px" height="612px" viewBox="0 0 612.001 612" style="enable-background:new 0 0 612.001 612;" xml:space="preserve"
	>
<g>
	<path d="M598.04,157.06l-73.495-92.207c-6.942-8.71-17.475-13.784-28.613-13.784H116.068c-11.138,0-21.67,5.073-28.612,13.783
		L13.96,157.06C6.281,166.692,0,184.653,0,196.971v318.223c0,25.261,20.477,45.738,45.738,45.738h520.524
		c25.262,0,45.738-20.478,45.739-45.738V196.971C612,184.653,605.719,166.692,598.04,157.06z M318.626,425.149
		c-4.667,12.229-2.834,28.913,2.524,43.209c29.258,1.801,51.067,8.675,51.067,16.902c0,9.597-29.647,17.377-66.218,17.377
		c-36.571,0-66.218-7.779-66.218-17.377c0-8.228,21.81-15.102,51.067-16.902c5.358-14.296,7.192-30.98,2.524-43.209
		c-73.438-4.81-95.998-51.423-95.998-81.229c0-37.856,16.243-83.112,26.397-105.485l76.453-0.425l-25.349,69.989l31.927,0.886
		l-14.184,53.883l47.376-75.038h-26.402l21.602-49.721h52.841c10.142,22.229,26.586,67.826,26.586,105.911
		C414.624,373.725,392.064,420.339,318.626,425.149z M37.979,156.279l24.338-30.536h166.061L244.765,98.8H83.793l17.969-22.544
		c3.492-4.38,8.706-6.892,14.306-6.892h379.864c5.602,0,10.815,2.512,14.308,6.892L528.208,98.8h-163.84l9.147,26.943h176.168
		l24.339,30.536H37.979z"/>
</g>
<g>
</g>
<g>
</g>
<g>
</g>
<g>
</g>
<g>
</g>
<g>
</g>
<g>
</g>
<g>
</g>
<g>
</g>
<g>
</g>
<g>
</g>
<g>
</g>
<g>
</g>
<g>
</g>
<g>
</g>
</svg>
