<?xml version="1.0" encoding="iso-8859-1"?>
<!-- Generator: Adobe Illustrator 16.0.0, SVG Export Plug-In . SVG Version: 6.00 Build 0)  -->
<!DOCTYPE svg PUBLIC "-//W3C//DTD SVG 1.1//EN" "http://www.w3.org/Graphics/SVG/1.1/DTD/svg11.dtd">
<svg version="1.1" id="Capa_1" xmlns="http://www.w3.org/2000/svg" xmlns:xlink="http://www.w3.org/1999/xlink" x="0px" y="0px"
	 width="612px" height="612.001px" viewBox="0 0 612 612.001" style="enable-background:new 0 0 612 612.001;" xml:space="preserve"
	>
<g>
	<path d="M581.892,397.353l-44.439-3.545v169.847L320.445,610.32c-10.142,2.227-20.694,2.227-30.835,0.083L81.341,566.622
		c-3.71-0.824-6.432-4.04-6.514-7.832L71.2,419.943c-0.082-4.37,3.215-8.08,7.503-8.492l176.937-15.5
		c3.051-0.247,5.689-2.227,6.844-5.112l42.544-103.227v283.216l192.271-36.525V390.51l-113.264-7.183
		c-9.152-0.581-17.232-6.177-20.994-14.541l-58.673-130.479l-58.952,132.826c-1.236,2.721-3.792,4.535-6.678,4.864L30.222,397.022
		c-6.349,0.66-10.966-5.854-8.245-11.707L77.466,266.67c1.154-2.391,3.38-4.123,5.936-4.617l213.875-39.246l7.091-1.319l6.924,1.236
		l218.492,39.329c2.639,0.495,4.864,2.226,6.019,4.699l54.252,118.975C592.694,391.499,588.159,397.848,581.892,397.353z
		 M357.869,109.817h-25.75v54.711c0,5.691-4.613,10.305-10.304,10.305h-30.914c-5.691,0-10.305-4.614-10.305-10.305v-54.711h-25.748
		c-7.932,0-12.89-8.587-8.924-15.457L297.43,5.152c3.966-6.87,13.88-6.87,17.847-0.001l51.515,89.208
		C370.759,101.229,365.802,109.817,357.869,109.817z"/>
</g>
<g>
</g>
<g>
</g>
<g>
</g>
<g>
</g>
<g>
</g>
<g>
</g>
<g>
</g>
<g>
</g>
<g>
</g>
<g>
</g>
<g>
</g>
<g>
</g>
<g>
</g>
<g>
</g>
<g>
</g>
</svg>
