<?xml version="1.0" encoding="iso-8859-1"?>
<!-- Generator: Adobe Illustrator 16.0.0, SVG Export Plug-In . SVG Version: 6.00 Build 0)  -->
<!DOCTYPE svg PUBLIC "-//W3C//DTD SVG 1.1//EN" "http://www.w3.org/Graphics/SVG/1.1/DTD/svg11.dtd">
<svg version="1.1" id="Capa_1" xmlns="http://www.w3.org/2000/svg" xmlns:xlink="http://www.w3.org/1999/xlink" x="0px" y="0px"
	 width="612px" height="612px" viewBox="0 0 612 612" style="enable-background:new 0 0 612 612;" xml:space="preserve">
<g>
	<path d="M612,153.429l-0.001,301.894c0,23.963-19.426,43.391-43.391,43.391H333.888c6.677-19.096,10.491-39.521,10.491-60.865
		c0-31.381-7.966-61.213-22.076-87.416c3.855-1.924,7.34-4.533,10.246-7.721l8-8.617c13.39-14.459,12.577-37.222-1.982-50.883
		l-30.043-27.721c-6.661-6.145-15.331-9.534-24.408-9.534c-10.025,0-19.661,4.221-26.374,11.492l-8.034,8.644
		c-2.084,2.263-3.855,4.729-5.271,7.365c-4.813-2.508-9.746-4.813-14.796-6.898c2.982-5.246,4.686-11.306,4.686-17.754v-10.051
		c0-19.831-16.161-35.958-36.026-35.958h-74.12c-14.051,0-26.115,8.175-32.028,19.949v-69.314c0-11.686,5.96-28.725,13.244-37.864
		l69.724-87.475c6.587-8.263,16.578-13.076,27.145-13.076h299.623c10.566,0,20.559,4.813,27.146,13.076l69.724,87.475
		C606.04,124.704,612,141.743,612,153.429z M575.971,114.825l-23.09-28.968H429.144l-8.678-25.561h112.041L515.46,38.908
		c-3.312-4.155-8.259-6.538-13.572-6.538H202.265c-5.314,0-10.26,2.383-13.572,6.538l-17.047,21.387h109.321L265.42,85.856H151.271
		l-23.09,28.969L575.971,114.825L575.971,114.825z M320.9,302.336l-30.026-27.711c-4.02-3.714-10.354-3.471-14.068,0.549
		l-7.979,8.587c-3.715,4.02-3.471,10.354,0.609,14.068L299.4,325.6c4.081,3.715,10.354,3.473,14.068-0.607l7.979-8.588
		C325.163,312.385,324.919,306.112,320.9,302.336z M180.701,280.107v-21.316h17.601c5.481,0,9.989-4.507,9.989-9.989v-10.049
		c0-5.481-4.507-9.928-9.989-9.928h-74.119c-5.481,0-9.927,4.446-9.927,9.928v10.049c0,5.481,4.446,9.989,9.927,9.989H140.2v21.011
		c-56.64,6.7-104.206,43.18-126.496,93.366C4.872,392.898,0,414.824,0,437.846c0,5.238,0.243,10.414,0.73,15.471
		c7.795,80.635,75.764,143.67,158.41,143.67c87.944,0,159.201-71.256,159.201-159.141
		C318.342,357.211,258.475,290.643,180.701,280.107z M159.141,557.643c-66.141,0-119.797-53.654-119.797-119.797
		c0-14.068,2.437-27.527,6.821-40.014c0-0.061,0-0.061,0-0.061c7.796-21.986,21.803-40.986,39.953-54.934c0,0,0,0,0.061,0
		c20.22-15.592,45.496-24.85,72.963-24.85c66.202,0,119.858,53.656,119.858,119.859
		C278.999,503.988,225.342,557.643,159.141,557.643z M255.551,437.846h-96.41v-97.385
		C210.604,340.461,255.551,378.525,255.551,437.846z"/>
</g>
<g>
</g>
<g>
</g>
<g>
</g>
<g>
</g>
<g>
</g>
<g>
</g>
<g>
</g>
<g>
</g>
<g>
</g>
<g>
</g>
<g>
</g>
<g>
</g>
<g>
</g>
<g>
</g>
<g>
</g>
</svg>
