<?xml version="1.0" encoding="iso-8859-1"?>
<!-- Generator: Adobe Illustrator 16.0.0, SVG Export Plug-In . SVG Version: 6.00 Build 0)  -->
<!DOCTYPE svg PUBLIC "-//W3C//DTD SVG 1.1//EN" "http://www.w3.org/Graphics/SVG/1.1/DTD/svg11.dtd">
<svg version="1.1" id="Capa_1" xmlns="http://www.w3.org/2000/svg" xmlns:xlink="http://www.w3.org/1999/xlink" x="0px" y="0px"
	 width="612px" height="612px" viewBox="0 0 612 612" style="enable-background:new 0 0 612 612;" xml:space="preserve">
<g>
	<path d="M336.884,124.068h-46.766v23.178h-21.847v-23.178h-47.053c-17.006,0-30.792,13.786-30.792,30.793v72.24l53.449,49.99
		c3.494,3.271,6.207,7.116,8.347,11.241h84.663c17.006,0,30.793-13.786,30.793-30.792V154.86
		C367.677,137.854,353.892,124.068,336.884,124.068z M292.657,213.346v45.25h-27.332v-45.25c-18.631,0-18.626,0-19.322,0
		l33.107-39.178l32.986,39.322C312.099,213.49,311.909,213.346,292.657,213.346z M11.757,63.349C11.757,28.362,40.12,0,75.106,0
		s63.349,28.362,63.349,63.349s-28.362,63.349-63.349,63.349C40.119,126.697,11.757,98.335,11.757,63.349z M230.728,321.411
		c-4.067,4.351-9.579,6.551-15.1,6.551c-5.057,0-10.128-1.848-14.116-5.572l-85.062-79.56v121.952
		c0,13.018-6.138,24.488-15.544,32.066l46.132,189.595c2.7,11.092-4.108,22.275-15.201,24.971c-1.64,0.404-3.286,0.585-4.9,0.585
		c-9.316,0-17.77-6.329-20.071-15.785l-26.49-108.867L65.458,591.602c-1.625,11.294-12.107,19.157-23.392,17.532
		c-11.304-1.615-19.152-12.082-17.538-23.387l26.796-187.233c-10.595-7.486-17.561-19.772-17.561-33.731V204.267
		c0-22.832,18.512-41.343,41.343-41.343c5.284,0,10.294,1.084,14.94,2.891c3.638,0.73,7.137,2.385,10.046,5.103l129.66,121.272
		C238.091,299.993,238.53,313.074,230.728,321.411z M536.896,126.697c-34.986,0-63.35-28.362-63.35-63.349S501.909,0,536.896,0
		s63.348,28.362,63.348,63.349S571.882,126.697,536.896,126.697z M382.247,292.19l129.66-121.272
		c2.908-2.718,6.408-4.373,10.047-5.103c4.645-1.808,9.654-2.891,14.939-2.891c22.832,0,41.344,18.511,41.344,41.343v160.515
		c0,13.959-6.967,26.245-17.561,33.731l26.795,187.233c1.615,11.305-6.232,21.771-17.537,23.387
		c-11.285,1.625-21.766-6.238-23.391-17.532l-14.918-104.255l-26.492,108.867C502.833,605.671,494.38,612,485.063,612
		c-1.615,0-3.26-0.182-4.9-0.585c-11.092-2.695-17.9-13.879-15.199-24.972l46.131-189.594c-9.406-7.578-15.545-19.049-15.545-32.067
		V242.83l-85.061,79.56c-3.988,3.726-9.061,5.572-14.117,5.572c-5.52,0-11.031-2.2-15.1-6.551
		C373.472,313.074,373.911,299.993,382.247,292.19z"/>
</g>
<g>
</g>
<g>
</g>
<g>
</g>
<g>
</g>
<g>
</g>
<g>
</g>
<g>
</g>
<g>
</g>
<g>
</g>
<g>
</g>
<g>
</g>
<g>
</g>
<g>
</g>
<g>
</g>
<g>
</g>
</svg>
