<?xml version="1.0" encoding="iso-8859-1"?>
<!-- Generator: Adobe Illustrator 16.0.0, SVG Export Plug-In . SVG Version: 6.00 Build 0)  -->
<!DOCTYPE svg PUBLIC "-//W3C//DTD SVG 1.1//EN" "http://www.w3.org/Graphics/SVG/1.1/DTD/svg11.dtd">
<svg version="1.1" id="Capa_1" xmlns="http://www.w3.org/2000/svg" xmlns:xlink="http://www.w3.org/1999/xlink" x="0px" y="0px"
	 width="612px" height="612px" viewBox="0 0 612 612" style="enable-background:new 0 0 612 612;" xml:space="preserve">
<g>
	<path d="M598.039,157.059l-73.494-92.206c-6.943-8.71-17.476-13.784-28.614-13.784H116.068c-11.138,0-21.67,5.073-28.612,13.783
		L13.96,157.059C6.281,166.691,0,184.652,0,196.97v318.223c0,25.261,20.478,45.738,45.738,45.738h520.524
		c25.261,0,45.738-20.478,45.738-45.738V196.97C612,184.652,605.718,166.691,598.039,157.059z M432.695,366.562
		c-20.391,0-37.404,8.515-41.362,19.838h-1.699c-3.862-11.396-20.928-19.986-41.406-19.986c-13.192,0-24.942,3.576-32.685,9.158
		v95.848c0,23.854-19.406,43.26-43.26,43.26c-23.854,0-43.26-19.405-43.26-43.26c0-5.271,4.271-9.544,9.543-9.544
		c5.271,0,9.542,4.272,9.542,9.544c0,13.329,10.845,24.174,24.174,24.174c13.33,0,24.175-10.845,24.175-24.174v-95.691
		c-7.744-5.586-19.501-9.166-32.698-9.166c-20.391,0-37.406,8.515-41.363,19.838h-1.698c-3.862-11.396-20.928-19.986-41.407-19.986
		c-13.161,0-24.913,3.55-32.659,9.109c6.225-67.96,70.169-121.979,149.826-126.002v-7.134c0-5.271,4.271-9.542,9.542-9.542
		s9.543,4.271,9.543,9.542v7.135c79.712,4.032,143.687,58.13,149.825,126.16C457.623,370.117,445.865,366.562,432.695,366.562z
		 M37.979,156.278l24.338-30.536h166.061l16.387-26.943H83.793l17.969-22.544c3.491-4.38,8.706-6.892,14.306-6.892h379.863
		c5.602,0,10.815,2.512,14.308,6.892l17.969,22.544h-163.84l9.147,26.943h176.167l24.339,30.536H37.979z"/>
</g>
<g>
</g>
<g>
</g>
<g>
</g>
<g>
</g>
<g>
</g>
<g>
</g>
<g>
</g>
<g>
</g>
<g>
</g>
<g>
</g>
<g>
</g>
<g>
</g>
<g>
</g>
<g>
</g>
<g>
</g>
</svg>
