<?xml version="1.0" encoding="iso-8859-1"?>
<!-- Generator: Adobe Illustrator 16.0.0, SVG Export Plug-In . SVG Version: 6.00 Build 0)  -->
<!DOCTYPE svg PUBLIC "-//W3C//DTD SVG 1.1//EN" "http://www.w3.org/Graphics/SVG/1.1/DTD/svg11.dtd">
<svg version="1.1" id="Capa_1" xmlns="http://www.w3.org/2000/svg" xmlns:xlink="http://www.w3.org/1999/xlink" x="0px" y="0px"
	 width="612px" height="612px" viewBox="0 0 612 612" style="enable-background:new 0 0 612 612;" xml:space="preserve">
<g>
	<path d="M187.684,87.183H94.005c-15.975,0-28.925,12.95-28.925,28.924v151.854H36.155C16.188,267.961,0,284.149,0,304.117v127.485
		c12.438-20.898,35.215-34.854,61.248-34.854c37.674,0,68.624,29.358,71.154,66.454H268.78
		c2.532-37.096,33.408-66.454,71.154-66.454c13.305,0,25.815,3.688,36.444,10.052L226.38,110.951
		C218.989,96.371,204.03,87.183,187.684,87.183z M281.146,326.099H117.578c-4.049,0-7.23-3.254-7.23-7.23V139.103
		c0-3.977,3.182-7.23,7.23-7.23h71.226c2.748,0,5.207,1.519,6.436,3.904l92.342,179.766
		C290.04,320.387,286.569,326.099,281.146,326.099z M61.245,411.197c-31.375,0-56.811,25.435-56.811,56.81
		c0,31.376,25.436,56.811,56.811,56.811s56.811-25.435,56.811-56.811C118.056,436.631,92.621,411.197,61.245,411.197z
		 M61.245,496.413c-15.688,0-28.405-12.718-28.405-28.405s12.718-28.405,28.405-28.405S89.65,452.32,89.65,468.007
		S76.933,496.413,61.245,496.413z M549.565,434.277v28.925h-138.62c-1.62-24.09-15.226-44.896-34.927-56.537V116.107h28.924v318.169
		H549.565L549.565,434.277z M339.914,411.197c-31.375,0-56.811,25.435-56.811,56.81c0,31.376,25.436,56.811,56.811,56.811
		s56.811-25.435,56.811-56.811C396.726,436.631,371.29,411.197,339.914,411.197z M339.914,496.413
		c-15.688,0-28.405-12.718-28.405-28.405s12.718-28.405,28.405-28.405s28.405,12.718,28.405,28.405S355.602,496.413,339.914,496.413
		z M584.724,195.462h-48.657v49.919h-41.045v-49.919h-48.912c-15.064,0-27.275,12.213-27.275,27.276v170.495
		c0,15.064,12.212,27.276,27.275,27.276h138.614c15.064,0,27.276-12.212,27.276-27.276V222.739
		C612,207.675,599.787,195.462,584.724,195.462z"/>
</g>
<g>
</g>
<g>
</g>
<g>
</g>
<g>
</g>
<g>
</g>
<g>
</g>
<g>
</g>
<g>
</g>
<g>
</g>
<g>
</g>
<g>
</g>
<g>
</g>
<g>
</g>
<g>
</g>
<g>
</g>
</svg>
