<?xml version="1.0" encoding="iso-8859-1"?>
<!-- Generator: Adobe Illustrator 16.0.0, SVG Export Plug-In . SVG Version: 6.00 Build 0)  -->
<!DOCTYPE svg PUBLIC "-//W3C//DTD SVG 1.1//EN" "http://www.w3.org/Graphics/SVG/1.1/DTD/svg11.dtd">
<svg version="1.1" id="Capa_1" xmlns="http://www.w3.org/2000/svg" xmlns:xlink="http://www.w3.org/1999/xlink" x="0px" y="0px"
	 width="612px" height="612px" viewBox="0 0 612 612" style="enable-background:new 0 0 612 612;" xml:space="preserve">
<g>
	<path d="M234.709,488.739l23.402-52.086l23.394,52.086H234.709z M77.87,331.9l52.086-23.402L77.87,285.104V331.9z M258.111,180.351
		l23.394-52.085H234.71L258.111,180.351z M360.926,205.769l-41.549,92.568c3.176,19.145-2.549,39.494-17.289,54.232
		c-14.738,14.739-35.086,20.464-54.232,17.289l-92.568,41.548l41.548-92.567c-3.175-19.145,2.549-39.494,17.289-54.233
		c14.738-14.739,35.087-20.464,54.232-17.288L360.926,205.769z M272.88,293.814c-8.145-8.145-21.4-8.145-29.545,0
		c-8.145,8.146-8.145,21.4,0,29.545c8.146,8.146,21.4,8.146,29.545,0C281.025,315.215,281.025,301.959,272.88,293.814z
		 M438.344,331.9v-46.795l-52.086,23.394L438.344,331.9z M598.211,601.126c1.797,6.316-3.916,12.21-10.285,10.608L453.25,577.884
		c-6.369-1.601-8.616-9.496-4.046-14.212l15.678-16.173c3.279-3.383,3.195-8.783-0.188-12.062l-44.859-43.489
		c-43.152,38.106-99.768,61.302-161.728,61.302c-134.909,0-244.663-109.756-244.663-244.663
		c0-115.083,86.488-243.566,244.663-243.566c66.785,0,120.311,22.302,160.103,56.588l46.482-45.058
		c3.383-3.28,3.467-8.68,0.188-12.062l-15.675-16.17c-4.571-4.716-2.323-12.612,4.046-14.211L587.937,0.266
		c6.368-1.601,12.081,4.294,10.283,10.61L560.2,144.435c-1.798,6.316-9.759,8.318-14.33,3.603l-15.674-16.169
		c-3.279-3.383-8.681-3.467-12.063-0.187l-50.602,49.051c23.349,39.495,35.239,84.619,35.239,127.855
		c0,45.234-12.387,87.61-33.877,124l49.233,47.729c3.383,3.279,8.784,3.196,12.063-0.188l15.68-16.175
		c4.57-4.716,12.532-2.714,14.329,3.603L598.211,601.126z M455.012,308.588c0-108.571-88.33-196.906-196.905-196.906
		c-108.574,0-196.905,88.335-196.905,196.906c0,108.57,88.331,196.904,196.905,196.904
		C366.681,505.492,455.012,417.158,455.012,308.588z"/>
</g>
<g>
</g>
<g>
</g>
<g>
</g>
<g>
</g>
<g>
</g>
<g>
</g>
<g>
</g>
<g>
</g>
<g>
</g>
<g>
</g>
<g>
</g>
<g>
</g>
<g>
</g>
<g>
</g>
<g>
</g>
</svg>
