<?xml version="1.0" encoding="iso-8859-1"?>
<!-- Generator: Adobe Illustrator 16.0.0, SVG Export Plug-In . SVG Version: 6.00 Build 0)  -->
<!DOCTYPE svg PUBLIC "-//W3C//DTD SVG 1.1//EN" "http://www.w3.org/Graphics/SVG/1.1/DTD/svg11.dtd">
<svg version="1.1" id="Capa_1" xmlns="http://www.w3.org/2000/svg" xmlns:xlink="http://www.w3.org/1999/xlink" x="0px" y="0px"
	 width="612px" height="612px" viewBox="0 0 612 612" style="enable-background:new 0 0 612 612;" xml:space="preserve">
<g>
	<path d="M172.227,387.451l-0.284-129.528c-0.014-5.901,6.015-9.891,11.44-7.571l109.174,46.669c3.017,1.29,4.976,4.251,4.984,7.532
		l0.284,129.529c0.014,5.9-6.015,9.891-11.441,7.57l-109.174-46.669C174.194,393.693,172.234,390.732,172.227,387.451z
		 M433.512,249.1c4.331-0.011,8.216,3.472,8.228,8.202l0.284,129.529c0.008,3.28-1.938,6.251-4.949,7.556l-108.952,47.186
		c-1.074,0.466-2.176,0.683-3.248,0.686c-4.331,0.01-8.217-3.473-8.228-8.202l-0.284-129.528c-0.007-3.281,1.938-6.251,4.949-7.556
		l108.952-47.186C431.338,249.32,432.438,249.103,433.512,249.1L433.512,249.1z M305.226,163.638
		c1.135-0.003,2.271,0.229,3.333,0.698l114.863,50.636c6.517,2.873,6.538,12.111,0.035,15.014l-114.623,51.178
		c-1.06,0.473-2.194,0.711-3.329,0.714c-1.135,0.003-2.271-0.229-3.332-0.698l-114.864-50.636
		c-6.516-2.873-6.538-12.111-0.035-15.014l114.624-51.179C302.957,163.878,304.091,163.641,305.226,163.638L305.226,163.638z
		 M331.597,537.555v-62.06h-51.083v62.06h-48.937L306.047,612l74.481-74.445H331.597z M537.555,280.403h-62.06v51.083h62.06v48.937
		L612,305.953l-74.445-74.482V280.403z M280.403,74.445v62.06h51.083v-62.06h48.937L305.953,0l-74.482,74.445H280.403z
		 M74.445,331.597h62.06v-51.083h-62.06v-48.937L0,306.047l74.445,74.481V331.597z"/>
</g>
<g>
</g>
<g>
</g>
<g>
</g>
<g>
</g>
<g>
</g>
<g>
</g>
<g>
</g>
<g>
</g>
<g>
</g>
<g>
</g>
<g>
</g>
<g>
</g>
<g>
</g>
<g>
</g>
<g>
</g>
</svg>
