<?xml version="1.0" encoding="iso-8859-1"?>
<!-- Generator: Adobe Illustrator 16.0.0, SVG Export Plug-In . SVG Version: 6.00 Build 0)  -->
<!DOCTYPE svg PUBLIC "-//W3C//DTD SVG 1.1//EN" "http://www.w3.org/Graphics/SVG/1.1/DTD/svg11.dtd">
<svg version="1.1" id="Capa_1" xmlns="http://www.w3.org/2000/svg" xmlns:xlink="http://www.w3.org/1999/xlink" x="0px" y="0px"
	 width="612px" height="612px" viewBox="0 0 612 612" style="enable-background:new 0 0 612 612;" xml:space="preserve">
<g>
	<path d="M369.847,273.601l34.898-47.489c3.338-4.543,11.588-3.76,14.851,1.336l31.713,49.546
		c3.039,4.747-0.762,10.407-6.907,10.218l-13.246-0.408v88.849c0,3.92-3.708,7.346-8.322,7.653l-21.436,1.429
		c-4.861,0.324-8.836-2.715-8.836-6.789v-92.331l-14.71-0.455C370.742,284.939,366.25,278.495,369.847,273.601z M499.32,288.904
		l11.485,0.354v81.659c0,3.604,3.11,6.317,6.919,6.064l16.842-1.123c3.636-0.241,6.561-3.26,6.561-6.742v-78.923l10.47,0.323
		c4.866,0.149,7.88-4.903,5.47-9.118l-25.047-43.824c-2.566-4.49-9.049-5.105-11.667-1.05l-27.264,42.209
		C490.288,283.066,493.783,288.734,499.32,288.904z M353.697,425.462l212.051-21.628c1.695-0.173,3.063-1.68,3.063-3.365v-9.16
		c0-1.686-1.368-2.938-3.063-2.795l-212.051,17.806c-2.658,0.223-4.823,2.126-4.823,4.251v11.538
		C348.874,424.232,351.039,425.734,353.697,425.462z M612,149.682v358.51c0,21.728-15.857,40.204-37.334,43.501l-261.99,40.206
		c-4.425,0.679-8.926,0.679-13.351,0l-133.945-20.557V431.671l-47.729,9.396v122.95L37.333,551.69
		C15.857,548.396,0,529.919,0,508.191v-358.51c0-19.013,12.209-35.875,30.272-41.811l87.378-28.709v107.281l47.729-9.396V63.48
		l126.883-41.688c8.923-2.932,18.551-2.932,27.475,0l261.991,86.079C599.791,113.807,612,130.669,612,149.682z M578.992,141.716
		L339.008,62.867v491.597l239.985-36.83L578.992,141.716L578.992,141.716z"/>
</g>
<g>
</g>
<g>
</g>
<g>
</g>
<g>
</g>
<g>
</g>
<g>
</g>
<g>
</g>
<g>
</g>
<g>
</g>
<g>
</g>
<g>
</g>
<g>
</g>
<g>
</g>
<g>
</g>
<g>
</g>
</svg>
