<?xml version="1.0" encoding="iso-8859-1"?>
<!-- Generator: Adobe Illustrator 16.0.0, SVG Export Plug-In . SVG Version: 6.00 Build 0)  -->
<!DOCTYPE svg PUBLIC "-//W3C//DTD SVG 1.1//EN" "http://www.w3.org/Graphics/SVG/1.1/DTD/svg11.dtd">
<svg version="1.1" id="Capa_1" xmlns="http://www.w3.org/2000/svg" xmlns:xlink="http://www.w3.org/1999/xlink" x="0px" y="0px"
	 width="612px" height="612px" viewBox="0 0 612 612" style="enable-background:new 0 0 612 612;" xml:space="preserve">
<g>
	<path d="M305.572,112.254c-89.336,0-151.593-29.579-151.593-56.127C153.979,29.579,216.236,0,305.572,0
		c89.335,0,151.593,29.579,151.593,56.127C457.165,82.676,394.907,112.254,305.572,112.254z M526.218,290.225
		c0-77.211-33.34-169.652-53.898-214.717c-13.648,25.036-53.406,44.431-107.057,52.741l-23.316,70.081h53.529l-96.049,152.126
		l28.756-109.238l-64.726-1.796l22.054-107.194c-72.622-3.436-128.798-25.417-146.212-55.857
		c-20.587,45.357-53.516,137.106-53.516,213.855c0,60.428,45.736,154.931,194.62,164.68c9.463,24.791,5.746,58.616-5.117,87.599
		c-59.314,3.65-103.531,17.589-103.531,34.267C171.755,596.228,231.859,612,306,612c74.141,0,134.245-15.772,134.245-35.229
		c0-16.678-44.215-30.615-103.529-34.266c-10.863-28.982-14.58-62.808-5.117-87.599
		C480.483,445.156,526.218,350.653,526.218,290.225z"/>
</g>
<g>
</g>
<g>
</g>
<g>
</g>
<g>
</g>
<g>
</g>
<g>
</g>
<g>
</g>
<g>
</g>
<g>
</g>
<g>
</g>
<g>
</g>
<g>
</g>
<g>
</g>
<g>
</g>
<g>
</g>
</svg>
