<?xml version="1.0" encoding="iso-8859-1"?>
<!-- Generator: Adobe Illustrator 16.0.0, SVG Export Plug-In . SVG Version: 6.00 Build 0)  -->
<!DOCTYPE svg PUBLIC "-//W3C//DTD SVG 1.1//EN" "http://www.w3.org/Graphics/SVG/1.1/DTD/svg11.dtd">
<svg version="1.1" id="Capa_1" xmlns="http://www.w3.org/2000/svg" xmlns:xlink="http://www.w3.org/1999/xlink" x="0px" y="0px"
	 width="612px" height="612px" viewBox="0 0 612 612" style="enable-background:new 0 0 612 612;" xml:space="preserve">
<g>
	<path d="M113.904,257.706H74.93V25.551h38.974V257.706z M209.646,25.551h-55.073v232.155h55.073V25.551z M281.242,25.551h-27.537
		v232.155h27.536L281.242,25.551L281.242,25.551z M378.255,25.551h-64.393v232.155h64.393V25.551z M435.022,25.551h-16.099v232.155
		h16.099V25.551z M479.928,25.551h-21.182v232.155h21.182V25.551z M538.391,25.551h-41.517v232.155h41.517V25.551z M534.368,277.827
		h-37.494v110.625h37.494V277.827z M612,257.706h-55.636v20.122H612V257.706z M113.164,275.239H75.669v110.625h37.494V275.239z
		 M55.636,257.706H0v20.122h55.636V257.706z M440.106,338.528v22.157c0,35.548-10.93,70.236-31.308,99.362l-46.643,66.668v59.733
		H246.08v-59.733l-46.643-66.668c-20.378-29.126-31.308-63.814-31.308-99.362v-22.157c0-23.932,19.401-43.333,43.333-43.333h94.775
		h90.535C420.706,295.196,440.106,314.597,440.106,338.528z M372.021,351.577H230.922c13.842,24.691,40.228,41.404,70.549,41.404
		S358.179,376.269,372.021,351.577z"/>
</g>
<g>
</g>
<g>
</g>
<g>
</g>
<g>
</g>
<g>
</g>
<g>
</g>
<g>
</g>
<g>
</g>
<g>
</g>
<g>
</g>
<g>
</g>
<g>
</g>
<g>
</g>
<g>
</g>
<g>
</g>
</svg>
