<?xml version="1.0" encoding="iso-8859-1"?>
<!-- Generator: Adobe Illustrator 16.0.0, SVG Export Plug-In . SVG Version: 6.00 Build 0)  -->
<!DOCTYPE svg PUBLIC "-//W3C//DTD SVG 1.1//EN" "http://www.w3.org/Graphics/SVG/1.1/DTD/svg11.dtd">
<svg version="1.1" id="Capa_1" xmlns="http://www.w3.org/2000/svg" xmlns:xlink="http://www.w3.org/1999/xlink" x="0px" y="0px"
	 width="612px" height="612px" viewBox="0 0 612 612" style="enable-background:new 0 0 612 612;" xml:space="preserve">
<g>
	<path d="M308.882,136.516c-96.324,0-174.691,78.37-174.691,174.693c0,96.323,78.367,174.688,174.691,174.688
		c96.323,0,174.69-78.364,174.69-174.688C483.573,214.885,405.206,136.516,308.882,136.516z M155.82,311.209
		c0-25.638,6.367-49.803,17.554-71.053c-0.06,27.464,14.626,50.323,21.511,57.208c22.443,22.444,54.998,15.372,59.21,34.121
		c4.213,18.749-22.386,18.817-20.602,33.147c1.785,14.384,36.404,18.171,28.712,31.417c-10.22,17.602,6.84,18.848,1.932,40.559
		c-2.669,11.81,14.423,14.092,20.739,5.127c4.868-6.907,3.893-15.336,13.616-25.707c11.877-12.669,39.541-14.719,36.409-35.666
		c-5.208-34.828-39.053-40.265-53.815-48.409c-16.711-9.22-12.649-31.278-16.229-41.779c-5.082-14.9-22.297,4.175-31.471-4.488
		c-15.15-14.307,2.692-34.471,15.357-34.066c26.79,0.855,34.986,26.929,44.827,26.009c9.625-0.865,15.883-14.275,17.526-21.414
		c3.569-15.513-5.992-8.586-9.878-16.668c-5.974-12.424,26.013-24.208,30.276-32.557c8.176-16.015-40.542-20.465-42.043-37.597
		c-0.613-6.99,12.812-10.384,28.082-10.988c17.109,0.958,33.463,4.757,48.629,10.903c14.573,10.473,23.423,28.104,25.079,47.652
		c1.463,17.262-17.261,32.768-36.268,38.48c-13.42,4.034-23.708,21.788-17.52,36.263c4.246,9.93,33.894,8.053,31.353,29.327
		c-2.086,17.469,20.745,22.08,28.855,21.215c8.057-0.92,20.529,13.341,14.257,19.613c-6.272,6.273-18.038,6.494-16.235,22.729
		c0.521,4.688,14.792,4.105,14.792,11.184c0,7.215-7.395,15.403-1.739,23.655c1.254,1.83,2.528,3.208,3.805,4.271
		c-27.286,25.163-63.701,40.569-103.657,40.569C224.484,464.268,155.82,395.604,155.82,311.209z M37.379,227.47
		c-4.546,0-9.044-1.293-12.981-3.747c-10.033-6.257-13.941-19.542-9.081-30.906C65.414,75.687,180.261,0,307.917,0
		c42.622,0,84.255,8.501,123.749,25.267c45.931,19.495,87.069,50.001,119.222,88.344l17.919-10.577
		c6.456-3.812,14.617,0.797,14.688,8.294l0.831,88.002c0.071,7.495-7.997,12.257-14.524,8.572l-76.625-43.255
		c-6.527-3.685-6.619-13.053-0.165-16.865l15.397-9.093c-26.285-29.461-59.283-53.121-95.762-68.612
		C379.202,55.888,343.95,48.689,307.87,48.689c-108.428,0-205.797,64.352-248.077,163.936
		C55.97,221.641,47.174,227.47,37.379,227.47z M310.39,612c-48.395,0-95.097-10.812-138.812-32.143
		c-44.848-21.872-84.332-54.479-114.448-94.468l-18.424,9.616c-6.646,3.468-14.554-1.559-14.234-9.049l3.753-87.914
		c0.32-7.489,8.627-11.823,14.954-7.802l74.261,47.211c6.327,4.022,5.926,13.386-0.722,16.853l-15.842,8.261
		c24.715,30.812,56.43,56.164,92.043,73.528c37.031,18.059,76.571,27.217,117.53,27.217c102.064,0,196.867-58.903,241.829-150.149
		c2.804-5.69,7.317-10.599,13.231-12.891c7.99-3.098,16.458-1.956,23.161,2.717c9.69,6.771,12.895,20.246,7.456,31.344
		C542.31,543.921,432.817,612,310.39,612z"/>
</g>
<g>
</g>
<g>
</g>
<g>
</g>
<g>
</g>
<g>
</g>
<g>
</g>
<g>
</g>
<g>
</g>
<g>
</g>
<g>
</g>
<g>
</g>
<g>
</g>
<g>
</g>
<g>
</g>
<g>
</g>
</svg>
