<?xml version="1.0" encoding="iso-8859-1"?>
<!-- Generator: Adobe Illustrator 16.0.0, SVG Export Plug-In . SVG Version: 6.00 Build 0)  -->
<!DOCTYPE svg PUBLIC "-//W3C//DTD SVG 1.1//EN" "http://www.w3.org/Graphics/SVG/1.1/DTD/svg11.dtd">
<svg version="1.1" id="Capa_1" xmlns="http://www.w3.org/2000/svg" xmlns:xlink="http://www.w3.org/1999/xlink" x="0px" y="0px"
	 width="612px" height="612px" viewBox="0 0 612 612" style="enable-background:new 0 0 612 612;" xml:space="preserve">
<g>
	<path d="M499.011,350.086c-27.314-11.36-63.089-20.062-103.697-25.139c2.337-22.641,3.465-46.167,3.465-69.614
		c0-23.447-1.128-46.974-3.465-69.695c40.608-5.076,76.302-13.777,103.616-25.219c14.101,28.603,22.076,60.832,22.076,94.914
		C521.007,289.335,513.11,321.483,499.011,350.086z M298.305,40.447c2.578-0.081,5.157-0.162,7.735-0.162
		c2.579,0,5.157,0.081,7.735,0.162c15.31,10.394,35.21,49.793,45.686,116.427c-35.855,2.659-72.838,2.417-106.839-0.483
		C263.176,89.999,282.997,50.761,298.305,40.447z M245.45,255.333c0-24.333,1.128-46.651,3.143-66.956
		c19.499,1.773,39.803,2.578,60.591,2.578c18.129,0,36.338-0.725,54.225-2.094c2.015,20.223,3.143,42.381,3.143,66.472
		s-1.128,46.249-3.143,66.393c-17.403-1.451-35.612-2.095-54.225-2.095c-20.788,0-41.173,0.806-60.591,2.578
		C246.578,301.904,245.45,279.585,245.45,255.333z M482.332,132.46c-24.011,9.427-55.272,16.759-90.966,21.19
		c-6.445-42.219-17.081-79.847-31.665-106.597C410.06,60.026,453.326,90.886,482.332,132.46z M252.379,47.054
		c-14.583,26.589-25.139,63.894-31.665,105.792c-35.21-4.834-66.391-12.65-89.596-22.399
		C160.124,89.919,202.747,59.866,252.379,47.054z M468.386,450.51c56.965-46.893,92.907-115.812,92.907-195.177
		C561.293,114.493,446.8,0,306.041,0C180.59,0,76.087,90.805,54.736,210.213c-2.659,14.664-4.029,29.731-4.029,45.12
		c0,140.844,74.908,251.295,219.33,292.925V612l212.889-122.938L270.037,366.147v60.377c-116.51,0-178.632-94.472-178.632-184.133
		c0.646-10.977,2.083-21.748,4.342-32.178c3.948-18.29,10.152-35.693,18.531-51.888c26.589,11.844,61.96,21.029,102.488,26.508
		c-2.417,22.963-3.545,46.732-3.545,70.501c0,23.688,1.128,47.457,3.545,70.421c-24.655,3.303-47.376,8.057-67.438,13.938
		c1.208,1.451,2.256,2.9,3.384,4.351c3.545,4.513,6.849,8.863,10.313,12.167l0.806,0.725l0.725,0.887
		c2.578,2.899,5.721,5.721,9.185,8.621c14.423-3.465,30.214-6.446,46.974-8.702c2.256,14.343,4.915,28.12,8.057,41.092h0.08
		c5.237,1.612,9.75,2.982,12.972,3.144h0.967c0,0,2.337,0.241,3.062,0.322v-47.457v-30.537l48.102,27.717
		c5.076-0.08,10.152-0.16,15.228-0.16c17.242,0,34.163,0.644,50.277,1.853c-1.854,11.683-3.948,22.56-6.285,32.551l29.006,16.759
		c3.626-14.423,6.768-29.973,9.186-46.088c35.773,4.432,67.036,11.764,91.046,21.19c-14.261,20.385-31.906,38.191-52.21,52.614
		L468.386,450.51z"/>
</g>
<g>
</g>
<g>
</g>
<g>
</g>
<g>
</g>
<g>
</g>
<g>
</g>
<g>
</g>
<g>
</g>
<g>
</g>
<g>
</g>
<g>
</g>
<g>
</g>
<g>
</g>
<g>
</g>
<g>
</g>
</svg>
