<?xml version="1.0" encoding="iso-8859-1"?>
<!-- Generator: Adobe Illustrator 16.0.0, SVG Export Plug-In . SVG Version: 6.00 Build 0)  -->
<!DOCTYPE svg PUBLIC "-//W3C//DTD SVG 1.1//EN" "http://www.w3.org/Graphics/SVG/1.1/DTD/svg11.dtd">
<svg version="1.1" id="Capa_1" xmlns="http://www.w3.org/2000/svg" xmlns:xlink="http://www.w3.org/1999/xlink" x="0px" y="0px"
	 width="612px" height="612px" viewBox="0 0 612 612" style="enable-background:new 0 0 612 612;" xml:space="preserve">
<g>
	<path d="M371.718,338.58l44.566-99.29l-99.289,44.565c-20.535-3.406-42.361,2.734-58.17,18.543
		c-15.809,15.809-21.949,37.635-18.543,58.17l-44.565,99.289l99.29-44.565c20.535,3.405,42.36-2.735,58.169-18.544
		S375.125,359.114,371.718,338.58z M321.846,365.419c-8.737,8.737-22.954,8.737-31.69,0s-8.737-22.954,0-31.69
		c8.737-8.736,22.954-8.736,31.69,0C330.582,342.466,330.582,356.683,321.846,365.419z M306,477.347l15.509,34.529H290.49
		L306,477.347z M306,221.621l-15.509-34.53h31.019L306,221.621z M433.863,349.484l34.529-15.509v31.019L433.863,349.484z
		 M178.138,349.484l-34.53,15.509v-31.019L178.138,349.484z M367.728,94.55c3.658-8.302,5.726-17.456,5.726-27.094
		C373.453,30.263,343.193,0,306,0s-67.453,30.263-67.453,67.456c0,9.639,2.067,18.792,5.725,27.094
		C129.267,122.393,43.574,226.136,43.574,349.574C43.574,494.275,161.297,612,306,612c144.703,0,262.426-117.726,262.426-262.426
		C568.426,226.136,482.733,122.393,367.728,94.55z M279.779,67.456c0-14.461,11.764-26.224,26.221-26.224
		c14.458,0,26.222,11.763,26.222,26.224c0,8.204-3.863,15.448-9.778,20.26c-5.444-0.338-10.916-0.567-16.443-0.567
		s-10.999,0.229-16.442,0.567C283.642,82.904,279.779,75.66,279.779,67.456z M306,540.368
		c-105.204,0-190.795-85.593-190.795-190.795c0-105.202,85.591-190.794,190.795-190.794s190.795,85.593,190.795,190.795
		C496.795,454.776,411.204,540.368,306,540.368z"/>
</g>
<g>
</g>
<g>
</g>
<g>
</g>
<g>
</g>
<g>
</g>
<g>
</g>
<g>
</g>
<g>
</g>
<g>
</g>
<g>
</g>
<g>
</g>
<g>
</g>
<g>
</g>
<g>
</g>
<g>
</g>
</svg>
