<?xml version="1.0" encoding="iso-8859-1"?>
<!-- Generator: Adobe Illustrator 16.0.0, SVG Export Plug-In . SVG Version: 6.00 Build 0)  -->
<!DOCTYPE svg PUBLIC "-//W3C//DTD SVG 1.1//EN" "http://www.w3.org/Graphics/SVG/1.1/DTD/svg11.dtd">
<svg version="1.1" id="Capa_1" xmlns="http://www.w3.org/2000/svg" xmlns:xlink="http://www.w3.org/1999/xlink" x="0px" y="0px"
	 width="612px" height="612px" viewBox="0 0 612 612" style="enable-background:new 0 0 612 612;" xml:space="preserve">
<g>
	<path d="M598.551,135.131l-70.8-88.827c-6.688-8.391-16.835-13.279-27.564-13.279H160.682c-10.73,0-20.876,4.888-27.563,13.278
		l-70.802,88.828c-7.397,9.28-13.449,26.583-13.449,38.449v64.615c15.441-12.739,35.22-20.402,56.755-20.402h31.626
		c49.25,0,89.318,40.068,89.318,89.318v52.221c24.363,6.549,42.736,30.018,42.736,55.248v109.621h298.635
		c24.334,0,44.061-19.729,44.061-44.061L612,173.58C612,161.713,605.948,144.411,598.551,135.131z M85.454,134.379l23.447-29.417
		h159.975l15.786-25.956H129.589L146.9,57.29c3.363-4.22,8.386-6.639,13.782-6.639h339.504c5.396,0,10.419,2.419,13.782,6.639
		l17.31,21.718H373.444l8.812,25.956h169.711l23.446,29.417H85.454z M217.931,384.443c-5.918-1.041-11.859-1.885-17.801-2.732v-74.6
		c0-34.676-28.208-62.884-62.884-62.884h-31.622c-34.677,0-62.884,28.208-62.884,62.884v74.6
		c-5.942,0.848-11.884,1.691-17.803,2.734C11.116,387.021,0.002,400.861,0,414.576c0,41.947,0,83.893,0,125.838
		c0.001,13.719,11.117,27.562,24.936,30.133c63.839,11.236,129.156,11.236,192.995,0c13.821-2.576,24.932-16.416,24.936-30.133
		c0-41.945,0-83.891,0-125.838C242.866,400.861,231.748,387.016,217.931,384.443z M84.662,307.111
		c0-11.561,9.4-20.961,20.962-20.961h31.623c11.561,0,20.961,9.4,20.961,20.961v70.254c-24.493-1.621-49.053-1.623-73.545-0.002
		L84.662,307.111L84.662,307.111z M137.592,514.361h-32.317l8.69-35.195c-7.343-2.963-12.536-10.129-12.536-18.531
		c0-11.049,8.957-20.006,20.004-20.006c11.049,0,20.005,8.957,20.005,20.006c0,8.402-5.194,15.568-12.537,18.531L137.592,514.361z"
		/>
</g>
<g>
</g>
<g>
</g>
<g>
</g>
<g>
</g>
<g>
</g>
<g>
</g>
<g>
</g>
<g>
</g>
<g>
</g>
<g>
</g>
<g>
</g>
<g>
</g>
<g>
</g>
<g>
</g>
<g>
</g>
</svg>
