<?xml version="1.0" encoding="iso-8859-1"?>
<!-- Generator: Adobe Illustrator 16.0.0, SVG Export Plug-In . SVG Version: 6.00 Build 0)  -->
<!DOCTYPE svg PUBLIC "-//W3C//DTD SVG 1.1//EN" "http://www.w3.org/Graphics/SVG/1.1/DTD/svg11.dtd">
<svg version="1.1" id="Capa_1" xmlns="http://www.w3.org/2000/svg" xmlns:xlink="http://www.w3.org/1999/xlink" x="0px" y="0px"
	 width="612px" height="612px" viewBox="0 0 612 612" style="enable-background:new 0 0 612 612;" xml:space="preserve">
<g>
	<path d="M214.654,55.738H107.514c-18.271,0-33.081,14.811-33.081,33.081v173.676H41.351C18.514,262.495,0,281.009,0,303.846
		v145.806c14.225-23.902,40.276-39.863,70.049-39.863c43.088,0,78.485,33.576,81.38,76.004h155.978
		c2.895-42.428,38.209-76.004,81.38-76.004c15.217,0,29.525,4.219,41.682,11.496L258.913,82.92
		C250.458,66.246,233.35,55.738,214.654,55.738z M321.548,328.988H134.475c-4.631,0-8.271-3.723-8.271-8.271V115.119
		c0-4.549,3.639-8.271,8.271-8.271h81.462c3.143,0,5.955,1.737,7.361,4.466l105.611,205.6
		C331.72,322.453,327.75,328.988,321.548,328.988z M70.046,426.314c-35.884,0-64.975,29.09-64.975,64.973
		c0,35.885,29.091,64.975,64.975,64.975s64.975-29.09,64.975-64.975C135.021,455.404,105.931,426.314,70.046,426.314z
		 M70.046,523.775c-17.942,0-32.487-14.545-32.487-32.486c0-17.943,14.546-32.488,32.487-32.488s32.487,14.545,32.487,32.488
		C102.534,509.23,87.989,523.775,70.046,523.775z M612,452.711v33.082H470c-1.853-27.553-17.413-51.35-39.946-64.662V88.819h33.081
		v363.892H612z M388.762,426.314c-35.884,0-64.975,29.09-64.975,64.973c0,35.885,29.091,64.975,64.975,64.975
		s64.975-29.09,64.975-64.975C453.736,455.404,424.646,426.314,388.762,426.314z M388.762,523.775
		c-17.942,0-32.487-14.545-32.487-32.486c0-17.943,14.546-32.488,32.487-32.488s32.487,14.545,32.487,32.488
		C421.249,509.23,406.704,523.775,388.762,523.775z"/>
</g>
<g>
</g>
<g>
</g>
<g>
</g>
<g>
</g>
<g>
</g>
<g>
</g>
<g>
</g>
<g>
</g>
<g>
</g>
<g>
</g>
<g>
</g>
<g>
</g>
<g>
</g>
<g>
</g>
<g>
</g>
</svg>
