<?xml version="1.0" encoding="iso-8859-1"?>
<!-- Generator: Adobe Illustrator 16.0.0, SVG Export Plug-In . SVG Version: 6.00 Build 0)  -->
<!DOCTYPE svg PUBLIC "-//W3C//DTD SVG 1.1//EN" "http://www.w3.org/Graphics/SVG/1.1/DTD/svg11.dtd">
<svg version="1.1" id="Capa_1" xmlns="http://www.w3.org/2000/svg" xmlns:xlink="http://www.w3.org/1999/xlink" x="0px" y="0px"
	 width="612px" height="611.999px" viewBox="0 0 612 611.999" style="enable-background:new 0 0 612 611.999;" xml:space="preserve"
	>
<g>
	<path d="M241.721,139.596c0,7.168-5.811,12.979-12.98,12.979c-7.168,0-12.979-5.811-12.979-12.979s5.811-12.979,12.979-12.979
		C235.91,126.617,241.721,132.429,241.721,139.596z M305.999,76.746c7.168,0,12.979-5.811,12.979-12.979
		s-5.811-12.979-12.979-12.979c-7.168,0-12.98,5.811-12.98,12.979S298.831,76.746,305.999,76.746z M298.579,154.993l86.211-15.014
		l-86.211-15.013c-1.667-0.283-3.469-0.307-5.229,0c-8.291,1.444-13.843,9.335-12.398,17.627
		C282.395,150.885,290.288,156.436,298.579,154.993z M318.978,216.854c0-7.168-5.811-12.979-12.979-12.979
		c-7.168,0-12.98,5.811-12.98,12.979s5.811,12.979,12.98,12.979C313.167,229.833,318.978,224.021,318.978,216.854z M472.894,547.265
		c5.309,0,9.611,4.304,9.611,9.612v19.349c0,5.31-4.303,9.612-9.611,9.612h-26.92v16.549c0,5.31-4.303,9.612-9.611,9.612h-28.838
		c-5.309,0-9.611-4.304-9.611-9.612v-16.549H211.649v16.549c0,5.31-4.304,9.612-9.612,9.612H173.2c-5.309,0-9.612-4.304-9.612-9.612
		v-16.549h-24.481c-5.309,0-9.612-4.304-9.612-9.612v-19.349c0-5.309,4.304-9.612,9.612-9.612h139.871v-269.95
		c-64.293-12.63-112.952-69.399-112.952-137.339c0-79.405,66.458-143.578,146.674-139.818
		c72.18,3.384,131.152,63.51,133.219,135.741c1.992,69.735-47.318,128.536-112.895,141.417v269.949H472.894z M306,243.925
		c57.314,0,103.943-46.629,103.943-103.95c0-57.314-46.629-103.944-103.943-103.944c-57.315,0-103.944,46.63-103.944,103.944
		C202.056,197.296,248.685,243.925,306,243.925z"/>
</g>
<g>
</g>
<g>
</g>
<g>
</g>
<g>
</g>
<g>
</g>
<g>
</g>
<g>
</g>
<g>
</g>
<g>
</g>
<g>
</g>
<g>
</g>
<g>
</g>
<g>
</g>
<g>
</g>
<g>
</g>
</svg>
