<?xml version="1.0" encoding="iso-8859-1"?>
<!-- Generator: Adobe Illustrator 16.0.0, SVG Export Plug-In . SVG Version: 6.00 Build 0)  -->
<!DOCTYPE svg PUBLIC "-//W3C//DTD SVG 1.1//EN" "http://www.w3.org/Graphics/SVG/1.1/DTD/svg11.dtd">
<svg version="1.1" id="Capa_1" xmlns="http://www.w3.org/2000/svg" xmlns:xlink="http://www.w3.org/1999/xlink" x="0px" y="0px"
	 width="612px" height="612px" viewBox="0 0 612 612" style="enable-background:new 0 0 612 612;" xml:space="preserve">
<g>
	<path d="M324.837,30.167H69.724c-37.509,0-67.915,30.407-67.915,67.915v226.466c0,37.509,30.407,67.915,67.915,67.915h255.113
		c37.509,0,67.915-30.407,67.915-67.915V98.082C392.752,60.573,362.346,30.167,324.837,30.167z M135.781,109.353l47.868,57.061
		c0,0-15.796,0-34.554,0v74.181h-26.628v-74.181c-18.151,0-33.543,0-34.553,0L135.781,109.353z M292.7,310.334H101.861v-24.092
		H292.7V310.334z M272.094,166.413v74.181h-26.628v-74.181c-18.15,0-33.544,0-34.554,0l47.868-57.061l47.868,57.061
		C306.646,166.413,290.852,166.413,272.094,166.413z M533.226,416.041c-1.424-0.236-531.802-0.236-533.226,0v165.615
		c1.424,0.237,531.802,0.237,533.226,0C577.121,579.521,612,543.218,612,498.848C612,454.479,577.121,418.176,533.226,416.041z
		 M77.996,533.681c-19.237,0-34.833-15.595-34.833-34.832c0-19.238,15.596-34.833,34.833-34.833s34.833,15.596,34.833,34.833
		S97.233,533.681,77.996,533.681z M235.53,533.681c-19.237,0-34.833-15.595-34.833-34.832c0-19.238,15.596-34.833,34.833-34.833
		c19.238,0,34.832,15.596,34.832,34.833S254.767,533.681,235.53,533.681z M383.089,533.681c-19.237,0-34.833-15.595-34.833-34.832
		c0-19.238,15.596-34.833,34.833-34.833s34.833,15.596,34.833,34.833S402.326,533.681,383.089,533.681z M530.649,533.681
		c-19.238,0-34.833-15.595-34.833-34.832c0-19.238,15.596-34.833,34.833-34.833s34.832,15.596,34.832,34.833
		S549.887,533.681,530.649,533.681z M595.766,224.636l-67.982,68.005c-6.283,6.285-17.028,1.835-17.028-7.052v-28.117h-78.894
		c-5.509,0-9.974-4.465-9.974-9.974v-59.845c0-5.509,4.465-9.974,9.974-9.974h78.894v-28.111c0-8.887,10.746-13.337,17.029-7.051
		l67.982,68.015C599.66,214.428,599.66,220.741,595.766,224.636z"/>
</g>
<g>
</g>
<g>
</g>
<g>
</g>
<g>
</g>
<g>
</g>
<g>
</g>
<g>
</g>
<g>
</g>
<g>
</g>
<g>
</g>
<g>
</g>
<g>
</g>
<g>
</g>
<g>
</g>
<g>
</g>
</svg>
