<?xml version="1.0" encoding="iso-8859-1"?>
<!-- Generator: Adobe Illustrator 16.0.0, SVG Export Plug-In . SVG Version: 6.00 Build 0)  -->
<!DOCTYPE svg PUBLIC "-//W3C//DTD SVG 1.1//EN" "http://www.w3.org/Graphics/SVG/1.1/DTD/svg11.dtd">
<svg version="1.1" id="Capa_1" xmlns="http://www.w3.org/2000/svg" xmlns:xlink="http://www.w3.org/1999/xlink" x="0px" y="0px"
	 width="612px" height="612px" viewBox="0 0 612 612" style="enable-background:new 0 0 612 612;" xml:space="preserve">
<g>
	<path d="M103.812,65.978C103.812,29.539,133.351,0,169.791,0c36.438,0,65.978,29.539,65.978,65.978
		c0,36.438-29.539,65.978-65.978,65.978C133.351,131.956,103.812,102.416,103.812,65.978z M419.711,155.499H218.486l-28.033,36.716
		l-9.866-19.303c3.098-1.621,5.822-3.607,7.548-5.334c3.078-3.078,7.23-13.838-2.71-20.529c-3.728-2.509-10.695-3.169-15.634-2.974
		c-4.94-0.195-11.906,0.465-15.634,2.974c-9.94,6.689-5.789,17.451-2.71,20.529c1.727,1.727,4.451,3.713,7.548,5.334l-10.217,19.99
		l-29.801-37.403H81.954c-18.031,0-32.647,14.617-32.647,32.647v171.287c0,17.589,13.203,33.225,30.766,34.215
		c10.062,0.567,19.178-3.447,25.524-10.123v192.116c0,20.08,16.278,36.358,36.358,36.358h79.716
		c20.08,0,36.358-16.278,36.358-36.358V229.883c0-5.02,4.069-9.09,9.09-9.09h151.737c15.58,0,29.73-10.567,32.816-25.838
		C455.912,173.947,439.965,155.499,419.711,155.499z M562.693,416.546v150.362c0,24.903-20.189,45.092-45.094,45.092H348.219
		c-24.904,0-45.093-20.188-45.093-45.092V416.546c0-24.904,20.189-45.093,45.093-45.093h68.904v33.94h31.994v-33.94h68.484
		C542.504,371.453,562.693,391.642,562.693,416.546z M475.643,502.402l-48.307-57.584l-48.48,57.373c1.018,0,1.012,0,28.295,0
		v66.263h40.023v-66.263C475.367,502.192,475.643,502.402,475.643,502.402z"/>
</g>
<g>
</g>
<g>
</g>
<g>
</g>
<g>
</g>
<g>
</g>
<g>
</g>
<g>
</g>
<g>
</g>
<g>
</g>
<g>
</g>
<g>
</g>
<g>
</g>
<g>
</g>
<g>
</g>
<g>
</g>
</svg>
