<?xml version="1.0" encoding="iso-8859-1"?>
<!-- Generator: Adobe Illustrator 16.0.0, SVG Export Plug-In . SVG Version: 6.00 Build 0)  -->
<!DOCTYPE svg PUBLIC "-//W3C//DTD SVG 1.1//EN" "http://www.w3.org/Graphics/SVG/1.1/DTD/svg11.dtd">
<svg version="1.1" id="Capa_1" xmlns="http://www.w3.org/2000/svg" xmlns:xlink="http://www.w3.org/1999/xlink" x="0px" y="0px"
	 width="612px" height="612px" viewBox="0 0 612 612" style="enable-background:new 0 0 612 612;" xml:space="preserve">
<g>
	<path d="M540.632,234.535l-63.029-79.021c-5.957-7.447-14.973-11.838-24.537-11.838h-20.227l-18.344,15.679h38.57
		c4.859,0,9.328,2.196,12.309,5.958l54.639,68.594H91.985l54.64-68.594c2.979-3.763,7.447-5.958,12.308-5.958h38.648l-18.344-15.679
		h-20.304c-9.564,0-18.58,4.391-24.538,11.838l-63.028,79.021c-6.507,8.231-11.916,23.674-11.916,34.18v304.088
		c0,21.637,17.56,39.197,39.197,39.197h414.701c21.637,0,39.197-17.56,39.197-39.197V268.715
		C552.548,258.209,547.138,242.767,540.632,234.535z M427.274,431.773l24.381-42.176c2.43-4.154,8.465-4.154,10.896,0l24.381,42.176
		c2.43,4.233-0.629,9.486-5.488,9.486h-10.191v78.628c0,3.528-2.822,6.271-6.271,6.271h-15.758c-3.449,0-6.271-2.743-6.271-6.271
		v-78.629h-10.191C427.901,441.259,424.845,436.007,427.274,431.773z M332.966,431.773l24.381-42.176
		c2.432-4.154,8.467-4.154,10.896,0l24.381,42.176c2.43,4.233-0.627,9.486-5.486,9.486h-10.191v78.628
		c0,3.528-2.822,6.271-6.271,6.271h-15.758c-3.449,0-6.271-2.743-6.271-6.271v-78.629h-10.191
		C333.595,441.259,330.536,436.007,332.966,431.773z M498.847,561.75c0,1.725-1.41,3.136-3.135,3.136H322.228
		c-1.727,0-3.137-1.41-3.137-3.136v-9.485c0-1.725,1.41-3.136,3.137-3.136h173.484c1.725,0,3.135,1.41,3.135,3.136V561.75z
		 M371.054,83.117h75.191c7.285,0,10.631,9.07,5.09,13.801L311.077,216.685c-2.932,2.504-7.25,2.504-10.181,0L160.66,96.918
		c-5.539-4.731-2.194-13.801,5.091-13.801h75.188c4.33,0,7.839-3.51,7.839-7.84V7.84c0-4.33,3.51-7.84,7.84-7.84h98.759
		c4.33,0,7.84,3.51,7.84,7.84v67.438C363.216,79.607,366.726,83.117,371.054,83.117z"/>
</g>
<g>
</g>
<g>
</g>
<g>
</g>
<g>
</g>
<g>
</g>
<g>
</g>
<g>
</g>
<g>
</g>
<g>
</g>
<g>
</g>
<g>
</g>
<g>
</g>
<g>
</g>
<g>
</g>
<g>
</g>
</svg>
