<?xml version="1.0" encoding="iso-8859-1"?>
<!-- Generator: Adobe Illustrator 16.0.0, SVG Export Plug-In . SVG Version: 6.00 Build 0)  -->
<!DOCTYPE svg PUBLIC "-//W3C//DTD SVG 1.1//EN" "http://www.w3.org/Graphics/SVG/1.1/DTD/svg11.dtd">
<svg version="1.1" id="Capa_1" xmlns="http://www.w3.org/2000/svg" xmlns:xlink="http://www.w3.org/1999/xlink" x="0px" y="0px"
	 width="612px" height="612px" viewBox="0 0 612 612" style="enable-background:new 0 0 612 612;" xml:space="preserve">
<g>
	<path d="M283.221,72.536h-60.658v30.062h-28.336V72.536h-61.03c-22.057,0-39.938,17.882-39.938,39.939v133.177
		c0,22.057,17.881,39.938,39.938,39.938h150.024c22.058,0,39.939-17.881,39.939-39.938V112.476
		C323.16,90.417,305.279,72.536,283.221,72.536z M225.857,188.333v58.689h-35.45v-58.689c-24.164,0-24.159,0-25.061,0l42.941-50.815
		l42.785,51.002C251.072,188.52,250.828,188.333,225.857,188.333z M278.029,539.464H45.714c-9.01,0-17.354-2.695-24.433-7.195
		l137.256-84.984l140.372,86.914C292.623,537.452,285.595,539.464,278.029,539.464z M3.745,511.829
		C1.351,506.28,0,500.177,0,493.751V367.618c0-5.842,1.198-11.381,3.196-16.518l130.066,80.533L3.745,511.829z M158.537,415.985
		L19.745,330.05c7.381-5.113,16.311-8.146,25.969-8.146h232.315c8.231,0,15.845,2.348,22.516,6.156L158.537,415.985z
		 M183.812,431.634l135.28-83.762c2.893,5.998,4.652,12.641,4.652,19.746v126.133c0,7.682-2.074,14.812-5.423,21.168
		L183.812,431.634z M565.94,75.763h-69.954v66.872h-32.68V75.763h-70.384c-25.438,0-46.061,20.622-46.061,46.061v370.955
		c0,25.439,20.622,46.061,46.061,46.061H565.94c25.438,0,46.06-20.621,46.06-46.061V121.824
		C612,96.385,591.378,75.763,565.94,75.763z M437.723,265.042l32.463,38.699c0,0-10.713,0-23.434,0v50.309h-18.06v-50.309
		c-12.31,0-22.751,0-23.435,0L437.723,265.042z M544.144,401.349H414.718v-16.34h129.427L544.144,401.349L544.144,401.349z
		 M530.17,303.741v50.309h-18.06v-50.309c-12.31,0-22.75,0-23.435,0l32.465-38.699l32.463,38.699
		C553.604,303.741,542.892,303.741,530.17,303.741z"/>
</g>
<g>
</g>
<g>
</g>
<g>
</g>
<g>
</g>
<g>
</g>
<g>
</g>
<g>
</g>
<g>
</g>
<g>
</g>
<g>
</g>
<g>
</g>
<g>
</g>
<g>
</g>
<g>
</g>
<g>
</g>
</svg>
