<?xml version="1.0" encoding="iso-8859-1"?>
<!-- Generator: Adobe Illustrator 16.0.0, SVG Export Plug-In . SVG Version: 6.00 Build 0)  -->
<!DOCTYPE svg PUBLIC "-//W3C//DTD SVG 1.1//EN" "http://www.w3.org/Graphics/SVG/1.1/DTD/svg11.dtd">
<svg version="1.1" id="Capa_1" xmlns="http://www.w3.org/2000/svg" xmlns:xlink="http://www.w3.org/1999/xlink" x="0px" y="0px"
	 width="612px" height="612px" viewBox="0 0 612 612" style="enable-background:new 0 0 612 612;" xml:space="preserve">
<g>
	<path d="M472.742,170.58h-65.211v32.318h-30.464V170.58h-65.611c-23.713,0-42.938,19.224-42.938,42.937v143.176
		c0,23.713,19.224,42.937,42.938,42.937h161.286c23.714,0,42.938-19.224,42.938-42.937V213.517
		C515.681,189.804,496.456,170.58,472.742,170.58z M405.683,295.07v63.095h-38.111V295.07c-25.979,0-25.973,0-26.942,0
		l46.164-54.632l45.997,54.832C432.79,295.271,432.527,295.07,405.683,295.07z M131.856,463.263
		c-21.32,0-38.603,17.283-38.603,38.604c0,21.319,17.283,38.604,38.603,38.604s38.604-17.284,38.604-38.604
		C170.459,480.546,153.176,463.263,131.856,463.263z M131.856,521.168c-10.66,0-19.301-8.642-19.301-19.301
		c0-10.66,8.642-19.302,19.301-19.302c10.66,0,19.302,8.641,19.302,19.302C151.158,512.527,142.517,521.168,131.856,521.168z
		 M612,447.885c0,11.039-8.95,19.99-19.99,19.99h-24.857c-10.639-14.868-28.004-24.607-47.637-24.607
		c-19.632,0-36.997,9.739-47.636,24.607H179.497c-10.639-14.868-28.004-24.607-47.637-24.607s-36.998,9.739-47.636,24.607h-31.59
		V149.217c0-2.987-1.317-5.788-3.602-7.681L7.236,106.914c-8.501-7.047-9.683-19.648-2.636-28.149
		c7.038-8.482,19.619-9.692,28.15-2.635l41.776,34.611c11.488,9.507,18.087,23.533,18.087,38.477v60.026h41.599l99.95,102.057
		v116.595H592.01C603.05,427.895,612,436.846,612,447.885z M519.513,463.263c-21.32,0-38.604,17.283-38.604,38.604
		c0,21.319,17.283,38.604,38.604,38.604c21.319,0,38.604-17.284,38.604-38.604C558.116,480.546,540.832,463.263,519.513,463.263z
		 M519.513,521.168c-10.661,0-19.302-8.642-19.302-19.301c0-10.66,8.642-19.302,19.302-19.302s19.302,8.641,19.302,19.302
		C538.814,512.527,530.172,521.168,519.513,521.168z"/>
</g>
<g>
</g>
<g>
</g>
<g>
</g>
<g>
</g>
<g>
</g>
<g>
</g>
<g>
</g>
<g>
</g>
<g>
</g>
<g>
</g>
<g>
</g>
<g>
</g>
<g>
</g>
<g>
</g>
<g>
</g>
</svg>
