<?xml version="1.0" encoding="iso-8859-1"?>
<!-- Generator: Adobe Illustrator 16.0.0, SVG Export Plug-In . SVG Version: 6.00 Build 0)  -->
<!DOCTYPE svg PUBLIC "-//W3C//DTD SVG 1.1//EN" "http://www.w3.org/Graphics/SVG/1.1/DTD/svg11.dtd">
<svg version="1.1" id="Capa_1" xmlns="http://www.w3.org/2000/svg" xmlns:xlink="http://www.w3.org/1999/xlink" x="0px" y="0px"
	 width="612px" height="611.999px" viewBox="0 0 612 611.999" style="enable-background:new 0 0 612 611.999;" xml:space="preserve"
	>
<g>
	<path d="M96.576,65.978C96.576,29.539,126.115,0,162.554,0s65.978,29.539,65.978,65.978c0,36.438-29.539,65.978-65.978,65.978
		S96.576,102.416,96.576,65.978z M569.929,395.704v158.985c0,26.332-21.347,47.678-47.679,47.678H343.154
		c-26.332,0-47.678-21.346-47.678-47.678V395.704c0-26.332,21.346-47.679,47.678-47.679h72.856v35.888h33.827v-35.888h72.413
		C548.583,348.025,569.929,369.372,569.929,395.704z M355.924,450.677c0.708,0,11.515,0,24.257,0v52.076h18.694v-52.076
		c13.168,0,24.258,0,24.258,0l-33.604-40.059L355.924,450.677z M499.689,534.799H365.716v16.914h133.973V534.799z M509.481,450.677
		l-33.604-40.059l-33.604,40.059c0.708,0,11.516,0,24.258,0v52.076h18.693v-52.076C498.392,450.677,509.481,450.677,509.481,450.677
		z M412.474,155.499H211.25l-28.033,36.716l-9.866-19.303c3.098-1.621,5.822-3.607,7.548-5.334c3.078-3.078,7.23-13.838-2.71-20.529
		c-3.728-2.509-10.694-3.169-15.634-2.974c-4.94-0.195-11.906,0.465-15.634,2.974c-9.94,6.689-5.789,17.451-2.71,20.529
		c1.727,1.727,4.451,3.713,7.548,5.334l-10.217,19.99l-29.8-37.403H74.717c-18.031,0-32.647,14.617-32.647,32.647v171.287
		c0,17.589,13.203,33.225,30.765,34.215c10.062,0.567,19.178-3.447,25.524-10.123v192.116c0,20.08,16.278,36.358,36.358,36.358
		h79.716c20.08,0,36.358-16.278,36.358-36.358V229.883c0-5.02,4.069-9.09,9.089-9.09H411.62c15.58,0,29.729-10.567,32.815-25.838
		C448.676,173.947,432.728,155.499,412.474,155.499z"/>
</g>
<g>
</g>
<g>
</g>
<g>
</g>
<g>
</g>
<g>
</g>
<g>
</g>
<g>
</g>
<g>
</g>
<g>
</g>
<g>
</g>
<g>
</g>
<g>
</g>
<g>
</g>
<g>
</g>
<g>
</g>
</svg>
