<?xml version="1.0" encoding="iso-8859-1"?>
<!-- Generator: Adobe Illustrator 16.0.0, SVG Export Plug-In . SVG Version: 6.00 Build 0)  -->
<!DOCTYPE svg PUBLIC "-//W3C//DTD SVG 1.1//EN" "http://www.w3.org/Graphics/SVG/1.1/DTD/svg11.dtd">
<svg version="1.1" id="Capa_1" xmlns="http://www.w3.org/2000/svg" xmlns:xlink="http://www.w3.org/1999/xlink" x="0px" y="0px"
	 width="612px" height="612px" viewBox="0 0 612 612" style="enable-background:new 0 0 612 612;" xml:space="preserve">
<g>
	<path d="M465.533,324.238c-3.012,11.211-13.219,18.573-24.262,18.573c-2.176,0-4.351-0.167-6.526-0.836l-81.489-21.92
		c-11.045-3.012-18.574-12.885-18.574-24.263V170.296c0-13.888,11.212-25.1,25.1-25.1c13.889,0,25.1,11.212,25.1,25.1v106.255
		l62.916,16.899C461.184,297.131,469.215,310.853,465.533,324.238z M366.642,46.745c-88.515,0-166.069,46.896-209.223,117.182
		l26.022,62.59c26.956-75.242,98.695-129.18,183.201-129.18c107.556,0,194.767,87.211,194.767,194.767
		c0,76.65-44.405,142.777-108.79,174.56l-0.608,55.511C545.421,487.494,612,397.577,612,292.103
		C612,156.604,502.14,46.745,366.642,46.745z M377.695,553.919c-30.42,30.415-143.808,1.601-255.887-110.467
		C9.742,331.37-19.091,217.98,11.346,187.554c26.365-26.366,58.498-72.421,106.702-12.432c48.22,59.965,24.53,76.748-2.688,103.962
		c-18.999,19.003,20.686,67.08,62.206,108.605c41.518,41.521,89.602,81.212,108.603,62.204
		c27.217-27.211,43.989-50.908,103.973-2.702C450.124,495.421,404.056,527.551,377.695,553.919z M76.176,207.092l-20.57-32.173
		c0,0-0.27,0.252-0.775,0.725c-0.571,0.509-1.096,1.089-2.378,2.163c-2.239,1.952-6.082,5.135-10.508,9.49
		c-2.219,2.31-4.572,4.791-6.853,7.825c-2.267,2.943-4.536,6.318-6.338,10.046c-1.972,3.648-3.26,7.749-4.47,11.793
		c-0.76,4.176-1.597,8.309-1.473,12.397c-0.288,4.096,0.426,7.985,0.858,11.755c0.613,3.73,1.72,7.212,2.537,10.568
		c2.294,6.505,4.706,12.287,7.29,16.986c2.243,4.833,4.798,8.233,6.303,10.878c1.587,2.567,2.494,4.035,2.494,4.035
		s-0.353-1.687-0.969-4.64c-0.503-2.943-1.78-7.19-2.188-12.216c-0.779-4.945-1.012-10.747-0.975-16.788
		c0.365-2.989,0.466-6.049,1.039-8.994c0.745-2.903,1.192-5.851,2.439-8.413c0.859-2.706,2.45-4.958,3.681-7.161
		c1.658-1.999,3.09-3.904,4.933-5.396c1.687-1.578,3.559-2.852,5.441-3.977c1.815-1.141,3.807-2.068,5.583-2.923
		c3.805-1.656,7.225-2.896,10.084-3.991c1.511-0.618,2.698-1.104,3.507-1.435C75.723,207.284,76.176,207.092,76.176,207.092z
		 M386.628,509.535l-33.318-18.658c0,0-0.539,1.57-1.482,4.319c-0.866,2.61-2.017,5.946-3.62,9.726
		c-3.243,7.325-8.84,16.103-19.125,21.085l-3.896,1.82l-4.199,1.288c-2.795,1.056-5.808,1.221-8.712,1.802
		c-2.923,0.522-5.845,0.383-8.645,0.599c-2.837,0.264-5.397-0.172-7.895-0.223c-4.959-0.1-9.24-1.025-12.172-1.419
		c-2.951-0.452-4.637-0.712-4.637-0.712s1.495,0.824,4.111,2.266c2.665,1.4,6.197,3.663,11.13,5.621
		c2.435,0.964,5.067,2.411,8.002,3.202c2.935,0.844,6,2.1,9.381,2.727c3.389,0.564,6.908,1.571,10.686,1.619l5.742,0.309
		l5.919-0.423c3.979-0.323,8.032-1.282,11.936-2.472c3.946-1.232,7.681-2.888,11.192-4.817c3.406-1.975,6.75-4.078,9.501-6.377
		c2.938-2.218,5.296-4.568,7.584-6.737c4.292-4.404,7.458-8.291,9.476-10.803C385.521,510.895,386.628,509.535,386.628,509.535z"/>
</g>
<g>
</g>
<g>
</g>
<g>
</g>
<g>
</g>
<g>
</g>
<g>
</g>
<g>
</g>
<g>
</g>
<g>
</g>
<g>
</g>
<g>
</g>
<g>
</g>
<g>
</g>
<g>
</g>
<g>
</g>
</svg>
