<?xml version="1.0" encoding="iso-8859-1"?>
<!-- Generator: Adobe Illustrator 16.0.0, SVG Export Plug-In . SVG Version: 6.00 Build 0)  -->
<!DOCTYPE svg PUBLIC "-//W3C//DTD SVG 1.1//EN" "http://www.w3.org/Graphics/SVG/1.1/DTD/svg11.dtd">
<svg version="1.1" id="Capa_1" xmlns="http://www.w3.org/2000/svg" xmlns:xlink="http://www.w3.org/1999/xlink" x="0px" y="0px"
	 width="611.998px" height="611.998px" viewBox="0 0 611.998 611.998" style="enable-background:new 0 0 611.998 611.998;"
	 xml:space="preserve">
<g>
	<path d="M598.007,109.07l-73.663-92.419c-6.958-8.729-17.515-13.815-28.679-13.815H169.943c-11.164,0-21.72,5.085-28.678,13.815
		L67.601,109.07c-7.696,9.655-13.992,27.656-13.992,40.002v152.604c28.321-47.217,79.863-78.988,138.814-78.988
		c89.294,0,161.934,72.641,161.934,161.926c0,52.824-25.536,99.674-64.787,129.25h276.585c25.318,0,45.843-20.523,45.843-45.842
		V149.072C611.999,136.726,605.703,118.725,598.007,109.07z M91.675,108.287l24.395-30.605h120.598l16.425-27.005H137.594
		l18.011-22.596c3.499-4.391,8.726-6.908,14.339-6.908h325.722c5.614,0,10.841,2.518,14.34,6.908l18.011,22.596H409.643
		l9.169,27.005h130.729l24.394,30.605H91.675z M192.429,250.195c-74.24,0-134.423,60.184-134.423,134.424
		c0,31.756,11.076,60.889,29.489,83.893L8.52,554.762c-12.106,13.227-11.204,33.768,2.023,45.881
		c6.236,5.701,14.086,8.52,21.922,8.52c8.788,0,17.554-3.551,23.959-10.541l82.888-90.523c16.298,7.021,34.244,10.945,53.117,10.945
		c74.24,0,134.423-60.184,134.423-134.424C326.853,310.381,266.668,250.195,192.429,250.195z M192.429,473.137
		c-48.888,0-88.519-39.631-88.519-88.518c0-48.889,39.631-88.52,88.519-88.52s88.519,39.631,88.519,88.52
		C280.948,433.506,241.316,473.137,192.429,473.137z"/>
</g>
<g>
</g>
<g>
</g>
<g>
</g>
<g>
</g>
<g>
</g>
<g>
</g>
<g>
</g>
<g>
</g>
<g>
</g>
<g>
</g>
<g>
</g>
<g>
</g>
<g>
</g>
<g>
</g>
<g>
</g>
</svg>
