<?xml version="1.0" encoding="iso-8859-1"?>
<!-- Generator: Adobe Illustrator 16.0.0, SVG Export Plug-In . SVG Version: 6.00 Build 0)  -->
<!DOCTYPE svg PUBLIC "-//W3C//DTD SVG 1.1//EN" "http://www.w3.org/Graphics/SVG/1.1/DTD/svg11.dtd">
<svg version="1.1" id="Capa_1" xmlns="http://www.w3.org/2000/svg" xmlns:xlink="http://www.w3.org/1999/xlink" x="0px" y="0px"
	 width="611.999px" height="611.999px" viewBox="0 0 611.999 611.999" style="enable-background:new 0 0 611.999 611.999;"
	 xml:space="preserve">
<g>
	<path d="M161.369,329.584v37.517h-35.363v-37.517H49.843C22.315,329.584,0,351.9,0,379.427v166.201
		c0,27.527,22.315,49.843,49.843,49.843h187.226c27.527,0,49.843-22.315,49.843-49.843V379.427
		c0-27.527-22.315-49.843-49.843-49.843H161.369L161.369,329.584z M98.322,395.018l35.129,41.877c0,0-11.593,0-25.359,0v54.439
		H88.549v-54.439c-13.321,0-24.618,0-25.359,0L98.322,395.018z M213.482,542.518H73.429v-17.682h140.055L213.482,542.518
		L213.482,542.518z M198.361,436.895v54.439h-19.543v-54.439c-13.321,0-24.618,0-25.359,0l35.129-41.877l35.13,41.877
		C223.72,436.895,212.127,436.895,198.361,436.895z M486.458,329.584v37.517h-35.362v-37.517h-76.165
		c-27.527,0-49.843,22.315-49.843,49.843v166.201c0,27.527,22.315,49.843,49.843,49.843h187.226
		c27.528,0,49.843-22.315,49.843-49.843V379.427c0-27.527-22.314-49.843-49.843-49.843H486.458L486.458,329.584z M423.411,395.018
		l35.129,41.877c0,0-11.593,0-25.358,0v54.439h-19.543v-54.439c-13.321,0-24.618,0-25.359,0L423.411,395.018z M538.571,542.518
		H398.517v-17.682h140.055V542.518z M523.449,436.895v54.439h-19.542v-54.439c-13.321,0-24.618,0-25.359,0l35.13-41.877
		l35.13,41.877C548.808,436.895,537.215,436.895,523.449,436.895z M315.688,16.528v37.517h-35.363V16.528H204.16
		c-27.528,0-49.843,22.315-49.843,49.843v166.202c0,27.527,22.315,49.843,49.843,49.843h187.226
		c27.527,0,49.843-22.315,49.843-49.843V66.371c0-27.528-22.315-49.843-49.843-49.843H315.688z M252.64,81.961l35.129,41.877
		c0,0-11.593,0-25.359,0v54.44h-19.542v-54.44c-13.321,0-24.618,0-25.359,0L252.64,81.961z M367.801,229.461H227.746V211.78h140.055
		V229.461z M352.679,123.838v54.44h-19.543v-54.44c-13.32,0-24.617,0-25.358,0l35.129-41.877l35.13,41.877
		C378.037,123.838,366.445,123.838,352.679,123.838z"/>
</g>
<g>
</g>
<g>
</g>
<g>
</g>
<g>
</g>
<g>
</g>
<g>
</g>
<g>
</g>
<g>
</g>
<g>
</g>
<g>
</g>
<g>
</g>
<g>
</g>
<g>
</g>
<g>
</g>
<g>
</g>
</svg>
