<?xml version="1.0" encoding="iso-8859-1"?>
<!-- Generator: Adobe Illustrator 16.0.0, SVG Export Plug-In . SVG Version: 6.00 Build 0)  -->
<!DOCTYPE svg PUBLIC "-//W3C//DTD SVG 1.1//EN" "http://www.w3.org/Graphics/SVG/1.1/DTD/svg11.dtd">
<svg version="1.1" id="Capa_1" xmlns="http://www.w3.org/2000/svg" xmlns:xlink="http://www.w3.org/1999/xlink" x="0px" y="0px"
	 width="612px" height="612px" viewBox="0 0 612 612" style="enable-background:new 0 0 612 612;" xml:space="preserve">
<g>
	<path d="M612,553.586v32.107c0,5.911-4.792,10.702-10.702,10.702H10.702C4.792,596.396,0,591.604,0,585.693v-32.107
		c0-5.91,4.792-10.702,10.702-10.702h590.596C607.208,542.884,612,547.675,612,553.586z M122.021,491.431h53.512
		c11.821,0,21.405-9.583,21.405-21.404V202.131h34.823c16.478,0,26.776-17.839,18.536-32.109L167.305,26.305
		c-8.24-14.268-28.834-14.267-37.073,0.001L47.255,170.023c-8.239,14.27,2.059,32.107,18.537,32.107h34.825v267.896
		C100.617,481.848,110.2,491.431,122.021,491.431z M443.104,491.431h53.512c11.821,0,21.404-9.583,21.404-21.404V202.131h34.827
		c16.478,0,26.776-17.839,18.535-32.109L488.39,26.305c-8.239-14.268-28.834-14.267-37.072,0.001l-82.977,143.717
		c-8.239,14.27,2.06,32.107,18.536,32.107h34.821v267.896C421.698,481.848,431.282,491.431,443.104,491.431z"/>
</g>
<g>
</g>
<g>
</g>
<g>
</g>
<g>
</g>
<g>
</g>
<g>
</g>
<g>
</g>
<g>
</g>
<g>
</g>
<g>
</g>
<g>
</g>
<g>
</g>
<g>
</g>
<g>
</g>
<g>
</g>
</svg>
