<?xml version="1.0" encoding="iso-8859-1"?>
<!-- Generator: Adobe Illustrator 16.0.0, SVG Export Plug-In . SVG Version: 6.00 Build 0)  -->
<!DOCTYPE svg PUBLIC "-//W3C//DTD SVG 1.1//EN" "http://www.w3.org/Graphics/SVG/1.1/DTD/svg11.dtd">
<svg version="1.1" id="Capa_1" xmlns="http://www.w3.org/2000/svg" xmlns:xlink="http://www.w3.org/1999/xlink" x="0px" y="0px"
	 width="612px" height="612px" viewBox="0 0 612 612" style="enable-background:new 0 0 612 612;" xml:space="preserve">
<g>
	<path d="M577.495,400.773l-43.732-3.488v167.14l-213.549,45.922c-9.98,2.191-20.366,2.191-30.345,0.081L84.92,567.345
		c-3.651-0.811-6.329-3.976-6.41-7.708l-3.57-136.632c-0.081-4.301,3.164-7.952,7.384-8.357l174.116-15.253
		c3.002-0.243,5.598-2.19,6.734-5.031l41.866-101.582v278.701l189.208-35.942V394.039l-111.459-7.067
		c-9.007-0.571-16.958-6.079-20.659-14.31l-57.739-128.399l-58.012,130.71c-1.217,2.678-3.731,4.463-6.572,4.787L34.617,400.449
		c-6.248,0.649-10.792-5.761-8.114-11.521l54.604-116.755c1.136-2.353,3.327-4.057,5.842-4.543l210.465-38.621l6.978-1.298
		l6.816,1.217l215.01,38.702c2.596,0.487,4.787,2.191,5.923,4.625l53.388,117.079C588.124,395.013,583.66,401.261,577.495,400.773z
		 M311.207,18.347c38.69,0,71.436,17.636,92.094,32.431c24.478,17.531,37.068,34.489,40.339,40.957
		c-3.27,6.468-15.861,23.426-40.339,40.957c-20.658,14.795-53.403,32.432-92.094,32.432c-38.691,0-71.437-17.636-92.094-32.432
		c-24.477-17.531-37.068-34.488-40.338-40.957c3.27-6.468,15.861-23.426,40.338-40.957
		C239.771,35.983,272.517,18.347,311.207,18.347 M311.207,0c-83.596,0-151.363,73.388-151.363,91.735
		c0,18.347,67.768,91.735,151.363,91.735S462.57,110.082,462.57,91.735S394.803,0,311.207,0L311.207,0z M311.207,36.694
		c-30.398,0-55.041,24.643-55.041,55.041s24.643,55.041,55.041,55.041c30.398,0,55.041-24.643,55.041-55.041
		S341.605,36.694,311.207,36.694z M296.388,91.735c-12.861,0-23.287-10.425-23.287-23.287s10.425-23.287,23.287-23.287
		c12.862,0,23.287,10.425,23.287,23.287S309.249,91.735,296.388,91.735z"/>
</g>
<g>
</g>
<g>
</g>
<g>
</g>
<g>
</g>
<g>
</g>
<g>
</g>
<g>
</g>
<g>
</g>
<g>
</g>
<g>
</g>
<g>
</g>
<g>
</g>
<g>
</g>
<g>
</g>
<g>
</g>
</svg>
