<?xml version="1.0" encoding="iso-8859-1"?>
<!-- Generator: Adobe Illustrator 16.0.0, SVG Export Plug-In . SVG Version: 6.00 Build 0)  -->
<!DOCTYPE svg PUBLIC "-//W3C//DTD SVG 1.1//EN" "http://www.w3.org/Graphics/SVG/1.1/DTD/svg11.dtd">
<svg version="1.1" id="Capa_1" xmlns="http://www.w3.org/2000/svg" xmlns:xlink="http://www.w3.org/1999/xlink" x="0px" y="0px"
	 width="612px" height="612px" viewBox="0 0 612 612" style="enable-background:new 0 0 612 612;" xml:space="preserve">
<g>
	<path d="M530.527,32.076c27.238,0,49.396,22.159,49.396,49.396v449.163c0,27.178-22.158,49.289-49.396,49.289H81.365
		c-27.178,0-49.29-22.111-49.29-49.289V81.472c0-27.237,22.111-49.396,49.29-49.396H530.527 M530.527,0H81.365
		C36.566,0,0,36.566,0,81.472v449.163C0,575.54,36.566,612,81.365,612h449.162C575.433,612,612,575.541,612,530.636V81.472
		C612,36.566,575.434,0,530.527,0L530.527,0z M292.313,557.575v-70.133l-74.252,70.133H292.313z M431.845,557.575V355.475
		l-112.05,105.979v96.122H431.845z M530.529,557.575c14.916,0,27.049-12.08,27.049-26.938v-293.92l-98.258,92.802v228.057H530.529
		L530.529,557.575z M178.102,557.575l379.476-358.697V81.477c0-14.921-12.133-27.054-27.049-27.054h-61.353L54.42,446.48v84.156
		c0,14.858,12.085,26.938,26.943,26.938H178.102z M319.795,157.948L429.188,54.424H319.795V157.948z M180.159,289.988
		l112.154-106.083V54.424H180.159V289.988z M54.42,408.777l98.257-92.938V54.424H81.365c-14.858,0-26.943,12.133-26.943,27.053
		L54.42,408.777L54.42,408.777z"/>
</g>
<g>
</g>
<g>
</g>
<g>
</g>
<g>
</g>
<g>
</g>
<g>
</g>
<g>
</g>
<g>
</g>
<g>
</g>
<g>
</g>
<g>
</g>
<g>
</g>
<g>
</g>
<g>
</g>
<g>
</g>
</svg>
