<?xml version="1.0" encoding="iso-8859-1"?>
<!-- Generator: Adobe Illustrator 16.0.0, SVG Export Plug-In . SVG Version: 6.00 Build 0)  -->
<!DOCTYPE svg PUBLIC "-//W3C//DTD SVG 1.1//EN" "http://www.w3.org/Graphics/SVG/1.1/DTD/svg11.dtd">
<svg version="1.1" id="Capa_1" xmlns="http://www.w3.org/2000/svg" xmlns:xlink="http://www.w3.org/1999/xlink" x="0px" y="0px"
	 width="612px" height="612px" viewBox="0 0 612 612" style="enable-background:new 0 0 612 612;" xml:space="preserve">
<g>
	<path d="M501.68,352.983c-3.836,9.424-10.545,16.951-18.816,21.966h14.926c-3.018,35.899-14.734,69.34-33.049,98.23
		c-15.988-3.948-32.709-7.376-50.068-10.198c3.633-28.439,5.793-57.891,6.465-88.031h14.035c-8.287-5.02-15.01-12.559-18.852-21.993
		c-8.963-21.976-20.729-39.065-33.766-54.861c0.877,13.157,1.486,26.469,1.744,39.95h-84.027v-81.304
		c14.853-0.333,29.453-1.114,43.875-2.163c-9.4-10.952-18.314-22.589-26.051-35.541c-5.943,0.263-11.809,0.658-17.823,0.799v-41.739
		c-1.49-5.299-2.828-10.757-3.848-16.54c-3.528-20.004-3.197-40.282,0.334-59.956c-5.538-0.359-11.104-0.608-16.732-0.608
		c-140.888,0-255.502,114.615-255.502,255.502S139.139,612,280.027,612c140.887,0,255.502-114.614,255.502-255.502
		c0-17.764-1.832-35.105-5.299-51.856C519.287,318.661,509.424,333.979,501.68,352.983z M168.75,168.447
		c-3.419,13.617-6.452,27.953-9.11,42.945c-12.554-1.902-24.783-4.148-36.704-6.676C136.492,190.691,151.885,178.465,168.75,168.447
		z M97.301,236.719c18.193,4.436,37.184,8.183,56.84,11.161c-3.671,29.07-5.792,59.245-6.356,90.165H62.264
		C65.39,300.859,77.842,266.303,97.301,236.719z M95.336,473.215c-18.329-28.898-30.054-62.352-33.072-98.265h85.586
		c0.66,29.689,2.76,58.682,6.288,86.65C133.633,464.688,113.988,468.588,95.336,473.215z M120.126,505.332
		c12.741-2.763,25.918-5.195,39.537-7.247c2.935,16.501,6.334,32.218,10.197,47.103
		C151.385,534.358,134.636,520.911,120.126,505.332z M263.368,574.396c-17.032-1.291-33.535-4.495-49.263-9.481
		c-7.11-21.38-13.071-45.267-17.792-71.394c21.968-2.212,44.394-3.525,67.055-3.965V574.396z M263.368,452.653
		c-24.543,0.458-48.834,1.909-72.615,4.357c-3.336-26.467-5.342-53.925-5.996-82.061h78.611V452.653z M263.368,338.045h-78.679
		c0.558-29.377,2.584-58.017,6.065-85.573c23.786,2.448,48.075,3.899,72.614,4.355V338.045L263.368,338.045z M263.368,219.924
		c-22.668-0.44-45.1-1.755-67.079-3.967c4.438-24.619,9.975-47.167,16.514-67.436c16.122-5.224,33.058-8.596,50.565-9.923V219.924z
		 M356.027,561.446c-17.631,6.56-36.328,10.884-55.755,12.677v-84.479c24.73,0.579,48.892,2.19,72.255,4.841
		C368.092,518.804,362.559,541.197,356.027,561.446z M378.111,457.994c-25.146-2.902-51.18-4.657-77.839-5.256v-77.789h83.96
		C383.568,403.396,381.523,431.181,378.111,457.994z M400.875,538.536c3.072-12.466,5.795-25.536,8.232-39.076
		c10.562,1.726,20.812,3.707,30.822,5.869C428.266,517.853,415.168,529.016,400.875,538.536z M446.494,0.593
		C371.197,7.71,319.629,80.669,332.77,155.151c13.348,75.657,83.102,98.946,117.721,183.872c3.119,7.653,13.895,7.69,17.014,0.037
		c38.375-94.192,119.971-112.575,119.971-210.589C587.475,53.391,523.07-6.646,446.494,0.593z M459.004,196.314
		c-37.469,0-67.844-30.375-67.844-67.844c0-37.469,30.375-67.844,67.844-67.844c37.471,0,67.844,30.375,67.844,67.844
		C526.848,165.939,496.475,196.314,459.004,196.314z"/>
</g>
<g>
</g>
<g>
</g>
<g>
</g>
<g>
</g>
<g>
</g>
<g>
</g>
<g>
</g>
<g>
</g>
<g>
</g>
<g>
</g>
<g>
</g>
<g>
</g>
<g>
</g>
<g>
</g>
<g>
</g>
</svg>
