<?xml version="1.0" encoding="utf-8"?>
<!-- Generator: Adobe Illustrator 22.1.0, SVG Export Plug-In . SVG Version: 6.00 Build 0)  -->
<svg version="1.1" id="Calque_1" xmlns="http://www.w3.org/2000/svg" xmlns:xlink="http://www.w3.org/1999/xlink" x="0px" y="0px"
	 viewBox="0 0 274.6 60.3" style="enable-background:new 0 0 274.6 60.3;" xml:space="preserve">
<style type="text/css">
	.st0{fill:#73BA64;}
	.st1{fill:#FCEB20;}
	.st2{fill:#40BAEC;}
	.st3{fill:#E83C4C;}
	.st4{fill:url(#SVGID_1_);}
	.st5{fill:url(#SVGID_2_);}
	.st6{fill:url(#SVGID_3_);}
	.st7{fill:url(#SVGID_4_);}
	.st8{fill:url(#SVGID_5_);}
</style>
<g>
	<g>
		<path class="st0" d="M244,43.3c6.4,0,9.7-4,9.7-9V17.9h-19.4v16.4C234.3,39.3,237.6,43.3,244,43.3z"/>
		<path class="st1" d="M145.3,57.1L145.3,57.1c-0.6,0-1.2,0-1.8,0H145.3z"/>
		<path class="st1" d="M145.3,3.4h-1.8C144.1,3.4,144.7,3.4,145.3,3.4L145.3,3.4z"/>
		<path class="st1" d="M114.9,30.3c0-16,12.3-26.9,28.6-26.9H83.7c16,0,28.4,10.9,28.4,26.9c0,16-12.4,26.9-28.4,26.9h59.8
			C127.2,57.1,114.9,46.2,114.9,30.3z"/>
		<ellipse class="st1" cx="83.7" cy="30.3" rx="12.5" ry="13"/>
		<rect x="198.9" y="17.9" class="st2" width="13.9" height="38.2"/>
		<polygon class="st3" points="3.9,4.2 3.9,56.2 23.4,56.2 23.4,35.5 		"/>
		<path class="st2" d="M138.6,30.2c0,2.6,2.1,4.7,4.7,4.7c2.6,0,4.7-2.1,4.7-4.7c0-2.6-2.1-4.7-4.7-4.7
			C140.7,25.5,138.6,27.7,138.6,30.2z"/>
	</g>
	<linearGradient id="SVGID_1_" gradientUnits="userSpaceOnUse" x1="31.1702" y1="87.8293" x2="31.1702" y2="18.6782">
		<stop  offset="7.431402e-04" style="stop-color:#3BA9E0"/>
		<stop  offset="1" style="stop-color:#29265B"/>
	</linearGradient>
	<polygon class="st4" points="40.7,4.2 31.2,21.8 21.6,4.2 16.4,4.2 3.9,4.2 23.4,35.5 23.4,56.2 31.2,56.2 39.1,56.2 39.1,35.5 
		58.4,4.2 	"/>
	<linearGradient id="SVGID_2_" gradientUnits="userSpaceOnUse" x1="83.724" y1="87.8293" x2="83.724" y2="18.6782">
		<stop  offset="7.431402e-04" style="stop-color:#3BA9E0"/>
		<stop  offset="1" style="stop-color:#29265B"/>
	</linearGradient>
	<path class="st5" d="M83.7,3.4c-16,0-28.4,10.9-28.4,26.9c0,16,12.4,26.9,28.4,26.9c16,0,28.4-10.9,28.4-26.9
		C112.1,14.3,99.8,3.4,83.7,3.4z M83.7,43.3c-7.6,0-12.5-5.8-12.5-13c0-7.2,4.9-13,12.5-13c7.6,0,12.5,5.8,12.5,13
		C96.2,37.5,91.3,43.3,83.7,43.3z"/>
	<linearGradient id="SVGID_3_" gradientUnits="userSpaceOnUse" x1="141.0273" y1="87.8293" x2="141.0273" y2="18.6782">
		<stop  offset="7.431402e-04" style="stop-color:#3BA9E0"/>
		<stop  offset="1" style="stop-color:#29265B"/>
	</linearGradient>
	<path class="st6" d="M143.5,43.3c-7.6,0-12.6-5.8-12.6-13c0-7.2,5.1-13,12.6-13c4.7,0,8.7,3.5,10,7.6l13.5-6.3
		c-3-6.9-9.4-14.4-21.9-15c-0.6,0-1.1-0.1-1.7-0.1c-16.3,0-28.6,10.8-28.6,26.9c0,16,12.3,26.9,28.6,26.9c0.6,0,1.1,0,1.7-0.1
		c12.5-0.7,19-8.5,21.9-15.1l-13.5-6.2C152.2,39.7,148.2,43.3,143.5,43.3z"/>
	<linearGradient id="SVGID_4_" gradientUnits="userSpaceOnUse" x1="190.9733" y1="95.3622" x2="190.9733" y2="9.753">
		<stop  offset="7.431402e-04" style="stop-color:#3BA9E0"/>
		<stop  offset="1" style="stop-color:#29265B"/>
	</linearGradient>
	<polygon class="st7" points="169.2,4.2 169.2,17.9 183.1,17.9 183.1,56.2 198.2,56.2 198.9,56.2 198.9,17.9 212.7,17.9 212.7,14.2 
		212.7,4.2 	"/>
	<linearGradient id="SVGID_5_" gradientUnits="userSpaceOnUse" x1="243.994" y1="137.3074" x2="243.994" y2="5.6344">
		<stop  offset="7.431402e-04" style="stop-color:#3BA9E0"/>
		<stop  offset="1" style="stop-color:#29265B"/>
	</linearGradient>
	<path class="st8" d="M253.7,4.2v13.7v16.4c0,5-3.3,9-9.7,9c-6.5,0-9.7-4-9.7-9V17.9V4.2h-16v30.6c0,12.8,8.2,22.3,25.7,22.3
		c17.5,0,25.6-9.4,25.6-22.3V4.2H253.7z"/>
</g>
</svg>
