<svg version="1.1" xmlns="http://www.w3.org/2000/svg" viewBox="0 0 1024 1024">
<path fill="#adbcd9" d="M1024 512c0 282.77-229.23 512-512 512s-512-229.23-512-512c0-282.77 229.23-512 512-512s512 229.23 512 512z"></path>
<path fill="none" stroke="#40598b" stroke-linejoin="miter" stroke-linecap="butt" stroke-miterlimit="4" stroke-width="73.1429" d="M230.14 760.426l530.286-530.286"></path>
<path fill="#000000" d="M339.090 567.735h-77.824l-13.751 35.694h-70.217l89.527-204.8h67.877l89.527 204.8h-71.387l-13.751-35.694zM320.073 517.998l-19.895-51.493-19.895 51.493h39.79zM411.842 398.629h100.937c22.821 0 42.911 4.193 60.27 12.581 17.554 8.192 31.111 19.992 40.667 35.401 9.754 15.409 14.629 33.549 14.629 54.418s-4.875 39.009-14.629 54.418c-9.556 15.409-23.113 27.306-40.667 35.694-17.359 8.192-37.449 12.288-60.27 12.288h-100.937v-204.8zM509.853 549.595c14.824 0 26.624-4.193 35.401-12.581 8.973-8.581 13.458-20.577 13.458-35.986s-4.485-27.306-13.458-35.694c-8.777-8.581-20.577-12.873-35.401-12.873h-28.965v97.134h28.965zM717.923 551.936h-18.725v51.493h-69.047v-204.8h98.597c18.918 0 35.401 3.121 49.445 9.362s24.869 15.214 32.475 26.917c7.607 11.703 11.41 25.357 11.41 40.96 0 14.629-3.317 27.405-9.947 38.327-6.632 10.922-16.19 19.602-28.672 26.039l43.008 63.195h-73.728l-34.816-51.493zM752.446 475.867c0-7.607-2.341-13.458-7.022-17.554-4.681-4.292-11.703-6.437-21.065-6.437h-25.161v47.982h25.161c9.362 0 16.384-2.048 21.065-6.144 4.681-4.292 7.022-10.24 7.022-17.847z"></path>
</svg>
